<?xml version="1.0" encoding="utf-8" standalone="no"?>
<!DOCTYPE svg PUBLIC "-//W3C//DTD SVG 1.1//EN"
  "http://www.w3.org/Graphics/SVG/1.1/DTD/svg11.dtd">
<svg xmlns:xlink="http://www.w3.org/1999/xlink" width="928.725156pt" height="390.031187pt" viewBox="0 0 928.725156 390.031187" xmlns="http://www.w3.org/2000/svg" version="1.1">
 <metadata>
  <rdf:RDF xmlns:dc="http://purl.org/dc/elements/1.1/" xmlns:cc="http://creativecommons.org/ns#" xmlns:rdf="http://www.w3.org/1999/02/22-rdf-syntax-ns#">
   <cc:Work>
    <dc:type rdf:resource="http://purl.org/dc/dcmitype/StillImage"/>
    <dc:date>2026-05-05T20:49:12.065646</dc:date>
    <dc:format>image/svg+xml</dc:format>
    <dc:creator>
     <cc:Agent>
      <dc:title>Matplotlib v3.10.9, https://matplotlib.org/</dc:title>
     </cc:Agent>
    </dc:creator>
   </cc:Work>
  </rdf:RDF>
 </metadata>
 <defs>
  <style type="text/css">*{stroke-linejoin: round; stroke-linecap: butt}</style>
 </defs>
 <g id="figure_1">
  <g id="patch_1">
   <path d="M 0 390.031187 
L 928.725156 390.031187 
L 928.725156 0 
L 0 0 
z
" style="fill: #0d1117"/>
  </g>
  <g id="axes_1">
   <g id="patch_2">
    <path d="M 49.900156 367.620249 
L 921.525156 367.620249 
L 921.525156 42.333849 
L 49.900156 42.333849 
z
" style="fill: #0d1117"/>
   </g>
   <g id="matplotlib.axis_1">
    <g id="xtick_1">
     <g id="line2d_1"/>
     <g id="text_1">
      <!-- Jan 2026 -->
      <g style="fill: #8b949e" transform="translate(37.876749 380.760874) scale(0.1 -0.1)">
       <defs>
        <path id="HelveticaNeue-4a" d="M 2822 1139 
L 2822 4570 
L 2214 4570 
L 2214 1229 
Q 2214 851 2057 627 
Q 1901 403 1485 403 
Q 1261 403 1117 470 
Q 973 538 893 659 
Q 813 781 781 947 
Q 749 1114 749 1312 
L 749 1504 
L 141 1504 
L 141 1222 
Q 141 570 486 234 
Q 832 -102 1472 -102 
Q 1856 -102 2115 3 
Q 2374 109 2531 285 
Q 2688 461 2755 685 
Q 2822 909 2822 1139 
z
" transform="scale(0.015625)"/>
        <path id="HelveticaNeue-61" d="M 3341 13 
Q 3200 -70 2950 -70 
Q 2739 -70 2614 48 
Q 2490 166 2490 435 
Q 2266 166 1968 48 
Q 1670 -70 1325 -70 
Q 1101 -70 899 -19 
Q 698 32 550 141 
Q 403 250 316 426 
Q 230 602 230 851 
Q 230 1133 326 1312 
Q 422 1491 579 1603 
Q 736 1715 937 1772 
Q 1139 1830 1350 1869 
Q 1574 1914 1776 1936 
Q 1978 1958 2131 2000 
Q 2285 2042 2374 2122 
Q 2464 2202 2464 2355 
Q 2464 2534 2397 2643 
Q 2330 2752 2224 2809 
Q 2118 2867 1987 2886 
Q 1856 2906 1728 2906 
Q 1382 2906 1152 2774 
Q 922 2643 902 2278 
L 358 2278 
Q 371 2586 486 2797 
Q 602 3008 794 3139 
Q 986 3270 1232 3328 
Q 1478 3386 1760 3386 
Q 1984 3386 2205 3354 
Q 2426 3322 2605 3222 
Q 2784 3123 2893 2944 
Q 3002 2765 3002 2477 
L 3002 774 
Q 3002 582 3024 492 
Q 3046 403 3174 403 
Q 3245 403 3341 435 
L 3341 13 
z
M 2458 1709 
Q 2355 1632 2188 1597 
Q 2022 1562 1840 1539 
Q 1658 1517 1472 1488 
Q 1286 1459 1139 1395 
Q 992 1331 899 1212 
Q 806 1094 806 890 
Q 806 755 860 662 
Q 915 570 1001 512 
Q 1088 454 1203 428 
Q 1318 403 1446 403 
Q 1715 403 1907 476 
Q 2099 550 2220 662 
Q 2342 774 2400 905 
Q 2458 1037 2458 1152 
L 2458 1709 
z
" transform="scale(0.015625)"/>
        <path id="HelveticaNeue-6e" d="M 410 3309 
L 410 0 
L 954 0 
L 954 1869 
Q 954 2093 1014 2281 
Q 1075 2470 1196 2611 
Q 1318 2752 1500 2829 
Q 1683 2906 1933 2906 
Q 2246 2906 2425 2726 
Q 2605 2547 2605 2240 
L 2605 0 
L 3149 0 
L 3149 2176 
Q 3149 2445 3094 2665 
Q 3040 2886 2905 3046 
Q 2771 3206 2553 3296 
Q 2336 3386 2010 3386 
Q 1274 3386 934 2784 
L 922 2784 
L 922 3309 
L 410 3309 
z
" transform="scale(0.015625)"/>
        <path id="HelveticaNeue-20" transform="scale(0.015625)"/>
        <path id="HelveticaNeue-32" d="M 282 2931 
L 826 2931 
Q 819 3136 867 3337 
Q 915 3539 1024 3699 
Q 1133 3859 1302 3958 
Q 1472 4058 1709 4058 
Q 1888 4058 2048 4000 
Q 2208 3942 2326 3833 
Q 2445 3725 2515 3574 
Q 2586 3424 2586 3238 
Q 2586 3002 2512 2822 
Q 2438 2643 2294 2489 
Q 2150 2336 1932 2185 
Q 1715 2035 1427 1856 
Q 1190 1715 972 1555 
Q 755 1395 582 1184 
Q 410 973 298 688 
Q 186 403 154 0 
L 3117 0 
L 3117 480 
L 787 480 
Q 826 691 950 854 
Q 1075 1018 1251 1158 
Q 1427 1299 1638 1424 
Q 1850 1549 2061 1677 
Q 2272 1811 2470 1958 
Q 2669 2106 2822 2288 
Q 2976 2470 3069 2700 
Q 3162 2931 3162 3232 
Q 3162 3552 3050 3795 
Q 2938 4038 2746 4201 
Q 2554 4365 2294 4451 
Q 2035 4538 1741 4538 
Q 1382 4538 1100 4416 
Q 819 4294 630 4080 
Q 442 3866 352 3571 
Q 262 3277 282 2931 
z
" transform="scale(0.015625)"/>
        <path id="HelveticaNeue-30" d="M 845 2234 
Q 845 2400 848 2601 
Q 851 2803 880 3004 
Q 909 3206 963 3398 
Q 1018 3590 1123 3734 
Q 1229 3878 1389 3968 
Q 1549 4058 1779 4058 
Q 2010 4058 2170 3968 
Q 2330 3878 2435 3734 
Q 2541 3590 2595 3398 
Q 2650 3206 2678 3004 
Q 2707 2803 2710 2601 
Q 2714 2400 2714 2234 
Q 2714 1978 2698 1661 
Q 2682 1344 2595 1065 
Q 2509 787 2317 595 
Q 2125 403 1779 403 
Q 1434 403 1242 595 
Q 1050 787 963 1065 
Q 877 1344 861 1661 
Q 845 1978 845 2234 
z
M 269 2227 
Q 269 1978 281 1709 
Q 294 1440 345 1184 
Q 397 928 493 701 
Q 589 474 755 301 
Q 922 128 1174 29 
Q 1427 -70 1779 -70 
Q 2138 -70 2387 29 
Q 2637 128 2803 301 
Q 2970 474 3066 701 
Q 3162 928 3213 1184 
Q 3264 1440 3277 1709 
Q 3290 1978 3290 2227 
Q 3290 2477 3277 2745 
Q 3264 3014 3213 3270 
Q 3162 3526 3066 3756 
Q 2970 3987 2803 4160 
Q 2637 4333 2384 4435 
Q 2131 4538 1779 4538 
Q 1427 4538 1174 4435 
Q 922 4333 755 4160 
Q 589 3987 493 3756 
Q 397 3526 345 3270 
Q 294 3014 281 2745 
Q 269 2477 269 2227 
z
" transform="scale(0.015625)"/>
        <path id="HelveticaNeue-36" d="M 2650 3379 
L 3194 3379 
Q 3142 3942 2809 4240 
Q 2477 4538 1914 4538 
Q 1427 4538 1107 4333 
Q 787 4128 595 3789 
Q 403 3450 323 3011 
Q 243 2573 243 2106 
Q 243 1747 297 1363 
Q 352 979 518 659 
Q 685 339 992 134 
Q 1299 -70 1805 -70 
Q 2234 -70 2525 74 
Q 2816 218 2992 438 
Q 3168 659 3245 928 
Q 3322 1197 3322 1446 
Q 3322 1760 3226 2029 
Q 3130 2298 2954 2496 
Q 2778 2694 2518 2806 
Q 2259 2918 1933 2918 
Q 1562 2918 1277 2777 
Q 992 2637 800 2323 
L 787 2336 
Q 794 2598 838 2899 
Q 883 3200 1001 3459 
Q 1120 3718 1331 3888 
Q 1542 4058 1888 4058 
Q 2214 4058 2412 3872 
Q 2611 3686 2650 3379 
z
M 1830 2438 
Q 2061 2438 2233 2355 
Q 2406 2272 2521 2134 
Q 2637 1997 2691 1808 
Q 2746 1619 2746 1408 
Q 2746 1210 2685 1027 
Q 2624 845 2509 704 
Q 2394 563 2224 483 
Q 2054 403 1830 403 
Q 1606 403 1430 483 
Q 1254 563 1136 697 
Q 1018 832 954 1017 
Q 890 1203 890 1414 
Q 890 1626 950 1814 
Q 1011 2003 1132 2140 
Q 1254 2278 1427 2358 
Q 1600 2438 1830 2438 
z
" transform="scale(0.015625)"/>
       </defs>
       <use xlink:href="#HelveticaNeue-4a"/>
       <use xlink:href="#HelveticaNeue-61" transform="translate(51.899994 0)"/>
       <use xlink:href="#HelveticaNeue-6e" transform="translate(105.599991 0)"/>
       <use xlink:href="#HelveticaNeue-20" transform="translate(161.199982 0)"/>
       <use xlink:href="#HelveticaNeue-32" transform="translate(188.999969 0)"/>
       <use xlink:href="#HelveticaNeue-30" transform="translate(244.59996 0)"/>
       <use xlink:href="#HelveticaNeue-32" transform="translate(300.199951 0)"/>
       <use xlink:href="#HelveticaNeue-36" transform="translate(355.799942 0)"/>
      </g>
     </g>
    </g>
    <g id="xtick_2">
     <g id="line2d_2"/>
     <g id="text_2">
      <!-- Feb 2026 -->
      <g style="fill: #8b949e" transform="translate(251.050172 380.760874) scale(0.1 -0.1)">
       <defs>
        <path id="HelveticaNeue-46" d="M 499 4570 
L 499 0 
L 1107 0 
L 1107 2093 
L 3206 2093 
L 3206 2605 
L 1107 2605 
L 1107 4058 
L 3501 4058 
L 3501 4570 
L 499 4570 
z
" transform="scale(0.015625)"/>
        <path id="HelveticaNeue-65" d="M 2707 1971 
L 806 1971 
Q 819 2163 889 2332 
Q 960 2502 1081 2630 
Q 1203 2758 1372 2832 
Q 1542 2906 1754 2906 
Q 1958 2906 2128 2832 
Q 2298 2758 2422 2633 
Q 2547 2509 2620 2336 
Q 2694 2163 2707 1971 
z
M 3232 1050 
L 2694 1050 
Q 2624 723 2403 563 
Q 2182 403 1837 403 
Q 1568 403 1369 492 
Q 1171 582 1043 732 
Q 915 883 857 1078 
Q 800 1274 806 1491 
L 3283 1491 
Q 3296 1792 3229 2125 
Q 3162 2458 2986 2739 
Q 2810 3021 2518 3203 
Q 2227 3386 1786 3386 
Q 1446 3386 1161 3258 
Q 877 3130 669 2899 
Q 461 2669 345 2355 
Q 230 2042 230 1664 
Q 243 1286 342 966 
Q 442 646 640 416 
Q 838 186 1129 58 
Q 1421 -70 1818 -70 
Q 2381 -70 2752 211 
Q 3123 493 3232 1050 
z
" transform="scale(0.015625)"/>
        <path id="HelveticaNeue-62" d="M 429 4570 
L 429 0 
L 973 0 
L 973 442 
L 986 442 
Q 1075 294 1206 195 
Q 1338 96 1485 38 
Q 1632 -19 1782 -44 
Q 1933 -70 2054 -70 
Q 2432 -70 2717 64 
Q 3002 198 3190 432 
Q 3379 666 3472 979 
Q 3565 1293 3565 1645 
Q 3565 1997 3469 2310 
Q 3373 2624 3184 2864 
Q 2995 3104 2710 3245 
Q 2426 3386 2042 3386 
Q 1696 3386 1408 3261 
Q 1120 3136 986 2861 
L 973 2861 
L 973 4570 
L 429 4570 
z
M 2989 1683 
Q 2989 1440 2937 1209 
Q 2886 979 2771 800 
Q 2656 621 2467 512 
Q 2278 403 1997 403 
Q 1715 403 1516 508 
Q 1318 614 1193 787 
Q 1069 960 1011 1187 
Q 954 1414 954 1658 
Q 954 1888 1008 2112 
Q 1062 2336 1184 2512 
Q 1306 2688 1498 2797 
Q 1690 2906 1965 2906 
Q 2227 2906 2422 2803 
Q 2618 2701 2742 2528 
Q 2867 2355 2928 2134 
Q 2989 1914 2989 1683 
z
" transform="scale(0.015625)"/>
       </defs>
       <use xlink:href="#HelveticaNeue-46"/>
       <use xlink:href="#HelveticaNeue-65" transform="translate(57.399994 0)"/>
       <use xlink:href="#HelveticaNeue-62" transform="translate(111.099991 0)"/>
       <use xlink:href="#HelveticaNeue-20" transform="translate(170.399979 0)"/>
       <use xlink:href="#HelveticaNeue-32" transform="translate(198.199966 0)"/>
       <use xlink:href="#HelveticaNeue-30" transform="translate(253.799957 0)"/>
       <use xlink:href="#HelveticaNeue-32" transform="translate(309.399948 0)"/>
       <use xlink:href="#HelveticaNeue-36" transform="translate(364.999939 0)"/>
      </g>
     </g>
    </g>
    <g id="xtick_3">
     <g id="line2d_3"/>
     <g id="text_3">
      <!-- Mar 2026 -->
      <g style="fill: #8b949e" transform="translate(443.825158 380.760874) scale(0.1 -0.1)">
       <defs>
        <path id="HelveticaNeue-4d" d="M 512 4570 
L 512 0 
L 1088 0 
L 1088 3802 
L 1101 3802 
L 2528 0 
L 3046 0 
L 4474 3802 
L 4486 3802 
L 4486 0 
L 5062 0 
L 5062 4570 
L 4230 4570 
L 2784 730 
L 1344 4570 
L 512 4570 
z
" transform="scale(0.015625)"/>
        <path id="HelveticaNeue-72" d="M 390 3309 
L 390 0 
L 934 0 
L 934 1472 
Q 934 1792 998 2038 
Q 1062 2285 1203 2457 
Q 1344 2630 1574 2720 
Q 1805 2810 2131 2810 
L 2131 3386 
Q 1690 3398 1402 3206 
Q 1114 3014 915 2611 
L 902 2611 
L 902 3309 
L 390 3309 
z
" transform="scale(0.015625)"/>
       </defs>
       <use xlink:href="#HelveticaNeue-4d"/>
       <use xlink:href="#HelveticaNeue-61" transform="translate(87.099991 0)"/>
       <use xlink:href="#HelveticaNeue-72" transform="translate(140.799988 0)"/>
       <use xlink:href="#HelveticaNeue-20" transform="translate(174.099976 0)"/>
       <use xlink:href="#HelveticaNeue-32" transform="translate(201.899963 0)"/>
       <use xlink:href="#HelveticaNeue-30" transform="translate(257.499954 0)"/>
       <use xlink:href="#HelveticaNeue-32" transform="translate(313.099945 0)"/>
       <use xlink:href="#HelveticaNeue-36" transform="translate(368.699936 0)"/>
      </g>
     </g>
    </g>
    <g id="xtick_4">
     <g id="line2d_4"/>
     <g id="text_4">
      <!-- Apr 2026 -->
      <g style="fill: #8b949e" transform="translate(658.293892 380.760874) scale(0.1 -0.1)">
       <defs>
        <path id="HelveticaNeue-41" d="M 1286 1888 
L 2061 4019 
L 2074 4019 
L 2835 1888 
L 1286 1888 
z
M 1741 4570 
L -38 0 
L 582 0 
L 1094 1376 
L 3027 1376 
L 3526 0 
L 4198 0 
L 2413 4570 
L 1741 4570 
z
" transform="scale(0.015625)"/>
        <path id="HelveticaNeue-70" d="M 429 3309 
L 429 -1261 
L 973 -1261 
L 973 442 
L 986 442 
Q 1075 294 1206 195 
Q 1338 96 1485 38 
Q 1632 -19 1782 -44 
Q 1933 -70 2054 -70 
Q 2432 -70 2717 64 
Q 3002 198 3190 432 
Q 3379 666 3472 979 
Q 3565 1293 3565 1645 
Q 3565 1997 3469 2310 
Q 3373 2624 3184 2864 
Q 2995 3104 2710 3245 
Q 2426 3386 2042 3386 
Q 1696 3386 1408 3261 
Q 1120 3136 986 2861 
L 973 2861 
L 973 3309 
L 429 3309 
z
M 2989 1683 
Q 2989 1440 2937 1209 
Q 2886 979 2771 800 
Q 2656 621 2467 512 
Q 2278 403 1997 403 
Q 1715 403 1516 508 
Q 1318 614 1193 787 
Q 1069 960 1011 1187 
Q 954 1414 954 1658 
Q 954 1888 1008 2112 
Q 1062 2336 1184 2512 
Q 1306 2688 1498 2797 
Q 1690 2906 1965 2906 
Q 2227 2906 2422 2803 
Q 2618 2701 2742 2528 
Q 2867 2355 2928 2134 
Q 2989 1914 2989 1683 
z
" transform="scale(0.015625)"/>
       </defs>
       <use xlink:href="#HelveticaNeue-41"/>
       <use xlink:href="#HelveticaNeue-70" transform="translate(64.799988 0)"/>
       <use xlink:href="#HelveticaNeue-72" transform="translate(124.099976 0)"/>
       <use xlink:href="#HelveticaNeue-20" transform="translate(157.399963 0)"/>
       <use xlink:href="#HelveticaNeue-32" transform="translate(185.199951 0)"/>
       <use xlink:href="#HelveticaNeue-30" transform="translate(240.799942 0)"/>
       <use xlink:href="#HelveticaNeue-32" transform="translate(296.399933 0)"/>
       <use xlink:href="#HelveticaNeue-36" transform="translate(351.999924 0)"/>
      </g>
     </g>
    </g>
    <g id="xtick_5">
     <g id="line2d_5"/>
     <g id="text_5">
      <!-- May 2026 -->
      <g style="fill: #8b949e" transform="translate(863.365753 380.760874) scale(0.1 -0.1)">
       <defs>
        <path id="HelveticaNeue-79" d="M 1709 -442 
Q 1613 -685 1520 -851 
Q 1427 -1018 1315 -1123 
Q 1203 -1229 1065 -1277 
Q 928 -1325 749 -1325 
Q 653 -1325 557 -1312 
Q 461 -1299 371 -1267 
L 371 -768 
Q 442 -800 534 -822 
Q 627 -845 691 -845 
Q 858 -845 970 -765 
Q 1082 -685 1139 -538 
L 1363 19 
L 51 3309 
L 666 3309 
L 1632 602 
L 1645 602 
L 2573 3309 
L 3149 3309 
L 1709 -442 
z
" transform="scale(0.015625)"/>
       </defs>
       <use xlink:href="#HelveticaNeue-4d"/>
       <use xlink:href="#HelveticaNeue-61" transform="translate(87.099991 0)"/>
       <use xlink:href="#HelveticaNeue-79" transform="translate(140.799988 0)"/>
       <use xlink:href="#HelveticaNeue-20" transform="translate(190.799973 0)"/>
       <use xlink:href="#HelveticaNeue-32" transform="translate(218.59996 0)"/>
       <use xlink:href="#HelveticaNeue-30" transform="translate(274.199951 0)"/>
       <use xlink:href="#HelveticaNeue-32" transform="translate(329.799942 0)"/>
       <use xlink:href="#HelveticaNeue-36" transform="translate(385.399933 0)"/>
      </g>
     </g>
    </g>
    <g id="xtick_6">
     <g id="line2d_6"/>
    </g>
    <g id="xtick_7">
     <g id="line2d_7"/>
    </g>
    <g id="xtick_8">
     <g id="line2d_8"/>
    </g>
    <g id="xtick_9">
     <g id="line2d_9"/>
    </g>
    <g id="xtick_10">
     <g id="line2d_10"/>
    </g>
    <g id="xtick_11">
     <g id="line2d_11"/>
    </g>
    <g id="xtick_12">
     <g id="line2d_12"/>
    </g>
    <g id="xtick_13">
     <g id="line2d_13"/>
    </g>
    <g id="xtick_14">
     <g id="line2d_14"/>
    </g>
    <g id="xtick_15">
     <g id="line2d_15"/>
    </g>
    <g id="xtick_16">
     <g id="line2d_16"/>
    </g>
    <g id="xtick_17">
     <g id="line2d_17"/>
    </g>
    <g id="xtick_18">
     <g id="line2d_18"/>
    </g>
    <g id="xtick_19">
     <g id="line2d_19"/>
    </g>
    <g id="xtick_20">
     <g id="line2d_20"/>
    </g>
    <g id="xtick_21">
     <g id="line2d_21"/>
    </g>
    <g id="xtick_22">
     <g id="line2d_22"/>
    </g>
    <g id="xtick_23">
     <g id="line2d_23"/>
    </g>
   </g>
   <g id="matplotlib.axis_2">
    <g id="ytick_1">
     <g id="line2d_24">
      <path d="M 49.900156 367.620249 
L 921.525156 367.620249 
" clip-path="url(#p8c1a9b7a81)" style="fill: none; stroke: #8b949e; stroke-opacity: 0.12; stroke-width: 0.6; stroke-linecap: square"/>
     </g>
     <g id="line2d_25"/>
     <g id="text_6">
      <!-- 0 -->
      <g style="fill: #8b949e" transform="translate(38.340781 371.190562) scale(0.1 -0.1)">
       <use xlink:href="#HelveticaNeue-30"/>
      </g>
     </g>
    </g>
    <g id="ytick_2">
     <g id="line2d_26">
      <path d="M 49.900156 324.889688 
L 921.525156 324.889688 
" clip-path="url(#p8c1a9b7a81)" style="fill: none; stroke: #8b949e; stroke-opacity: 0.12; stroke-width: 0.6; stroke-linecap: square"/>
     </g>
     <g id="line2d_27"/>
     <g id="text_7">
      <!-- 20 -->
      <g style="fill: #8b949e" transform="translate(32.781406 328.46) scale(0.1 -0.1)">
       <use xlink:href="#HelveticaNeue-32"/>
       <use xlink:href="#HelveticaNeue-30" transform="translate(55.599991 0)"/>
      </g>
     </g>
    </g>
    <g id="ytick_3">
     <g id="line2d_28">
      <path d="M 49.900156 282.159126 
L 921.525156 282.159126 
" clip-path="url(#p8c1a9b7a81)" style="fill: none; stroke: #8b949e; stroke-opacity: 0.12; stroke-width: 0.6; stroke-linecap: square"/>
     </g>
     <g id="line2d_29"/>
     <g id="text_8">
      <!-- 40 -->
      <g style="fill: #8b949e" transform="translate(32.781406 285.729439) scale(0.1 -0.1)">
       <defs>
        <path id="HelveticaNeue-34" d="M 2170 1542 
L 646 1542 
L 2157 3763 
L 2170 3763 
L 2170 1542 
z
M 2682 1542 
L 2682 4538 
L 2246 4538 
L 179 1587 
L 179 1062 
L 2170 1062 
L 2170 0 
L 2682 0 
L 2682 1062 
L 3296 1062 
L 3296 1542 
L 2682 1542 
z
" transform="scale(0.015625)"/>
       </defs>
       <use xlink:href="#HelveticaNeue-34"/>
       <use xlink:href="#HelveticaNeue-30" transform="translate(55.599991 0)"/>
      </g>
     </g>
    </g>
    <g id="ytick_4">
     <g id="line2d_30">
      <path d="M 49.900156 239.428565 
L 921.525156 239.428565 
" clip-path="url(#p8c1a9b7a81)" style="fill: none; stroke: #8b949e; stroke-opacity: 0.12; stroke-width: 0.6; stroke-linecap: square"/>
     </g>
     <g id="line2d_31"/>
     <g id="text_9">
      <!-- 60 -->
      <g style="fill: #8b949e" transform="translate(32.781406 242.998877) scale(0.1 -0.1)">
       <use xlink:href="#HelveticaNeue-36"/>
       <use xlink:href="#HelveticaNeue-30" transform="translate(55.599991 0)"/>
      </g>
     </g>
    </g>
    <g id="ytick_5">
     <g id="line2d_32">
      <path d="M 49.900156 196.698003 
L 921.525156 196.698003 
" clip-path="url(#p8c1a9b7a81)" style="fill: none; stroke: #8b949e; stroke-opacity: 0.12; stroke-width: 0.6; stroke-linecap: square"/>
     </g>
     <g id="line2d_33"/>
     <g id="text_10">
      <!-- 80 -->
      <g style="fill: #8b949e" transform="translate(32.781406 200.268316) scale(0.1 -0.1)">
       <defs>
        <path id="HelveticaNeue-38" d="M 992 3360 
Q 992 3533 1056 3661 
Q 1120 3789 1225 3878 
Q 1331 3968 1478 4013 
Q 1626 4058 1786 4058 
Q 2118 4058 2332 3882 
Q 2547 3706 2547 3360 
Q 2547 3014 2336 2822 
Q 2125 2630 1798 2630 
Q 1632 2630 1485 2675 
Q 1338 2720 1229 2809 
Q 1120 2899 1056 3036 
Q 992 3174 992 3360 
z
M 416 3379 
Q 416 3072 589 2813 
Q 762 2554 1050 2438 
Q 666 2304 461 2006 
Q 256 1709 256 1306 
Q 256 960 374 701 
Q 493 442 701 269 
Q 909 96 1190 13 
Q 1472 -70 1798 -70 
Q 2112 -70 2387 19 
Q 2662 109 2864 285 
Q 3066 461 3184 717 
Q 3302 973 3302 1306 
Q 3302 1728 3104 2019 
Q 2906 2310 2496 2438 
Q 2784 2566 2953 2819 
Q 3123 3072 3123 3379 
Q 3123 3597 3046 3805 
Q 2970 4013 2806 4176 
Q 2643 4339 2380 4438 
Q 2118 4538 1747 4538 
Q 1485 4538 1245 4461 
Q 1005 4384 819 4237 
Q 634 4090 525 3875 
Q 416 3661 416 3379 
z
M 832 1280 
Q 832 1478 905 1638 
Q 979 1798 1110 1913 
Q 1242 2029 1418 2089 
Q 1594 2150 1792 2150 
Q 1984 2150 2153 2083 
Q 2323 2016 2451 1901 
Q 2579 1786 2652 1629 
Q 2726 1472 2726 1286 
Q 2726 1094 2659 934 
Q 2592 774 2467 656 
Q 2342 538 2172 470 
Q 2003 403 1798 403 
Q 1376 403 1104 636 
Q 832 870 832 1280 
z
" transform="scale(0.015625)"/>
       </defs>
       <use xlink:href="#HelveticaNeue-38"/>
       <use xlink:href="#HelveticaNeue-30" transform="translate(55.599991 0)"/>
      </g>
     </g>
    </g>
    <g id="ytick_6">
     <g id="line2d_34">
      <path d="M 49.900156 153.967442 
L 921.525156 153.967442 
" clip-path="url(#p8c1a9b7a81)" style="fill: none; stroke: #8b949e; stroke-opacity: 0.12; stroke-width: 0.6; stroke-linecap: square"/>
     </g>
     <g id="line2d_35"/>
     <g id="text_11">
      <!-- 100 -->
      <g style="fill: #8b949e" transform="translate(27.222031 157.537754) scale(0.1 -0.1)">
       <defs>
        <path id="HelveticaNeue-31" d="M 2278 0 
L 2278 4538 
L 1862 4538 
Q 1818 4282 1696 4115 
Q 1574 3949 1398 3853 
Q 1222 3757 1004 3721 
Q 787 3686 557 3686 
L 557 3251 
L 1734 3251 
L 1734 0 
L 2278 0 
z
" transform="scale(0.015625)"/>
       </defs>
       <use xlink:href="#HelveticaNeue-31"/>
       <use xlink:href="#HelveticaNeue-30" transform="translate(55.599991 0)"/>
       <use xlink:href="#HelveticaNeue-30" transform="translate(111.199982 0)"/>
      </g>
     </g>
    </g>
    <g id="ytick_7">
     <g id="line2d_36">
      <path d="M 49.900156 111.23688 
L 921.525156 111.23688 
" clip-path="url(#p8c1a9b7a81)" style="fill: none; stroke: #8b949e; stroke-opacity: 0.12; stroke-width: 0.6; stroke-linecap: square"/>
     </g>
     <g id="line2d_37"/>
     <g id="text_12">
      <!-- 120 -->
      <g style="fill: #8b949e" transform="translate(27.222031 114.807193) scale(0.1 -0.1)">
       <use xlink:href="#HelveticaNeue-31"/>
       <use xlink:href="#HelveticaNeue-32" transform="translate(55.599991 0)"/>
       <use xlink:href="#HelveticaNeue-30" transform="translate(111.199982 0)"/>
      </g>
     </g>
    </g>
    <g id="ytick_8">
     <g id="line2d_38">
      <path d="M 49.900156 68.506318 
L 921.525156 68.506318 
" clip-path="url(#p8c1a9b7a81)" style="fill: none; stroke: #8b949e; stroke-opacity: 0.12; stroke-width: 0.6; stroke-linecap: square"/>
     </g>
     <g id="line2d_39"/>
     <g id="text_13">
      <!-- 140 -->
      <g style="fill: #8b949e" transform="translate(27.222031 72.076631) scale(0.1 -0.1)">
       <use xlink:href="#HelveticaNeue-31"/>
       <use xlink:href="#HelveticaNeue-34" transform="translate(55.599991 0)"/>
       <use xlink:href="#HelveticaNeue-30" transform="translate(111.199982 0)"/>
      </g>
     </g>
    </g>
    <g id="text_14">
     <!-- Contributions -->
     <g style="fill: #8b949e" transform="translate(15.054687 238.185878) rotate(-90) scale(0.11 -0.11)">
      <defs>
       <path id="HelveticaNeue-43" d="M 3712 3194 
L 4320 3194 
Q 4269 3558 4102 3836 
Q 3936 4115 3686 4300 
Q 3437 4486 3117 4582 
Q 2797 4678 2438 4678 
Q 1914 4678 1507 4489 
Q 1101 4301 829 3974 
Q 557 3648 416 3209 
Q 275 2771 275 2272 
Q 275 1773 406 1337 
Q 538 902 800 582 
Q 1062 262 1459 80 
Q 1856 -102 2387 -102 
Q 3264 -102 3769 378 
Q 4275 858 4365 1722 
L 3757 1722 
Q 3738 1440 3642 1197 
Q 3546 954 3376 778 
Q 3206 602 2972 502 
Q 2739 403 2438 403 
Q 2029 403 1734 556 
Q 1440 710 1251 969 
Q 1062 1229 972 1577 
Q 883 1926 883 2317 
Q 883 2675 972 3008 
Q 1062 3341 1251 3600 
Q 1440 3859 1731 4012 
Q 2022 4166 2432 4166 
Q 2912 4166 3261 3923 
Q 3610 3680 3712 3194 
z
" transform="scale(0.015625)"/>
       <path id="HelveticaNeue-6f" d="M 806 1651 
Q 806 1952 886 2185 
Q 966 2419 1107 2579 
Q 1248 2739 1437 2822 
Q 1626 2906 1837 2906 
Q 2048 2906 2237 2822 
Q 2426 2739 2566 2579 
Q 2707 2419 2787 2185 
Q 2867 1952 2867 1651 
Q 2867 1350 2787 1116 
Q 2707 883 2566 726 
Q 2426 570 2237 486 
Q 2048 403 1837 403 
Q 1626 403 1437 486 
Q 1248 570 1107 726 
Q 966 883 886 1116 
Q 806 1350 806 1651 
z
M 230 1651 
Q 230 1286 332 972 
Q 435 659 640 425 
Q 845 192 1145 61 
Q 1446 -70 1837 -70 
Q 2234 -70 2531 61 
Q 2829 192 3033 425 
Q 3238 659 3340 972 
Q 3443 1286 3443 1651 
Q 3443 2016 3340 2333 
Q 3238 2650 3033 2883 
Q 2829 3117 2531 3251 
Q 2234 3386 1837 3386 
Q 1446 3386 1145 3251 
Q 845 3117 640 2883 
Q 435 2650 332 2333 
Q 230 2016 230 1651 
z
" transform="scale(0.015625)"/>
       <path id="HelveticaNeue-74" d="M 1165 3309 
L 1165 4301 
L 621 4301 
L 621 3309 
L 58 3309 
L 58 2829 
L 621 2829 
L 621 723 
Q 621 493 665 352 
Q 710 211 803 134 
Q 896 58 1046 29 
Q 1197 0 1408 0 
L 1824 0 
L 1824 480 
L 1574 480 
Q 1446 480 1366 489 
Q 1286 499 1241 531 
Q 1197 563 1181 620 
Q 1165 678 1165 774 
L 1165 2829 
L 1824 2829 
L 1824 3309 
L 1165 3309 
z
" transform="scale(0.015625)"/>
       <path id="HelveticaNeue-69" d="M 986 3904 
L 986 4570 
L 442 4570 
L 442 3904 
L 986 3904 
z
M 442 3309 
L 442 0 
L 986 0 
L 986 3309 
L 442 3309 
z
" transform="scale(0.015625)"/>
       <path id="HelveticaNeue-75" d="M 3149 0 
L 3149 3309 
L 2605 3309 
L 2605 1440 
Q 2605 1216 2544 1027 
Q 2483 838 2361 697 
Q 2240 557 2057 480 
Q 1875 403 1626 403 
Q 1312 403 1133 582 
Q 954 762 954 1069 
L 954 3309 
L 410 3309 
L 410 1133 
Q 410 864 464 643 
Q 518 422 652 262 
Q 787 102 1004 16 
Q 1222 -70 1549 -70 
Q 1914 -70 2182 74 
Q 2451 218 2624 525 
L 2637 525 
L 2637 0 
L 3149 0 
z
" transform="scale(0.015625)"/>
       <path id="HelveticaNeue-73" d="M 742 1043 
L 198 1043 
Q 211 736 326 521 
Q 442 307 634 176 
Q 826 45 1075 -12 
Q 1325 -70 1600 -70 
Q 1850 -70 2102 -22 
Q 2355 26 2556 147 
Q 2758 269 2883 467 
Q 3008 666 3008 966 
Q 3008 1203 2915 1363 
Q 2822 1523 2672 1628 
Q 2522 1734 2326 1798 
Q 2131 1862 1926 1907 
Q 1734 1952 1542 1993 
Q 1350 2035 1196 2096 
Q 1043 2157 944 2249 
Q 845 2342 845 2483 
Q 845 2611 909 2691 
Q 973 2771 1075 2819 
Q 1178 2867 1302 2886 
Q 1427 2906 1549 2906 
Q 1683 2906 1814 2877 
Q 1946 2848 2054 2784 
Q 2163 2720 2233 2614 
Q 2304 2509 2317 2349 
L 2861 2349 
Q 2842 2650 2733 2851 
Q 2624 3053 2441 3171 
Q 2259 3290 2022 3338 
Q 1786 3386 1504 3386 
Q 1286 3386 1065 3331 
Q 845 3277 669 3165 
Q 493 3053 381 2873 
Q 269 2694 269 2445 
Q 269 2125 429 1945 
Q 589 1766 829 1667 
Q 1069 1568 1350 1513 
Q 1632 1459 1872 1392 
Q 2112 1325 2272 1216 
Q 2432 1107 2432 896 
Q 2432 742 2355 643 
Q 2278 544 2160 493 
Q 2042 442 1901 422 
Q 1760 403 1632 403 
Q 1466 403 1309 435 
Q 1152 467 1027 540 
Q 902 614 825 739 
Q 749 864 742 1043 
z
" transform="scale(0.015625)"/>
      </defs>
      <use xlink:href="#HelveticaNeue-43"/>
      <use xlink:href="#HelveticaNeue-6f" transform="translate(72.199982 0)"/>
      <use xlink:href="#HelveticaNeue-6e" transform="translate(129.599976 0)"/>
      <use xlink:href="#HelveticaNeue-74" transform="translate(185.199966 0)"/>
      <use xlink:href="#HelveticaNeue-72" transform="translate(216.699951 0)"/>
      <use xlink:href="#HelveticaNeue-69" transform="translate(249.999939 0)"/>
      <use xlink:href="#HelveticaNeue-62" transform="translate(272.199936 0)"/>
      <use xlink:href="#HelveticaNeue-75" transform="translate(331.499924 0)"/>
      <use xlink:href="#HelveticaNeue-74" transform="translate(387.099915 0)"/>
      <use xlink:href="#HelveticaNeue-69" transform="translate(418.599899 0)"/>
      <use xlink:href="#HelveticaNeue-6f" transform="translate(440.799896 0)"/>
      <use xlink:href="#HelveticaNeue-6e" transform="translate(498.19989 0)"/>
      <use xlink:href="#HelveticaNeue-73" transform="translate(553.799881 0)"/>
     </g>
    </g>
   </g>
   <g id="FillBetweenPolyCollection_1">
    <defs>
     <path id="m5304f65d86" d="M 58.445499 -22.410938 
L 58.445499 -22.410938 
L 65.336905 -22.410938 
L 72.228311 -22.410938 
L 79.119717 -22.410938 
L 86.011122 -22.410938 
L 92.902528 -22.410938 
L 99.793934 -22.410938 
L 106.68534 -22.410938 
L 113.576745 -22.410938 
L 120.468151 -22.410938 
L 127.359557 -22.410938 
L 134.250963 -22.410938 
L 141.142368 -22.410938 
L 148.033774 -22.410938 
L 154.92518 -22.410938 
L 161.816586 -22.410938 
L 168.707991 -22.410938 
L 175.599397 -22.410938 
L 182.490803 -22.410938 
L 189.382209 -22.410938 
L 196.273615 -22.410938 
L 203.16502 -22.410938 
L 210.056426 -22.410938 
L 216.947832 -22.410938 
L 223.839238 -22.410938 
L 230.730643 -22.410938 
L 237.622049 -22.410938 
L 244.513455 -22.410938 
L 251.404861 -22.410938 
L 258.296266 -22.410938 
L 265.187672 -22.410938 
L 272.079078 -22.410938 
L 278.970484 -22.410938 
L 285.861889 -22.410938 
L 292.753295 -22.410938 
L 299.644701 -22.410938 
L 306.536107 -22.410938 
L 313.427512 -22.410938 
L 320.318918 -22.410938 
L 327.210324 -22.410938 
L 334.10173 -22.410938 
L 340.993135 -22.410938 
L 347.884541 -22.410938 
L 354.775947 -22.410938 
L 361.667353 -22.410938 
L 368.558758 -22.410938 
L 375.450164 -22.410938 
L 382.34157 -22.410938 
L 389.232976 -22.410938 
L 396.124381 -22.410938 
L 403.015787 -22.410938 
L 409.907193 -22.410938 
L 416.798599 -22.410938 
L 423.690004 -22.410938 
L 430.58141 -22.410938 
L 437.472816 -22.410938 
L 444.364222 -22.410938 
L 451.255627 -22.410938 
L 458.147033 -22.410938 
L 465.038439 -22.410938 
L 471.929845 -22.410938 
L 478.82125 -22.410938 
L 485.712656 -22.410938 
L 492.604062 -22.410938 
L 499.495468 -22.410938 
L 506.386874 -22.410938 
L 513.278279 -26.683994 
L 520.169685 -22.410938 
L 527.061091 -22.410938 
L 533.952497 -22.410938 
L 540.843902 -22.410938 
L 547.735308 -22.410938 
L 554.626714 -24.547466 
L 561.51812 -22.410938 
L 568.409525 -37.366634 
L 575.300931 -80.097196 
L 582.192337 -69.414555 
L 589.083743 -24.547466 
L 595.975148 -22.410938 
L 602.866554 -26.683994 
L 609.75796 -22.410938 
L 616.649366 -22.410938 
L 623.540771 -33.093578 
L 630.432177 -22.410938 
L 637.323583 -48.049274 
L 644.214989 -84.370252 
L 651.106394 -80.097196 
L 657.9978 -50.185803 
L 664.889206 -206.152352 
L 671.780612 -118.554701 
L 678.672017 -148.466094 
L 685.563423 -84.370252 
L 692.454829 -54.458859 
L 699.346235 -22.410938 
L 706.23764 -33.093578 
L 713.129046 -204.015824 
L 720.020452 -229.654161 
L 726.911858 -332.207509 
L 733.803263 -103.599004 
L 740.694669 -43.776218 
L 747.586075 -92.916364 
L 754.477481 -60.868443 
L 761.368886 -231.790689 
L 768.260292 -135.646926 
L 775.151698 -152.73915 
L 782.043104 -142.05651 
L 788.93451 -191.196656 
L 795.825915 -22.410938 
L 802.717321 -99.325948 
L 809.608727 -189.060128 
L 816.500133 -184.787071 
L 823.391538 -127.100813 
L 830.282944 -101.462476 
L 837.17435 -127.100813 
L 844.065756 -90.779836 
L 850.957161 -80.097196 
L 857.848567 -67.278027 
L 864.739973 -37.366634 
L 871.631379 -24.547466 
L 878.522784 -22.410938 
L 885.41419 -22.410938 
L 892.305596 -24.547466 
L 899.197002 -24.547466 
L 906.088407 -86.50678 
L 912.979813 -112.145117 
L 912.979813 -22.410938 
L 912.979813 -22.410938 
L 906.088407 -22.410938 
L 899.197002 -22.410938 
L 892.305596 -22.410938 
L 885.41419 -22.410938 
L 878.522784 -22.410938 
L 871.631379 -22.410938 
L 864.739973 -22.410938 
L 857.848567 -22.410938 
L 850.957161 -22.410938 
L 844.065756 -22.410938 
L 837.17435 -22.410938 
L 830.282944 -22.410938 
L 823.391538 -22.410938 
L 816.500133 -22.410938 
L 809.608727 -22.410938 
L 802.717321 -22.410938 
L 795.825915 -22.410938 
L 788.93451 -22.410938 
L 782.043104 -22.410938 
L 775.151698 -22.410938 
L 768.260292 -22.410938 
L 761.368886 -22.410938 
L 754.477481 -22.410938 
L 747.586075 -22.410938 
L 740.694669 -22.410938 
L 733.803263 -22.410938 
L 726.911858 -22.410938 
L 720.020452 -22.410938 
L 713.129046 -22.410938 
L 706.23764 -22.410938 
L 699.346235 -22.410938 
L 692.454829 -22.410938 
L 685.563423 -22.410938 
L 678.672017 -22.410938 
L 671.780612 -22.410938 
L 664.889206 -22.410938 
L 657.9978 -22.410938 
L 651.106394 -22.410938 
L 644.214989 -22.410938 
L 637.323583 -22.410938 
L 630.432177 -22.410938 
L 623.540771 -22.410938 
L 616.649366 -22.410938 
L 609.75796 -22.410938 
L 602.866554 -22.410938 
L 595.975148 -22.410938 
L 589.083743 -22.410938 
L 582.192337 -22.410938 
L 575.300931 -22.410938 
L 568.409525 -22.410938 
L 561.51812 -22.410938 
L 554.626714 -22.410938 
L 547.735308 -22.410938 
L 540.843902 -22.410938 
L 533.952497 -22.410938 
L 527.061091 -22.410938 
L 520.169685 -22.410938 
L 513.278279 -22.410938 
L 506.386874 -22.410938 
L 499.495468 -22.410938 
L 492.604062 -22.410938 
L 485.712656 -22.410938 
L 478.82125 -22.410938 
L 471.929845 -22.410938 
L 465.038439 -22.410938 
L 458.147033 -22.410938 
L 451.255627 -22.410938 
L 444.364222 -22.410938 
L 437.472816 -22.410938 
L 430.58141 -22.410938 
L 423.690004 -22.410938 
L 416.798599 -22.410938 
L 409.907193 -22.410938 
L 403.015787 -22.410938 
L 396.124381 -22.410938 
L 389.232976 -22.410938 
L 382.34157 -22.410938 
L 375.450164 -22.410938 
L 368.558758 -22.410938 
L 361.667353 -22.410938 
L 354.775947 -22.410938 
L 347.884541 -22.410938 
L 340.993135 -22.410938 
L 334.10173 -22.410938 
L 327.210324 -22.410938 
L 320.318918 -22.410938 
L 313.427512 -22.410938 
L 306.536107 -22.410938 
L 299.644701 -22.410938 
L 292.753295 -22.410938 
L 285.861889 -22.410938 
L 278.970484 -22.410938 
L 272.079078 -22.410938 
L 265.187672 -22.410938 
L 258.296266 -22.410938 
L 251.404861 -22.410938 
L 244.513455 -22.410938 
L 237.622049 -22.410938 
L 230.730643 -22.410938 
L 223.839238 -22.410938 
L 216.947832 -22.410938 
L 210.056426 -22.410938 
L 203.16502 -22.410938 
L 196.273615 -22.410938 
L 189.382209 -22.410938 
L 182.490803 -22.410938 
L 175.599397 -22.410938 
L 168.707991 -22.410938 
L 161.816586 -22.410938 
L 154.92518 -22.410938 
L 148.033774 -22.410938 
L 141.142368 -22.410938 
L 134.250963 -22.410938 
L 127.359557 -22.410938 
L 120.468151 -22.410938 
L 113.576745 -22.410938 
L 106.68534 -22.410938 
L 99.793934 -22.410938 
L 92.902528 -22.410938 
L 86.011122 -22.410938 
L 79.119717 -22.410938 
L 72.228311 -22.410938 
L 65.336905 -22.410938 
L 58.445499 -22.410938 
z
"/>
    </defs>
    <g clip-path="url(#p8c1a9b7a81)">
     <use xlink:href="#m5304f65d86" x="0" y="390.031187" style="fill: #f97316; fill-opacity: 0.18"/>
    </g>
   </g>
   <g id="line2d_40">
    <path d="M 58.445499 367.620249 
L 65.336905 367.620249 
L 72.228311 367.620249 
L 79.119717 367.620249 
L 86.011122 367.620249 
L 92.902528 367.620249 
L 99.793934 367.620249 
L 106.68534 367.620249 
L 113.576745 367.620249 
L 120.468151 367.620249 
L 127.359557 367.620249 
L 134.250963 367.620249 
L 141.142368 367.620249 
L 148.033774 367.620249 
L 154.92518 367.620249 
L 161.816586 367.620249 
L 168.707991 367.620249 
L 175.599397 367.620249 
L 182.490803 367.620249 
L 189.382209 367.620249 
L 196.273615 367.620249 
L 203.16502 367.620249 
L 210.056426 367.620249 
L 216.947832 367.620249 
L 223.839238 367.620249 
L 230.730643 367.620249 
L 237.622049 367.620249 
L 244.513455 367.620249 
L 251.404861 367.620249 
L 258.296266 367.620249 
L 265.187672 367.620249 
L 272.079078 367.620249 
L 278.970484 367.620249 
L 285.861889 367.620249 
L 292.753295 367.620249 
L 299.644701 367.620249 
L 306.536107 367.620249 
L 313.427512 367.620249 
L 320.318918 367.620249 
L 327.210324 367.620249 
L 334.10173 367.620249 
L 340.993135 367.620249 
L 347.884541 367.620249 
L 354.775947 367.620249 
L 361.667353 367.620249 
L 368.558758 367.620249 
L 375.450164 367.620249 
L 382.34157 367.620249 
L 389.232976 367.620249 
L 396.124381 367.620249 
L 403.015787 367.620249 
L 409.907193 367.620249 
L 416.798599 367.620249 
L 423.690004 367.620249 
L 430.58141 367.620249 
L 437.472816 367.620249 
L 444.364222 367.620249 
L 451.255627 367.620249 
L 458.147033 367.620249 
L 465.038439 367.620249 
L 471.929845 367.620249 
L 478.82125 367.620249 
L 485.712656 367.620249 
L 492.604062 367.620249 
L 499.495468 367.620249 
L 506.386874 367.620249 
L 513.278279 363.347193 
L 520.169685 367.620249 
L 527.061091 367.620249 
L 533.952497 367.620249 
L 540.843902 367.620249 
L 547.735308 367.620249 
L 554.626714 365.483721 
L 561.51812 367.620249 
L 568.409525 352.664553 
L 575.300931 309.933991 
L 582.192337 320.616632 
L 589.083743 365.483721 
L 595.975148 367.620249 
L 602.866554 363.347193 
L 609.75796 367.620249 
L 616.649366 367.620249 
L 623.540771 356.937609 
L 630.432177 367.620249 
L 637.323583 341.981913 
L 644.214989 305.660935 
L 651.106394 309.933991 
L 657.9978 339.845384 
L 664.889206 183.878835 
L 671.780612 271.476486 
L 678.672017 241.565093 
L 685.563423 305.660935 
L 692.454829 335.572328 
L 699.346235 367.620249 
L 706.23764 356.937609 
L 713.129046 186.015363 
L 720.020452 160.377026 
L 726.911858 57.823678 
L 733.803263 286.432183 
L 740.694669 346.254969 
L 747.586075 297.114823 
L 754.477481 329.162744 
L 761.368886 158.240498 
L 768.260292 254.384261 
L 775.151698 237.292037 
L 782.043104 247.974677 
L 788.93451 198.834531 
L 795.825915 367.620249 
L 802.717321 290.705239 
L 809.608727 200.971059 
L 816.500133 205.244116 
L 823.391538 262.930374 
L 830.282944 288.568711 
L 837.17435 262.930374 
L 844.065756 299.251351 
L 850.957161 309.933991 
L 857.848567 322.75316 
L 864.739973 352.664553 
L 871.631379 365.483721 
L 878.522784 367.620249 
L 885.41419 367.620249 
L 892.305596 365.483721 
L 899.197002 365.483721 
L 906.088407 303.524407 
L 912.979813 277.88607 
" clip-path="url(#p8c1a9b7a81)" style="fill: none; stroke: #f97316; stroke-width: 2.2; stroke-linecap: round"/>
   </g>
   <g id="text_15">
    <!-- 1,647 commits   ·   peak 145 -->
    <g style="fill: #8b949e" transform="translate(790.052969 14.340625) scale(0.1 -0.1)">
     <defs>
      <path id="HelveticaNeue-2c" d="M 531 710 
L 531 0 
L 909 0 
Q 915 -77 899 -166 
Q 883 -256 838 -342 
Q 794 -429 720 -502 
Q 646 -576 538 -614 
L 538 -934 
Q 909 -826 1075 -563 
Q 1242 -301 1242 64 
L 1242 710 
L 531 710 
z
" transform="scale(0.015625)"/>
      <path id="HelveticaNeue-37" d="M 3258 3994 
L 3258 4461 
L 320 4461 
L 320 3949 
L 2701 3949 
Q 2342 3571 2032 3123 
Q 1722 2675 1485 2172 
Q 1248 1670 1097 1123 
Q 947 576 909 0 
L 1517 0 
Q 1549 531 1696 1094 
Q 1843 1658 2076 2189 
Q 2310 2720 2611 3187 
Q 2912 3654 3258 3994 
z
" transform="scale(0.015625)"/>
      <path id="HelveticaNeue-63" d="M 2656 2246 
L 3219 2246 
Q 3187 2541 3065 2755 
Q 2944 2970 2755 3110 
Q 2566 3251 2320 3318 
Q 2074 3386 1792 3386 
Q 1402 3386 1107 3248 
Q 813 3110 617 2870 
Q 422 2630 326 2307 
Q 230 1984 230 1613 
Q 230 1242 329 931 
Q 429 621 624 397 
Q 819 173 1110 51 
Q 1402 -70 1779 -70 
Q 2413 -70 2781 262 
Q 3149 595 3238 1210 
L 2682 1210 
Q 2630 826 2403 614 
Q 2176 403 1773 403 
Q 1517 403 1331 505 
Q 1146 608 1030 777 
Q 915 947 860 1164 
Q 806 1382 806 1613 
Q 806 1862 857 2096 
Q 909 2330 1027 2509 
Q 1146 2688 1344 2797 
Q 1542 2906 1837 2906 
Q 2182 2906 2387 2733 
Q 2592 2560 2656 2246 
z
" transform="scale(0.015625)"/>
      <path id="HelveticaNeue-6d" d="M 410 3309 
L 410 0 
L 954 0 
L 954 2061 
Q 954 2157 1002 2301 
Q 1050 2445 1155 2579 
Q 1261 2714 1430 2810 
Q 1600 2906 1837 2906 
Q 2022 2906 2140 2851 
Q 2259 2797 2329 2697 
Q 2400 2598 2429 2464 
Q 2458 2330 2458 2170 
L 2458 0 
L 3002 0 
L 3002 2061 
Q 3002 2445 3232 2675 
Q 3462 2906 3866 2906 
Q 4064 2906 4189 2848 
Q 4314 2790 4384 2691 
Q 4454 2592 4480 2457 
Q 4506 2323 4506 2170 
L 4506 0 
L 5050 0 
L 5050 2426 
Q 5050 2682 4970 2864 
Q 4890 3046 4746 3161 
Q 4602 3277 4400 3331 
Q 4198 3386 3949 3386 
Q 3622 3386 3350 3238 
Q 3078 3091 2912 2822 
Q 2810 3130 2560 3258 
Q 2310 3386 2003 3386 
Q 1306 3386 934 2822 
L 922 2822 
L 922 3309 
L 410 3309 
z
" transform="scale(0.015625)"/>
      <path id="HelveticaNeue-b7" d="M 480 1990 
Q 480 1824 605 1702 
Q 730 1581 896 1581 
Q 1056 1581 1177 1709 
Q 1299 1837 1299 1990 
Q 1299 2157 1177 2278 
Q 1056 2400 890 2400 
Q 723 2400 601 2278 
Q 480 2157 480 1990 
z
" transform="scale(0.015625)"/>
      <path id="HelveticaNeue-6b" d="M 442 4570 
L 442 0 
L 986 0 
L 986 1254 
L 1498 1728 
L 2630 0 
L 3322 0 
L 1914 2106 
L 3226 3309 
L 2496 3309 
L 986 1862 
L 986 4570 
L 442 4570 
z
" transform="scale(0.015625)"/>
      <path id="HelveticaNeue-35" d="M 3008 3981 
L 3008 4461 
L 768 4461 
L 346 2106 
L 813 2080 
Q 973 2272 1181 2390 
Q 1389 2509 1658 2509 
Q 1888 2509 2077 2432 
Q 2266 2355 2400 2217 
Q 2534 2080 2608 1891 
Q 2682 1702 2682 1478 
Q 2682 1210 2605 1008 
Q 2528 806 2397 672 
Q 2266 538 2090 470 
Q 1914 403 1722 403 
Q 1517 403 1347 464 
Q 1178 525 1053 637 
Q 928 749 854 899 
Q 781 1050 768 1222 
L 224 1222 
Q 230 915 345 672 
Q 461 429 659 265 
Q 858 102 1117 16 
Q 1376 -70 1670 -70 
Q 2067 -70 2364 54 
Q 2662 179 2860 390 
Q 3059 602 3158 874 
Q 3258 1146 3258 1434 
Q 3258 1824 3142 2115 
Q 3027 2406 2828 2601 
Q 2630 2797 2361 2893 
Q 2093 2989 1792 2989 
Q 1562 2989 1328 2909 
Q 1094 2829 947 2662 
L 934 2675 
L 1178 3981 
L 3008 3981 
z
" transform="scale(0.015625)"/>
     </defs>
     <use xlink:href="#HelveticaNeue-31"/>
     <use xlink:href="#HelveticaNeue-2c" transform="translate(55.599991 0)"/>
     <use xlink:href="#HelveticaNeue-36" transform="translate(83.399979 0)"/>
     <use xlink:href="#HelveticaNeue-34" transform="translate(138.999969 0)"/>
     <use xlink:href="#HelveticaNeue-37" transform="translate(194.59996 0)"/>
     <use xlink:href="#HelveticaNeue-20" transform="translate(250.199951 0)"/>
     <use xlink:href="#HelveticaNeue-63" transform="translate(277.999939 0)"/>
     <use xlink:href="#HelveticaNeue-6f" transform="translate(331.699936 0)"/>
     <use xlink:href="#HelveticaNeue-6d" transform="translate(389.09993 0)"/>
     <use xlink:href="#HelveticaNeue-6d" transform="translate(474.399918 0)"/>
     <use xlink:href="#HelveticaNeue-69" transform="translate(559.699905 0)"/>
     <use xlink:href="#HelveticaNeue-74" transform="translate(581.899902 0)"/>
     <use xlink:href="#HelveticaNeue-73" transform="translate(613.399887 0)"/>
     <use xlink:href="#HelveticaNeue-20" transform="translate(663.399872 0)"/>
     <use xlink:href="#HelveticaNeue-20" transform="translate(691.19986 0)"/>
     <use xlink:href="#HelveticaNeue-20" transform="translate(718.999847 0)"/>
     <use xlink:href="#HelveticaNeue-b7" transform="translate(746.799835 0)"/>
     <use xlink:href="#HelveticaNeue-20" transform="translate(774.599823 0)"/>
     <use xlink:href="#HelveticaNeue-20" transform="translate(802.399811 0)"/>
     <use xlink:href="#HelveticaNeue-20" transform="translate(830.199799 0)"/>
     <use xlink:href="#HelveticaNeue-70" transform="translate(857.999786 0)"/>
     <use xlink:href="#HelveticaNeue-65" transform="translate(917.299774 0)"/>
     <use xlink:href="#HelveticaNeue-61" transform="translate(970.999771 0)"/>
     <use xlink:href="#HelveticaNeue-6b" transform="translate(1024.699768 0)"/>
     <use xlink:href="#HelveticaNeue-20" transform="translate(1076.599762 0)"/>
     <use xlink:href="#HelveticaNeue-31" transform="translate(1104.39975 0)"/>
     <use xlink:href="#HelveticaNeue-34" transform="translate(1159.999741 0)"/>
     <use xlink:href="#HelveticaNeue-35" transform="translate(1215.599731 0)"/>
    </g>
   </g>
   <g id="text_16">
    <!-- Commit Activity · 2026 YTD -->
    <g style="fill: #c9d1d9" transform="translate(49.900156 24.333849) scale(0.16 -0.16)">
     <defs>
      <path id="HelveticaNeue-76" d="M 1901 0 
L 3110 3309 
L 2541 3309 
L 1638 550 
L 1626 550 
L 698 3309 
L 90 3309 
L 1318 0 
L 1901 0 
z
" transform="scale(0.015625)"/>
      <path id="HelveticaNeue-59" d="M 2387 1869 
L 4134 4570 
L 3443 4570 
L 2106 2394 
L 736 4570 
L 13 4570 
L 1779 1869 
L 1779 0 
L 2387 0 
L 2387 1869 
z
" transform="scale(0.015625)"/>
      <path id="HelveticaNeue-54" d="M 1536 4058 
L 1536 0 
L 2144 0 
L 2144 4058 
L 3667 4058 
L 3667 4570 
L 13 4570 
L 13 4058 
L 1536 4058 
z
" transform="scale(0.015625)"/>
      <path id="HelveticaNeue-44" d="M 1107 512 
L 1107 4058 
L 2131 4058 
Q 2554 4058 2842 3939 
Q 3130 3821 3312 3593 
Q 3494 3366 3574 3043 
Q 3654 2720 3654 2310 
Q 3654 1888 3568 1590 
Q 3482 1293 3347 1094 
Q 3213 896 3043 781 
Q 2874 666 2701 605 
Q 2528 544 2374 528 
Q 2221 512 2118 512 
L 1107 512 
z
M 499 4570 
L 499 0 
L 2067 0 
Q 2637 0 3053 160 
Q 3469 320 3737 624 
Q 4006 928 4134 1373 
Q 4262 1818 4262 2394 
Q 4262 3494 3692 4032 
Q 3123 4570 2067 4570 
L 499 4570 
z
" transform="scale(0.015625)"/>
     </defs>
     <use xlink:href="#HelveticaNeue-43"/>
     <use xlink:href="#HelveticaNeue-6f" transform="translate(72.199982 0)"/>
     <use xlink:href="#HelveticaNeue-6d" transform="translate(129.599976 0)"/>
     <use xlink:href="#HelveticaNeue-6d" transform="translate(214.899963 0)"/>
     <use xlink:href="#HelveticaNeue-69" transform="translate(300.199951 0)"/>
     <use xlink:href="#HelveticaNeue-74" transform="translate(322.399948 0)"/>
     <use xlink:href="#HelveticaNeue-20" transform="translate(353.899933 0)"/>
     <use xlink:href="#HelveticaNeue-41" transform="translate(381.699921 0)"/>
     <use xlink:href="#HelveticaNeue-63" transform="translate(446.499908 0)"/>
     <use xlink:href="#HelveticaNeue-74" transform="translate(500.199905 0)"/>
     <use xlink:href="#HelveticaNeue-69" transform="translate(531.69989 0)"/>
     <use xlink:href="#HelveticaNeue-76" transform="translate(553.899887 0)"/>
     <use xlink:href="#HelveticaNeue-69" transform="translate(603.899872 0)"/>
     <use xlink:href="#HelveticaNeue-74" transform="translate(626.099869 0)"/>
     <use xlink:href="#HelveticaNeue-79" transform="translate(657.599854 0)"/>
     <use xlink:href="#HelveticaNeue-20" transform="translate(707.599838 0)"/>
     <use xlink:href="#HelveticaNeue-b7" transform="translate(735.399826 0)"/>
     <use xlink:href="#HelveticaNeue-20" transform="translate(763.199814 0)"/>
     <use xlink:href="#HelveticaNeue-32" transform="translate(790.999802 0)"/>
     <use xlink:href="#HelveticaNeue-30" transform="translate(846.599792 0)"/>
     <use xlink:href="#HelveticaNeue-32" transform="translate(902.199783 0)"/>
     <use xlink:href="#HelveticaNeue-36" transform="translate(957.799774 0)"/>
     <use xlink:href="#HelveticaNeue-20" transform="translate(1013.399765 0)"/>
     <use xlink:href="#HelveticaNeue-59" transform="translate(1041.199753 0)"/>
     <use xlink:href="#HelveticaNeue-54" transform="translate(1105.999741 0)"/>
     <use xlink:href="#HelveticaNeue-44" transform="translate(1163.399734 0)"/>
    </g>
   </g>
  </g>
 </g>
 <defs>
  <clipPath id="p8c1a9b7a81">
   <rect x="49.900156" y="42.333849" width="871.625" height="325.2864"/>
  </clipPath>
 </defs>
</svg>
