<?xml version="1.0" encoding="utf-8" standalone="no"?>
<!DOCTYPE svg PUBLIC "-//W3C//DTD SVG 1.1//EN"
  "http://www.w3.org/Graphics/SVG/1.1/DTD/svg11.dtd">
<svg xmlns:xlink="http://www.w3.org/1999/xlink" width="928.448359pt" height="389.632212pt" viewBox="0 0 928.448359 389.632212" xmlns="http://www.w3.org/2000/svg" version="1.1">
 <metadata>
  <rdf:RDF xmlns:dc="http://purl.org/dc/elements/1.1/" xmlns:cc="http://creativecommons.org/ns#" xmlns:rdf="http://www.w3.org/1999/02/22-rdf-syntax-ns#">
   <cc:Work>
    <dc:type rdf:resource="http://purl.org/dc/dcmitype/StillImage"/>
    <dc:date>2026-06-29T10:56:03.080811</dc:date>
    <dc:format>image/svg+xml</dc:format>
    <dc:creator>
     <cc:Agent>
      <dc:title>Matplotlib v3.11.0, https://matplotlib.org/</dc:title>
     </cc:Agent>
    </dc:creator>
   </cc:Work>
  </rdf:RDF>
 </metadata>
 <defs>
  <style type="text/css">*{stroke-linejoin: round; stroke-linecap: butt}</style>
 </defs>
 <g id="figure_1">
  <g id="patch_1">
   <path d="M 0 389.632212 
L 928.448359 389.632212 
L 928.448359 0 
L 0 0 
z
" style="fill: #0d1117"/>
  </g>
  <g id="axes_1">
   <g id="patch_2">
    <path d="M 53.288359 366.431431 
L 921.248359 366.431431 
L 921.248359 43.069718 
L 53.288359 43.069718 
z
" style="fill: #0d1117"/>
   </g>
   <g id="matplotlib.axis_1">
    <g id="xtick_1">
     <g id="line2d_1"/>
     <g id="text_1">
      <!-- Jan 2026 -->
      <g style="fill: #8b949e" transform="translate(39.775896 380.029087) scale(0.1 -0.1)">
       <defs>
        <path id="DejaVuSans-2d" d="M 628 4666 
L 1259 4666 
L 1259 325 
Q 1259 -519 939 -900 
Q 619 -1281 -91 -1281 
L -331 -1281 
L -331 -750 
L -134 -750 
Q 284 -750 456 -515 
Q 628 -281 628 325 
L 628 4666 
z
" transform="scale(0.015625)"/>
        <path id="DejaVuSans-44" d="M 2194 1759 
Q 1497 1759 1228 1600 
Q 959 1441 959 1056 
Q 959 750 1161 570 
Q 1363 391 1709 391 
Q 2188 391 2477 730 
Q 2766 1069 2766 1631 
L 2766 1759 
L 2194 1759 
z
M 3341 1997 
L 3341 0 
L 2766 0 
L 2766 531 
Q 2569 213 2275 61 
Q 1981 -91 1556 -91 
Q 1019 -91 701 211 
Q 384 513 384 1019 
Q 384 1609 779 1909 
Q 1175 2209 1959 2209 
L 2766 2209 
L 2766 2266 
Q 2766 2663 2505 2880 
Q 2244 3097 1772 3097 
Q 1472 3097 1187 3025 
Q 903 2953 641 2809 
L 641 3341 
Q 956 3463 1253 3523 
Q 1550 3584 1831 3584 
Q 2591 3584 2966 3190 
Q 3341 2797 3341 1997 
z
" transform="scale(0.015625)"/>
        <path id="DejaVuSans-51" d="M 3513 2113 
L 3513 0 
L 2938 0 
L 2938 2094 
Q 2938 2591 2744 2837 
Q 2550 3084 2163 3084 
Q 1697 3084 1428 2787 
Q 1159 2491 1159 1978 
L 1159 0 
L 581 0 
L 581 3500 
L 1159 3500 
L 1159 2956 
Q 1366 3272 1645 3428 
Q 1925 3584 2291 3584 
Q 2894 3584 3203 3211 
Q 3513 2838 3513 2113 
z
" transform="scale(0.015625)"/>
        <path id="DejaVuSans-3" transform="scale(0.015625)"/>
        <path id="DejaVuSans-15" d="M 1228 531 
L 3431 531 
L 3431 0 
L 469 0 
L 469 531 
Q 828 903 1448 1529 
Q 2069 2156 2228 2338 
Q 2531 2678 2651 2914 
Q 2772 3150 2772 3378 
Q 2772 3750 2511 3984 
Q 2250 4219 1831 4219 
Q 1534 4219 1204 4116 
Q 875 4013 500 3803 
L 500 4441 
Q 881 4594 1212 4672 
Q 1544 4750 1819 4750 
Q 2544 4750 2975 4387 
Q 3406 4025 3406 3419 
Q 3406 3131 3298 2873 
Q 3191 2616 2906 2266 
Q 2828 2175 2409 1742 
Q 1991 1309 1228 531 
z
" transform="scale(0.015625)"/>
        <path id="DejaVuSans-13" d="M 2034 4250 
Q 1547 4250 1301 3770 
Q 1056 3291 1056 2328 
Q 1056 1369 1301 889 
Q 1547 409 2034 409 
Q 2525 409 2770 889 
Q 3016 1369 3016 2328 
Q 3016 3291 2770 3770 
Q 2525 4250 2034 4250 
z
M 2034 4750 
Q 2819 4750 3233 4129 
Q 3647 3509 3647 2328 
Q 3647 1150 3233 529 
Q 2819 -91 2034 -91 
Q 1250 -91 836 529 
Q 422 1150 422 2328 
Q 422 3509 836 4129 
Q 1250 4750 2034 4750 
z
" transform="scale(0.015625)"/>
        <path id="DejaVuSans-19" d="M 2113 2584 
Q 1688 2584 1439 2293 
Q 1191 2003 1191 1497 
Q 1191 994 1439 701 
Q 1688 409 2113 409 
Q 2538 409 2786 701 
Q 3034 994 3034 1497 
Q 3034 2003 2786 2293 
Q 2538 2584 2113 2584 
z
M 3366 4563 
L 3366 3988 
Q 3128 4100 2886 4159 
Q 2644 4219 2406 4219 
Q 1781 4219 1451 3797 
Q 1122 3375 1075 2522 
Q 1259 2794 1537 2939 
Q 1816 3084 2150 3084 
Q 2853 3084 3261 2657 
Q 3669 2231 3669 1497 
Q 3669 778 3244 343 
Q 2819 -91 2113 -91 
Q 1303 -91 875 529 
Q 447 1150 447 2328 
Q 447 3434 972 4092 
Q 1497 4750 2381 4750 
Q 2619 4750 2861 4703 
Q 3103 4656 3366 4563 
z
" transform="scale(0.015625)"/>
       </defs>
       <use xlink:href="#DejaVuSans-2d"/>
       <use xlink:href="#DejaVuSans-44" transform="translate(29.5 0)"/>
       <use xlink:href="#DejaVuSans-51" transform="translate(90.78125 0)"/>
       <use xlink:href="#DejaVuSans-3" transform="translate(154.15625 0)"/>
       <use xlink:href="#DejaVuSans-15" transform="translate(185.9375 0)"/>
       <use xlink:href="#DejaVuSans-13" transform="translate(249.5625 0)"/>
       <use xlink:href="#DejaVuSans-15" transform="translate(313.1875 0)"/>
       <use xlink:href="#DejaVuSans-19" transform="translate(376.8125 0)"/>
      </g>
     </g>
    </g>
    <g id="xtick_2">
     <g id="line2d_2"/>
     <g id="text_2">
      <!-- Feb 2026 -->
      <g style="fill: #8b949e" transform="translate(186.000285 380.029868) scale(0.1 -0.1)">
       <defs>
        <path id="DejaVuSans-29" d="M 628 4666 
L 3309 4666 
L 3309 4134 
L 1259 4134 
L 1259 2759 
L 3109 2759 
L 3109 2228 
L 1259 2228 
L 1259 0 
L 628 0 
L 628 4666 
z
" transform="scale(0.015625)"/>
        <path id="DejaVuSans-48" d="M 3597 1894 
L 3597 1613 
L 953 1613 
Q 991 1019 1311 708 
Q 1631 397 2203 397 
Q 2534 397 2845 478 
Q 3156 559 3463 722 
L 3463 178 
Q 3153 47 2828 -22 
Q 2503 -91 2169 -91 
Q 1331 -91 842 396 
Q 353 884 353 1716 
Q 353 2575 817 3079 
Q 1281 3584 2069 3584 
Q 2775 3584 3186 3129 
Q 3597 2675 3597 1894 
z
M 3022 2063 
Q 3016 2534 2758 2815 
Q 2500 3097 2075 3097 
Q 1594 3097 1305 2825 
Q 1016 2553 972 2059 
L 3022 2063 
z
" transform="scale(0.015625)"/>
        <path id="DejaVuSans-45" d="M 3116 1747 
Q 3116 2381 2855 2742 
Q 2594 3103 2138 3103 
Q 1681 3103 1420 2742 
Q 1159 2381 1159 1747 
Q 1159 1113 1420 752 
Q 1681 391 2138 391 
Q 2594 391 2855 752 
Q 3116 1113 3116 1747 
z
M 1159 2969 
Q 1341 3281 1617 3432 
Q 1894 3584 2278 3584 
Q 2916 3584 3314 3078 
Q 3713 2572 3713 1747 
Q 3713 922 3314 415 
Q 2916 -91 2278 -91 
Q 1894 -91 1617 61 
Q 1341 213 1159 525 
L 1159 0 
L 581 0 
L 581 4863 
L 1159 4863 
L 1159 2969 
z
" transform="scale(0.015625)"/>
       </defs>
       <use xlink:href="#DejaVuSans-29"/>
       <use xlink:href="#DejaVuSans-48" transform="translate(52.046875 0)"/>
       <use xlink:href="#DejaVuSans-45" transform="translate(113.578125 0)"/>
       <use xlink:href="#DejaVuSans-3" transform="translate(177.0625 0)"/>
       <use xlink:href="#DejaVuSans-15" transform="translate(208.84375 0)"/>
       <use xlink:href="#DejaVuSans-13" transform="translate(272.46875 0)"/>
       <use xlink:href="#DejaVuSans-15" transform="translate(336.09375 0)"/>
       <use xlink:href="#DejaVuSans-19" transform="translate(399.71875 0)"/>
      </g>
     </g>
    </g>
    <g id="xtick_3">
     <g id="line2d_3"/>
     <g id="text_3">
      <!-- Mar 2026 -->
      <g style="fill: #8b949e" transform="translate(318.527933 380.029087) scale(0.1 -0.1)">
       <defs>
        <path id="DejaVuSans-30" d="M 628 4666 
L 1569 4666 
L 2759 1491 
L 3956 4666 
L 4897 4666 
L 4897 0 
L 4281 0 
L 4281 4097 
L 3078 897 
L 2444 897 
L 1241 4097 
L 1241 0 
L 628 0 
L 628 4666 
z
" transform="scale(0.015625)"/>
        <path id="DejaVuSans-55" d="M 2631 2963 
Q 2534 3019 2420 3045 
Q 2306 3072 2169 3072 
Q 1681 3072 1420 2755 
Q 1159 2438 1159 1844 
L 1159 0 
L 581 0 
L 581 3500 
L 1159 3500 
L 1159 2956 
Q 1341 3275 1631 3429 
Q 1922 3584 2338 3584 
Q 2397 3584 2469 3576 
Q 2541 3569 2628 3553 
L 2631 2963 
z
" transform="scale(0.015625)"/>
       </defs>
       <use xlink:href="#DejaVuSans-30"/>
       <use xlink:href="#DejaVuSans-44" transform="translate(86.28125 0)"/>
       <use xlink:href="#DejaVuSans-55" transform="translate(147.5625 0)"/>
       <use xlink:href="#DejaVuSans-3" transform="translate(188.671875 0)"/>
       <use xlink:href="#DejaVuSans-15" transform="translate(220.453125 0)"/>
       <use xlink:href="#DejaVuSans-13" transform="translate(284.078125 0)"/>
       <use xlink:href="#DejaVuSans-15" transform="translate(347.703125 0)"/>
       <use xlink:href="#DejaVuSans-19" transform="translate(411.328125 0)"/>
      </g>
     </g>
    </g>
    <g id="xtick_4">
     <g id="line2d_4"/>
     <g id="text_4">
      <!-- Apr 2026 -->
      <g style="fill: #8b949e" transform="translate(466.681228 380.029087) scale(0.1 -0.1)">
       <defs>
        <path id="DejaVuSans-24" d="M 2188 4044 
L 1331 1722 
L 3047 1722 
L 2188 4044 
z
M 1831 4666 
L 2547 4666 
L 4325 0 
L 3669 0 
L 3244 1197 
L 1141 1197 
L 716 0 
L 50 0 
L 1831 4666 
z
" transform="scale(0.015625)"/>
        <path id="DejaVuSans-53" d="M 1159 525 
L 1159 -1331 
L 581 -1331 
L 581 3500 
L 1159 3500 
L 1159 2969 
Q 1341 3281 1617 3432 
Q 1894 3584 2278 3584 
Q 2916 3584 3314 3078 
Q 3713 2572 3713 1747 
Q 3713 922 3314 415 
Q 2916 -91 2278 -91 
Q 1894 -91 1617 61 
Q 1341 213 1159 525 
z
M 3116 1747 
Q 3116 2381 2855 2742 
Q 2594 3103 2138 3103 
Q 1681 3103 1420 2742 
Q 1159 2381 1159 1747 
Q 1159 1113 1420 752 
Q 1681 391 2138 391 
Q 2594 391 2855 752 
Q 3116 1113 3116 1747 
z
" transform="scale(0.015625)"/>
       </defs>
       <use xlink:href="#DejaVuSans-24"/>
       <use xlink:href="#DejaVuSans-53" transform="translate(68.40625 0)"/>
       <use xlink:href="#DejaVuSans-55" transform="translate(131.890625 0)"/>
       <use xlink:href="#DejaVuSans-3" transform="translate(173 0)"/>
       <use xlink:href="#DejaVuSans-15" transform="translate(204.78125 0)"/>
       <use xlink:href="#DejaVuSans-13" transform="translate(268.40625 0)"/>
       <use xlink:href="#DejaVuSans-15" transform="translate(332.03125 0)"/>
       <use xlink:href="#DejaVuSans-19" transform="translate(395.65625 0)"/>
      </g>
     </g>
    </g>
    <g id="xtick_5">
     <g id="line2d_5"/>
     <g id="text_5">
      <!-- May 2026 -->
      <g style="fill: #8b949e" transform="translate(607.609567 380.029087) scale(0.1 -0.1)">
       <defs>
        <path id="DejaVuSans-5c" d="M 2059 -325 
Q 1816 -950 1584 -1140 
Q 1353 -1331 966 -1331 
L 506 -1331 
L 506 -850 
L 844 -850 
Q 1081 -850 1212 -737 
Q 1344 -625 1503 -206 
L 1606 56 
L 191 3500 
L 800 3500 
L 1894 763 
L 2988 3500 
L 3597 3500 
L 2059 -325 
z
" transform="scale(0.015625)"/>
       </defs>
       <use xlink:href="#DejaVuSans-30"/>
       <use xlink:href="#DejaVuSans-44" transform="translate(86.28125 0)"/>
       <use xlink:href="#DejaVuSans-5c" transform="translate(147.5625 0)"/>
       <use xlink:href="#DejaVuSans-3" transform="translate(206.75 0)"/>
       <use xlink:href="#DejaVuSans-15" transform="translate(238.53125 0)"/>
       <use xlink:href="#DejaVuSans-13" transform="translate(302.15625 0)"/>
       <use xlink:href="#DejaVuSans-15" transform="translate(365.78125 0)"/>
       <use xlink:href="#DejaVuSans-19" transform="translate(429.40625 0)"/>
      </g>
     </g>
    </g>
    <g id="xtick_6">
     <g id="line2d_6"/>
     <g id="text_6">
      <!-- Jun 2026 -->
      <g style="fill: #8b949e" transform="translate(757.504268 380.029087) scale(0.1 -0.1)">
       <defs>
        <path id="DejaVuSans-58" d="M 544 1381 
L 544 3500 
L 1119 3500 
L 1119 1403 
Q 1119 906 1312 657 
Q 1506 409 1894 409 
Q 2359 409 2629 706 
Q 2900 1003 2900 1516 
L 2900 3500 
L 3475 3500 
L 3475 0 
L 2900 0 
L 2900 538 
Q 2691 219 2414 64 
Q 2138 -91 1772 -91 
Q 1169 -91 856 284 
Q 544 659 544 1381 
z
M 1991 3584 
L 1991 3584 
z
" transform="scale(0.015625)"/>
       </defs>
       <use xlink:href="#DejaVuSans-2d"/>
       <use xlink:href="#DejaVuSans-58" transform="translate(29.5 0)"/>
       <use xlink:href="#DejaVuSans-51" transform="translate(92.875 0)"/>
       <use xlink:href="#DejaVuSans-3" transform="translate(156.25 0)"/>
       <use xlink:href="#DejaVuSans-15" transform="translate(188.03125 0)"/>
       <use xlink:href="#DejaVuSans-13" transform="translate(251.65625 0)"/>
       <use xlink:href="#DejaVuSans-15" transform="translate(315.28125 0)"/>
       <use xlink:href="#DejaVuSans-19" transform="translate(378.90625 0)"/>
      </g>
     </g>
    </g>
    <g id="xtick_7">
     <g id="line2d_7"/>
    </g>
    <g id="xtick_8">
     <g id="line2d_8"/>
    </g>
    <g id="xtick_9">
     <g id="line2d_9"/>
    </g>
    <g id="xtick_10">
     <g id="line2d_10"/>
    </g>
    <g id="xtick_11">
     <g id="line2d_11"/>
    </g>
    <g id="xtick_12">
     <g id="line2d_12"/>
    </g>
    <g id="xtick_13">
     <g id="line2d_13"/>
    </g>
    <g id="xtick_14">
     <g id="line2d_14"/>
    </g>
    <g id="xtick_15">
     <g id="line2d_15"/>
    </g>
    <g id="xtick_16">
     <g id="line2d_16"/>
    </g>
    <g id="xtick_17">
     <g id="line2d_17"/>
    </g>
    <g id="xtick_18">
     <g id="line2d_18"/>
    </g>
    <g id="xtick_19">
     <g id="line2d_19"/>
    </g>
    <g id="xtick_20">
     <g id="line2d_20"/>
    </g>
    <g id="xtick_21">
     <g id="line2d_21"/>
    </g>
    <g id="xtick_22">
     <g id="line2d_22"/>
    </g>
    <g id="xtick_23">
     <g id="line2d_23"/>
    </g>
    <g id="xtick_24">
     <g id="line2d_24"/>
    </g>
    <g id="xtick_25">
     <g id="line2d_25"/>
    </g>
    <g id="xtick_26">
     <g id="line2d_26"/>
    </g>
    <g id="xtick_27">
     <g id="line2d_27"/>
    </g>
    <g id="xtick_28">
     <g id="line2d_28"/>
    </g>
    <g id="xtick_29">
     <g id="line2d_29"/>
    </g>
    <g id="xtick_30">
     <g id="line2d_30"/>
    </g>
    <g id="xtick_31">
     <g id="line2d_31"/>
    </g>
   </g>
   <g id="matplotlib.axis_2">
    <g id="ytick_1">
     <g id="line2d_32">
      <path d="M 53.288359 366.431431 
L 921.248359 366.431431 
" clip-path="url(#p0f9d6326a3)" style="fill: none; stroke: #8b949e; stroke-opacity: 0.12; stroke-width: 0.6; stroke-linecap: square"/>
     </g>
     <g id="line2d_33"/>
     <g id="text_7">
      <!-- 0 -->
      <g style="fill: #8b949e" transform="translate(40.925859 370.230259) scale(0.1 -0.1)">
       <use xlink:href="#DejaVuSans-13"/>
      </g>
     </g>
    </g>
    <g id="ytick_2">
     <g id="line2d_34">
      <path d="M 53.288359 329.769105 
L 921.248359 329.769105 
" clip-path="url(#p0f9d6326a3)" style="fill: none; stroke: #8b949e; stroke-opacity: 0.12; stroke-width: 0.6; stroke-linecap: square"/>
     </g>
     <g id="line2d_35"/>
     <g id="text_8">
      <!-- 20 -->
      <g style="fill: #8b949e" transform="translate(34.563359 333.567933) scale(0.1 -0.1)">
       <use xlink:href="#DejaVuSans-15"/>
       <use xlink:href="#DejaVuSans-13" transform="translate(63.625 0)"/>
      </g>
     </g>
    </g>
    <g id="ytick_3">
     <g id="line2d_36">
      <path d="M 53.288359 293.106779 
L 921.248359 293.106779 
" clip-path="url(#p0f9d6326a3)" style="fill: none; stroke: #8b949e; stroke-opacity: 0.12; stroke-width: 0.6; stroke-linecap: square"/>
     </g>
     <g id="line2d_37"/>
     <g id="text_9">
      <!-- 40 -->
      <g style="fill: #8b949e" transform="translate(34.563359 296.905608) scale(0.1 -0.1)">
       <defs>
        <path id="DejaVuSans-17" d="M 2419 4116 
L 825 1625 
L 2419 1625 
L 2419 4116 
z
M 2253 4666 
L 3047 4666 
L 3047 1625 
L 3713 1625 
L 3713 1100 
L 3047 1100 
L 3047 0 
L 2419 0 
L 2419 1100 
L 313 1100 
L 313 1709 
L 2253 4666 
z
" transform="scale(0.015625)"/>
       </defs>
       <use xlink:href="#DejaVuSans-17"/>
       <use xlink:href="#DejaVuSans-13" transform="translate(63.625 0)"/>
      </g>
     </g>
    </g>
    <g id="ytick_4">
     <g id="line2d_38">
      <path d="M 53.288359 256.444454 
L 921.248359 256.444454 
" clip-path="url(#p0f9d6326a3)" style="fill: none; stroke: #8b949e; stroke-opacity: 0.12; stroke-width: 0.6; stroke-linecap: square"/>
     </g>
     <g id="line2d_39"/>
     <g id="text_10">
      <!-- 60 -->
      <g style="fill: #8b949e" transform="translate(34.563359 260.243282) scale(0.1 -0.1)">
       <use xlink:href="#DejaVuSans-19"/>
       <use xlink:href="#DejaVuSans-13" transform="translate(63.625 0)"/>
      </g>
     </g>
    </g>
    <g id="ytick_5">
     <g id="line2d_40">
      <path d="M 53.288359 219.782128 
L 921.248359 219.782128 
" clip-path="url(#p0f9d6326a3)" style="fill: none; stroke: #8b949e; stroke-opacity: 0.12; stroke-width: 0.6; stroke-linecap: square"/>
     </g>
     <g id="line2d_41"/>
     <g id="text_11">
      <!-- 80 -->
      <g style="fill: #8b949e" transform="translate(34.563359 223.580956) scale(0.1 -0.1)">
       <defs>
        <path id="DejaVuSans-1b" d="M 2034 2216 
Q 1584 2216 1326 1975 
Q 1069 1734 1069 1313 
Q 1069 891 1326 650 
Q 1584 409 2034 409 
Q 2484 409 2743 651 
Q 3003 894 3003 1313 
Q 3003 1734 2745 1975 
Q 2488 2216 2034 2216 
z
M 1403 2484 
Q 997 2584 770 2862 
Q 544 3141 544 3541 
Q 544 4100 942 4425 
Q 1341 4750 2034 4750 
Q 2731 4750 3128 4425 
Q 3525 4100 3525 3541 
Q 3525 3141 3298 2862 
Q 3072 2584 2669 2484 
Q 3125 2378 3379 2068 
Q 3634 1759 3634 1313 
Q 3634 634 3220 271 
Q 2806 -91 2034 -91 
Q 1263 -91 848 271 
Q 434 634 434 1313 
Q 434 1759 690 2068 
Q 947 2378 1403 2484 
z
M 1172 3481 
Q 1172 3119 1398 2916 
Q 1625 2713 2034 2713 
Q 2441 2713 2670 2916 
Q 2900 3119 2900 3481 
Q 2900 3844 2670 4047 
Q 2441 4250 2034 4250 
Q 1625 4250 1398 4047 
Q 1172 3844 1172 3481 
z
" transform="scale(0.015625)"/>
       </defs>
       <use xlink:href="#DejaVuSans-1b"/>
       <use xlink:href="#DejaVuSans-13" transform="translate(63.625 0)"/>
      </g>
     </g>
    </g>
    <g id="ytick_6">
     <g id="line2d_42">
      <path d="M 53.288359 183.119802 
L 921.248359 183.119802 
" clip-path="url(#p0f9d6326a3)" style="fill: none; stroke: #8b949e; stroke-opacity: 0.12; stroke-width: 0.6; stroke-linecap: square"/>
     </g>
     <g id="line2d_43"/>
     <g id="text_12">
      <!-- 100 -->
      <g style="fill: #8b949e" transform="translate(28.200859 186.91863) scale(0.1 -0.1)">
       <defs>
        <path id="DejaVuSans-14" d="M 794 531 
L 1825 531 
L 1825 4091 
L 703 3866 
L 703 4441 
L 1819 4666 
L 2450 4666 
L 2450 531 
L 3481 531 
L 3481 0 
L 794 0 
L 794 531 
z
" transform="scale(0.015625)"/>
       </defs>
       <use xlink:href="#DejaVuSans-14"/>
       <use xlink:href="#DejaVuSans-13" transform="translate(63.625 0)"/>
       <use xlink:href="#DejaVuSans-13" transform="translate(127.25 0)"/>
      </g>
     </g>
    </g>
    <g id="ytick_7">
     <g id="line2d_44">
      <path d="M 53.288359 146.457477 
L 921.248359 146.457477 
" clip-path="url(#p0f9d6326a3)" style="fill: none; stroke: #8b949e; stroke-opacity: 0.12; stroke-width: 0.6; stroke-linecap: square"/>
     </g>
     <g id="line2d_45"/>
     <g id="text_13">
      <!-- 120 -->
      <g style="fill: #8b949e" transform="translate(28.200859 150.256305) scale(0.1 -0.1)">
       <use xlink:href="#DejaVuSans-14"/>
       <use xlink:href="#DejaVuSans-15" transform="translate(63.625 0)"/>
       <use xlink:href="#DejaVuSans-13" transform="translate(127.25 0)"/>
      </g>
     </g>
    </g>
    <g id="ytick_8">
     <g id="line2d_46">
      <path d="M 53.288359 109.795151 
L 921.248359 109.795151 
" clip-path="url(#p0f9d6326a3)" style="fill: none; stroke: #8b949e; stroke-opacity: 0.12; stroke-width: 0.6; stroke-linecap: square"/>
     </g>
     <g id="line2d_47"/>
     <g id="text_14">
      <!-- 140 -->
      <g style="fill: #8b949e" transform="translate(28.200859 113.593979) scale(0.1 -0.1)">
       <use xlink:href="#DejaVuSans-14"/>
       <use xlink:href="#DejaVuSans-17" transform="translate(63.625 0)"/>
       <use xlink:href="#DejaVuSans-13" transform="translate(127.25 0)"/>
      </g>
     </g>
    </g>
    <g id="ytick_9">
     <g id="line2d_48">
      <path d="M 53.288359 73.132825 
L 921.248359 73.132825 
" clip-path="url(#p0f9d6326a3)" style="fill: none; stroke: #8b949e; stroke-opacity: 0.12; stroke-width: 0.6; stroke-linecap: square"/>
     </g>
     <g id="line2d_49"/>
     <g id="text_15">
      <!-- 160 -->
      <g style="fill: #8b949e" transform="translate(28.200859 76.931653) scale(0.1 -0.1)">
       <use xlink:href="#DejaVuSans-14"/>
       <use xlink:href="#DejaVuSans-19" transform="translate(63.625 0)"/>
       <use xlink:href="#DejaVuSans-13" transform="translate(127.25 0)"/>
      </g>
     </g>
    </g>
    <g id="text_16">
     <!-- Contributions -->
     <g style="fill: #8b949e" transform="translate(15.558281 241.764715) rotate(-90) scale(0.11 -0.11)">
      <defs>
       <path id="DejaVuSans-26" d="M 4122 4306 
L 4122 3641 
Q 3803 3938 3442 4084 
Q 3081 4231 2675 4231 
Q 1875 4231 1450 3742 
Q 1025 3253 1025 2328 
Q 1025 1406 1450 917 
Q 1875 428 2675 428 
Q 3081 428 3442 575 
Q 3803 722 4122 1019 
L 4122 359 
Q 3791 134 3420 21 
Q 3050 -91 2638 -91 
Q 1578 -91 968 557 
Q 359 1206 359 2328 
Q 359 3453 968 4101 
Q 1578 4750 2638 4750 
Q 3056 4750 3426 4639 
Q 3797 4528 4122 4306 
z
" transform="scale(0.015625)"/>
       <path id="DejaVuSans-52" d="M 1959 3097 
Q 1497 3097 1228 2736 
Q 959 2375 959 1747 
Q 959 1119 1226 758 
Q 1494 397 1959 397 
Q 2419 397 2687 759 
Q 2956 1122 2956 1747 
Q 2956 2369 2687 2733 
Q 2419 3097 1959 3097 
z
M 1959 3584 
Q 2709 3584 3137 3096 
Q 3566 2609 3566 1747 
Q 3566 888 3137 398 
Q 2709 -91 1959 -91 
Q 1206 -91 779 398 
Q 353 888 353 1747 
Q 353 2609 779 3096 
Q 1206 3584 1959 3584 
z
" transform="scale(0.015625)"/>
       <path id="DejaVuSans-57" d="M 1172 4494 
L 1172 3500 
L 2356 3500 
L 2356 3053 
L 1172 3053 
L 1172 1153 
Q 1172 725 1289 603 
Q 1406 481 1766 481 
L 2356 481 
L 2356 0 
L 1766 0 
Q 1100 0 847 248 
Q 594 497 594 1153 
L 594 3053 
L 172 3053 
L 172 3500 
L 594 3500 
L 594 4494 
L 1172 4494 
z
" transform="scale(0.015625)"/>
       <path id="DejaVuSans-4c" d="M 603 3500 
L 1178 3500 
L 1178 0 
L 603 0 
L 603 3500 
z
M 603 4863 
L 1178 4863 
L 1178 4134 
L 603 4134 
L 603 4863 
z
" transform="scale(0.015625)"/>
       <path id="DejaVuSans-56" d="M 2834 3397 
L 2834 2853 
Q 2591 2978 2328 3040 
Q 2066 3103 1784 3103 
Q 1356 3103 1142 2972 
Q 928 2841 928 2578 
Q 928 2378 1081 2264 
Q 1234 2150 1697 2047 
L 1894 2003 
Q 2506 1872 2764 1633 
Q 3022 1394 3022 966 
Q 3022 478 2636 193 
Q 2250 -91 1575 -91 
Q 1294 -91 989 -36 
Q 684 19 347 128 
L 347 722 
Q 666 556 975 473 
Q 1284 391 1588 391 
Q 1994 391 2212 530 
Q 2431 669 2431 922 
Q 2431 1156 2273 1281 
Q 2116 1406 1581 1522 
L 1381 1569 
Q 847 1681 609 1914 
Q 372 2147 372 2553 
Q 372 3047 722 3315 
Q 1072 3584 1716 3584 
Q 2034 3584 2315 3537 
Q 2597 3491 2834 3397 
z
" transform="scale(0.015625)"/>
      </defs>
      <use xlink:href="#DejaVuSans-26"/>
      <use xlink:href="#DejaVuSans-52" transform="translate(69.828125 0)"/>
      <use xlink:href="#DejaVuSans-51" transform="translate(131.015625 0)"/>
      <use xlink:href="#DejaVuSans-57" transform="translate(194.390625 0)"/>
      <use xlink:href="#DejaVuSans-55" transform="translate(233.59375 0)"/>
      <use xlink:href="#DejaVuSans-4c" transform="translate(274.703125 0)"/>
      <use xlink:href="#DejaVuSans-45" transform="translate(302.484375 0)"/>
      <use xlink:href="#DejaVuSans-58" transform="translate(365.96875 0)"/>
      <use xlink:href="#DejaVuSans-57" transform="translate(429.34375 0)"/>
      <use xlink:href="#DejaVuSans-4c" transform="translate(468.546875 0)"/>
      <use xlink:href="#DejaVuSans-52" transform="translate(496.328125 0)"/>
      <use xlink:href="#DejaVuSans-51" transform="translate(557.515625 0)"/>
      <use xlink:href="#DejaVuSans-56" transform="translate(620.890625 0)"/>
     </g>
    </g>
   </g>
   <g id="FillBetweenPolyCollection_1">
    <defs>
     <path id="m5760eeb6b4" d="M 61.797771 -23.200781 
L 61.797771 -23.200781 
L 66.551632 -23.200781 
L 71.305494 -23.200781 
L 76.059355 -23.200781 
L 80.813216 -23.200781 
L 85.567078 -23.200781 
L 90.320939 -23.200781 
L 95.0748 -23.200781 
L 99.828662 -23.200781 
L 104.582523 -23.200781 
L 109.336384 -23.200781 
L 114.090246 -23.200781 
L 118.844107 -23.200781 
L 123.597968 -23.200781 
L 128.35183 -23.200781 
L 133.105691 -23.200781 
L 137.859552 -23.200781 
L 142.613414 -23.200781 
L 147.367275 -23.200781 
L 152.121136 -23.200781 
L 156.874998 -23.200781 
L 161.628859 -23.200781 
L 166.38272 -23.200781 
L 171.136582 -23.200781 
L 175.890443 -23.200781 
L 180.644304 -23.200781 
L 185.398165 -23.200781 
L 190.152027 -23.200781 
L 194.905888 -23.200781 
L 199.659749 -23.200781 
L 204.413611 -23.200781 
L 209.167472 -23.200781 
L 213.921333 -23.200781 
L 218.675195 -23.200781 
L 223.429056 -23.200781 
L 228.182917 -23.200781 
L 232.936779 -23.200781 
L 237.69064 -23.200781 
L 242.444501 -23.200781 
L 247.198363 -23.200781 
L 251.952224 -23.200781 
L 256.706085 -23.200781 
L 261.459947 -23.200781 
L 266.213808 -23.200781 
L 270.967669 -23.200781 
L 275.721531 -23.200781 
L 280.475392 -23.200781 
L 285.229253 -23.200781 
L 289.983115 -23.200781 
L 294.736976 -23.200781 
L 299.490837 -23.200781 
L 304.244699 -23.200781 
L 308.99856 -23.200781 
L 313.752421 -23.200781 
L 318.506282 -23.200781 
L 323.260144 -23.200781 
L 328.014005 -23.200781 
L 332.767866 -23.200781 
L 337.521728 -23.200781 
L 342.275589 -23.200781 
L 347.02945 -23.200781 
L 351.783312 -23.200781 
L 356.537173 -23.200781 
L 361.291034 -23.200781 
L 366.044896 -23.200781 
L 370.798757 -23.200781 
L 375.552618 -26.867014 
L 380.30648 -23.200781 
L 385.060341 -23.200781 
L 389.814202 -23.200781 
L 394.568064 -23.200781 
L 399.321925 -23.200781 
L 404.075786 -25.033898 
L 408.829648 -23.200781 
L 413.583509 -36.032595 
L 418.33737 -72.694921 
L 423.091232 -63.529339 
L 427.845093 -25.033898 
L 432.598954 -23.200781 
L 437.352816 -26.867014 
L 442.106677 -23.200781 
L 446.860538 -23.200781 
L 451.614399 -32.366363 
L 456.368261 -23.200781 
L 461.122122 -45.198177 
L 465.875983 -76.361153 
L 470.629845 -76.361153 
L 475.383706 -47.031293 
L 480.137567 -180.848782 
L 484.891429 -105.691014 
L 489.64529 -144.186456 
L 494.399151 -87.359851 
L 499.153013 -54.363758 
L 503.906874 -23.200781 
L 508.660735 -32.366363 
L 513.414597 -179.015665 
L 518.168458 -212.011759 
L 522.922319 -292.668875 
L 527.676181 -92.8592 
L 532.430042 -52.530642 
L 537.183903 -81.860502 
L 541.937765 -72.694921 
L 546.691626 -202.846177 
L 551.445487 -147.852689 
L 556.199349 -133.187758 
L 560.95321 -122.189061 
L 565.707071 -168.016968 
L 570.460932 -23.200781 
L 575.214794 -87.359851 
L 579.968655 -166.183851 
L 584.722516 -169.850084 
L 589.476378 -111.190363 
L 594.230239 -91.026084 
L 598.9841 -113.023479 
L 603.737962 -85.526735 
L 608.491823 -70.861805 
L 613.245684 -61.696223 
L 617.999546 -36.032595 
L 622.753407 -28.70013 
L 627.507268 -23.200781 
L 632.26113 -23.200781 
L 637.014991 -25.033898 
L 641.768852 -25.033898 
L 646.522714 -78.19427 
L 651.276575 -107.52413 
L 656.030436 -129.521526 
L 660.784298 -113.023479 
L 665.538159 -122.189061 
L 670.29202 -61.696223 
L 675.045882 -81.860502 
L 679.799743 -120.355944 
L 684.553604 -32.366363 
L 689.307466 -30.533246 
L 694.061327 -63.529339 
L 698.815188 -63.529339 
L 703.569049 -78.19427 
L 708.322911 -43.36506 
L 713.076772 -94.692316 
L 717.830633 -114.856595 
L 722.584495 -133.187758 
L 727.338356 -48.864409 
L 732.092217 -208.345526 
L 736.846079 -109.357247 
L 741.59994 -89.192967 
L 746.353801 -179.015665 
L 751.107663 -140.520223 
L 755.861524 -149.685805 
L 760.615385 -142.35334 
L 765.369247 -100.191665 
L 770.123108 -25.033898 
L 774.876969 -26.867014 
L 779.630831 -105.691014 
L 784.384692 -124.022177 
L 789.138553 -76.361153 
L 793.892415 -109.357247 
L 798.646276 -74.528037 
L 803.400137 -25.033898 
L 808.153999 -23.200781 
L 812.90786 -61.696223 
L 817.661721 -144.186456 
L 822.415583 -188.181247 
L 827.169444 -331.164317 
L 831.923305 -309.166922 
L 836.677166 -87.359851 
L 841.431028 -61.696223 
L 846.184889 -125.855293 
L 850.93875 -135.020875 
L 855.692612 -76.361153 
L 860.446473 -80.027386 
L 865.200334 -116.689712 
L 869.954196 -74.528037 
L 874.708057 -50.697526 
L 879.461918 -133.187758 
L 884.21578 -63.529339 
L 888.969641 -69.028688 
L 893.723502 -54.363758 
L 898.477364 -30.533246 
L 903.231225 -23.200781 
L 907.985086 -23.200781 
L 912.738948 -23.200781 
L 912.738948 -23.200781 
L 912.738948 -23.200781 
L 907.985086 -23.200781 
L 903.231225 -23.200781 
L 898.477364 -23.200781 
L 893.723502 -23.200781 
L 888.969641 -23.200781 
L 884.21578 -23.200781 
L 879.461918 -23.200781 
L 874.708057 -23.200781 
L 869.954196 -23.200781 
L 865.200334 -23.200781 
L 860.446473 -23.200781 
L 855.692612 -23.200781 
L 850.93875 -23.200781 
L 846.184889 -23.200781 
L 841.431028 -23.200781 
L 836.677166 -23.200781 
L 831.923305 -23.200781 
L 827.169444 -23.200781 
L 822.415583 -23.200781 
L 817.661721 -23.200781 
L 812.90786 -23.200781 
L 808.153999 -23.200781 
L 803.400137 -23.200781 
L 798.646276 -23.200781 
L 793.892415 -23.200781 
L 789.138553 -23.200781 
L 784.384692 -23.200781 
L 779.630831 -23.200781 
L 774.876969 -23.200781 
L 770.123108 -23.200781 
L 765.369247 -23.200781 
L 760.615385 -23.200781 
L 755.861524 -23.200781 
L 751.107663 -23.200781 
L 746.353801 -23.200781 
L 741.59994 -23.200781 
L 736.846079 -23.200781 
L 732.092217 -23.200781 
L 727.338356 -23.200781 
L 722.584495 -23.200781 
L 717.830633 -23.200781 
L 713.076772 -23.200781 
L 708.322911 -23.200781 
L 703.569049 -23.200781 
L 698.815188 -23.200781 
L 694.061327 -23.200781 
L 689.307466 -23.200781 
L 684.553604 -23.200781 
L 679.799743 -23.200781 
L 675.045882 -23.200781 
L 670.29202 -23.200781 
L 665.538159 -23.200781 
L 660.784298 -23.200781 
L 656.030436 -23.200781 
L 651.276575 -23.200781 
L 646.522714 -23.200781 
L 641.768852 -23.200781 
L 637.014991 -23.200781 
L 632.26113 -23.200781 
L 627.507268 -23.200781 
L 622.753407 -23.200781 
L 617.999546 -23.200781 
L 613.245684 -23.200781 
L 608.491823 -23.200781 
L 603.737962 -23.200781 
L 598.9841 -23.200781 
L 594.230239 -23.200781 
L 589.476378 -23.200781 
L 584.722516 -23.200781 
L 579.968655 -23.200781 
L 575.214794 -23.200781 
L 570.460932 -23.200781 
L 565.707071 -23.200781 
L 560.95321 -23.200781 
L 556.199349 -23.200781 
L 551.445487 -23.200781 
L 546.691626 -23.200781 
L 541.937765 -23.200781 
L 537.183903 -23.200781 
L 532.430042 -23.200781 
L 527.676181 -23.200781 
L 522.922319 -23.200781 
L 518.168458 -23.200781 
L 513.414597 -23.200781 
L 508.660735 -23.200781 
L 503.906874 -23.200781 
L 499.153013 -23.200781 
L 494.399151 -23.200781 
L 489.64529 -23.200781 
L 484.891429 -23.200781 
L 480.137567 -23.200781 
L 475.383706 -23.200781 
L 470.629845 -23.200781 
L 465.875983 -23.200781 
L 461.122122 -23.200781 
L 456.368261 -23.200781 
L 451.614399 -23.200781 
L 446.860538 -23.200781 
L 442.106677 -23.200781 
L 437.352816 -23.200781 
L 432.598954 -23.200781 
L 427.845093 -23.200781 
L 423.091232 -23.200781 
L 418.33737 -23.200781 
L 413.583509 -23.200781 
L 408.829648 -23.200781 
L 404.075786 -23.200781 
L 399.321925 -23.200781 
L 394.568064 -23.200781 
L 389.814202 -23.200781 
L 385.060341 -23.200781 
L 380.30648 -23.200781 
L 375.552618 -23.200781 
L 370.798757 -23.200781 
L 366.044896 -23.200781 
L 361.291034 -23.200781 
L 356.537173 -23.200781 
L 351.783312 -23.200781 
L 347.02945 -23.200781 
L 342.275589 -23.200781 
L 337.521728 -23.200781 
L 332.767866 -23.200781 
L 328.014005 -23.200781 
L 323.260144 -23.200781 
L 318.506282 -23.200781 
L 313.752421 -23.200781 
L 308.99856 -23.200781 
L 304.244699 -23.200781 
L 299.490837 -23.200781 
L 294.736976 -23.200781 
L 289.983115 -23.200781 
L 285.229253 -23.200781 
L 280.475392 -23.200781 
L 275.721531 -23.200781 
L 270.967669 -23.200781 
L 266.213808 -23.200781 
L 261.459947 -23.200781 
L 256.706085 -23.200781 
L 251.952224 -23.200781 
L 247.198363 -23.200781 
L 242.444501 -23.200781 
L 237.69064 -23.200781 
L 232.936779 -23.200781 
L 228.182917 -23.200781 
L 223.429056 -23.200781 
L 218.675195 -23.200781 
L 213.921333 -23.200781 
L 209.167472 -23.200781 
L 204.413611 -23.200781 
L 199.659749 -23.200781 
L 194.905888 -23.200781 
L 190.152027 -23.200781 
L 185.398165 -23.200781 
L 180.644304 -23.200781 
L 175.890443 -23.200781 
L 171.136582 -23.200781 
L 166.38272 -23.200781 
L 161.628859 -23.200781 
L 156.874998 -23.200781 
L 152.121136 -23.200781 
L 147.367275 -23.200781 
L 142.613414 -23.200781 
L 137.859552 -23.200781 
L 133.105691 -23.200781 
L 128.35183 -23.200781 
L 123.597968 -23.200781 
L 118.844107 -23.200781 
L 114.090246 -23.200781 
L 109.336384 -23.200781 
L 104.582523 -23.200781 
L 99.828662 -23.200781 
L 95.0748 -23.200781 
L 90.320939 -23.200781 
L 85.567078 -23.200781 
L 80.813216 -23.200781 
L 76.059355 -23.200781 
L 71.305494 -23.200781 
L 66.551632 -23.200781 
L 61.797771 -23.200781 
z
"/>
    </defs>
    <g clip-path="url(#p0f9d6326a3)">
     <use xlink:href="#m5760eeb6b4" x="0" y="389.632212" style="fill: #f97316; fill-opacity: 0.18"/>
    </g>
   </g>
   <g id="line2d_50">
    <path d="M 61.797771 366.431431 
L 370.798757 366.431431 
L 375.552618 362.765198 
L 380.30648 366.431431 
L 399.321925 366.431431 
L 404.075786 364.598314 
L 408.829648 366.431431 
L 413.583509 353.599617 
L 418.33737 316.937291 
L 423.091232 326.102873 
L 427.845093 364.598314 
L 432.598954 366.431431 
L 437.352816 362.765198 
L 442.106677 366.431431 
L 446.860538 366.431431 
L 451.614399 357.265849 
L 456.368261 366.431431 
L 461.122122 344.434035 
L 465.875983 313.271059 
L 470.629845 313.271059 
L 475.383706 342.600919 
L 480.137567 208.78343 
L 484.891429 283.941198 
L 489.64529 245.445756 
L 494.399151 302.272361 
L 499.153013 335.268454 
L 503.906874 366.431431 
L 508.660735 357.265849 
L 513.414597 210.616547 
L 518.168458 177.620453 
L 522.922319 96.963337 
L 527.676181 296.773012 
L 532.430042 337.10157 
L 537.183903 307.77171 
L 541.937765 316.937291 
L 546.691626 186.786035 
L 551.445487 241.779523 
L 556.199349 256.444454 
L 560.95321 267.443151 
L 565.707071 221.615244 
L 570.460932 366.431431 
L 575.214794 302.272361 
L 579.968655 223.448361 
L 584.722516 219.782128 
L 589.476378 278.441849 
L 594.230239 298.606128 
L 598.9841 276.608733 
L 603.737962 304.105477 
L 608.491823 318.770407 
L 613.245684 327.935989 
L 617.999546 353.599617 
L 622.753407 360.932082 
L 627.507268 366.431431 
L 632.26113 366.431431 
L 637.014991 364.598314 
L 641.768852 364.598314 
L 646.522714 311.437942 
L 651.276575 282.108082 
L 656.030436 260.110686 
L 660.784298 276.608733 
L 665.538159 267.443151 
L 670.29202 327.935989 
L 675.045882 307.77171 
L 679.799743 269.276268 
L 684.553604 357.265849 
L 689.307466 359.098966 
L 694.061327 326.102873 
L 698.815188 326.102873 
L 703.569049 311.437942 
L 708.322911 346.267152 
L 713.076772 294.939896 
L 717.830633 274.775617 
L 722.584495 256.444454 
L 727.338356 340.767803 
L 732.092217 181.286686 
L 736.846079 280.274965 
L 741.59994 300.439245 
L 746.353801 210.616547 
L 751.107663 249.111989 
L 755.861524 239.946407 
L 760.615385 247.278872 
L 765.369247 289.440547 
L 770.123108 364.598314 
L 774.876969 362.765198 
L 779.630831 283.941198 
L 784.384692 265.610035 
L 789.138553 313.271059 
L 793.892415 280.274965 
L 798.646276 315.104175 
L 803.400137 364.598314 
L 808.153999 366.431431 
L 812.90786 327.935989 
L 817.661721 245.445756 
L 822.415583 201.450965 
L 827.169444 58.467895 
L 831.923305 80.46529 
L 836.677166 302.272361 
L 841.431028 327.935989 
L 846.184889 263.776919 
L 850.93875 254.611337 
L 855.692612 313.271059 
L 860.446473 309.604826 
L 865.200334 272.9425 
L 869.954196 315.104175 
L 874.708057 338.934686 
L 879.461918 256.444454 
L 884.21578 326.102873 
L 888.969641 320.603524 
L 893.723502 335.268454 
L 898.477364 359.098966 
L 903.231225 366.431431 
L 912.738948 366.431431 
L 912.738948 366.431431 
" clip-path="url(#p0f9d6326a3)" style="fill: none; stroke: #f97316; stroke-width: 2.2; stroke-linecap: round"/>
   </g>
   <g id="text_17">
    <!-- 3,904 commits   ·   peak 168 -->
    <g style="fill: #8b949e" transform="translate(773.163247 14.798437) scale(0.1 -0.1)">
     <defs>
      <path id="DejaVuSans-16" d="M 2597 2516 
Q 3050 2419 3304 2112 
Q 3559 1806 3559 1356 
Q 3559 666 3084 287 
Q 2609 -91 1734 -91 
Q 1441 -91 1130 -33 
Q 819 25 488 141 
L 488 750 
Q 750 597 1062 519 
Q 1375 441 1716 441 
Q 2309 441 2620 675 
Q 2931 909 2931 1356 
Q 2931 1769 2642 2001 
Q 2353 2234 1838 2234 
L 1294 2234 
L 1294 2753 
L 1863 2753 
Q 2328 2753 2575 2939 
Q 2822 3125 2822 3475 
Q 2822 3834 2567 4026 
Q 2313 4219 1838 4219 
Q 1578 4219 1281 4162 
Q 984 4106 628 3988 
L 628 4550 
Q 988 4650 1302 4700 
Q 1616 4750 1894 4750 
Q 2613 4750 3031 4423 
Q 3450 4097 3450 3541 
Q 3450 3153 3228 2886 
Q 3006 2619 2597 2516 
z
" transform="scale(0.015625)"/>
      <path id="DejaVuSans-f" d="M 750 794 
L 1409 794 
L 1409 256 
L 897 -744 
L 494 -744 
L 750 256 
L 750 794 
z
" transform="scale(0.015625)"/>
      <path id="DejaVuSans-1c" d="M 703 97 
L 703 672 
Q 941 559 1184 500 
Q 1428 441 1663 441 
Q 2288 441 2617 861 
Q 2947 1281 2994 2138 
Q 2813 1869 2534 1725 
Q 2256 1581 1919 1581 
Q 1219 1581 811 2004 
Q 403 2428 403 3163 
Q 403 3881 828 4315 
Q 1253 4750 1959 4750 
Q 2769 4750 3195 4129 
Q 3622 3509 3622 2328 
Q 3622 1225 3098 567 
Q 2575 -91 1691 -91 
Q 1453 -91 1209 -44 
Q 966 3 703 97 
z
M 1959 2075 
Q 2384 2075 2632 2365 
Q 2881 2656 2881 3163 
Q 2881 3666 2632 3958 
Q 2384 4250 1959 4250 
Q 1534 4250 1286 3958 
Q 1038 3666 1038 3163 
Q 1038 2656 1286 2365 
Q 1534 2075 1959 2075 
z
" transform="scale(0.015625)"/>
      <path id="DejaVuSans-46" d="M 3122 3366 
L 3122 2828 
Q 2878 2963 2633 3030 
Q 2388 3097 2138 3097 
Q 1578 3097 1268 2742 
Q 959 2388 959 1747 
Q 959 1106 1268 751 
Q 1578 397 2138 397 
Q 2388 397 2633 464 
Q 2878 531 3122 666 
L 3122 134 
Q 2881 22 2623 -34 
Q 2366 -91 2075 -91 
Q 1284 -91 818 406 
Q 353 903 353 1747 
Q 353 2603 823 3093 
Q 1294 3584 2113 3584 
Q 2378 3584 2631 3529 
Q 2884 3475 3122 3366 
z
" transform="scale(0.015625)"/>
      <path id="DejaVuSans-50" d="M 3328 2828 
Q 3544 3216 3844 3400 
Q 4144 3584 4550 3584 
Q 5097 3584 5394 3201 
Q 5691 2819 5691 2113 
L 5691 0 
L 5113 0 
L 5113 2094 
Q 5113 2597 4934 2840 
Q 4756 3084 4391 3084 
Q 3944 3084 3684 2787 
Q 3425 2491 3425 1978 
L 3425 0 
L 2847 0 
L 2847 2094 
Q 2847 2600 2669 2842 
Q 2491 3084 2119 3084 
Q 1678 3084 1418 2786 
Q 1159 2488 1159 1978 
L 1159 0 
L 581 0 
L 581 3500 
L 1159 3500 
L 1159 2956 
Q 1356 3278 1631 3431 
Q 1906 3584 2284 3584 
Q 2666 3584 2933 3390 
Q 3200 3197 3328 2828 
z
" transform="scale(0.015625)"/>
      <path id="DejaVuSans-79" d="M 684 2619 
L 1344 2619 
L 1344 1825 
L 684 1825 
L 684 2619 
z
" transform="scale(0.015625)"/>
      <path id="DejaVuSans-4e" d="M 581 4863 
L 1159 4863 
L 1159 1991 
L 2875 3500 
L 3609 3500 
L 1753 1863 
L 3688 0 
L 2938 0 
L 1159 1709 
L 1159 0 
L 581 0 
L 581 4863 
z
" transform="scale(0.015625)"/>
     </defs>
     <use xlink:href="#DejaVuSans-16"/>
     <use xlink:href="#DejaVuSans-f" transform="translate(63.625 0)"/>
     <use xlink:href="#DejaVuSans-1c" transform="translate(95.40625 0)"/>
     <use xlink:href="#DejaVuSans-13" transform="translate(159.03125 0)"/>
     <use xlink:href="#DejaVuSans-17" transform="translate(222.65625 0)"/>
     <use xlink:href="#DejaVuSans-3" transform="translate(286.28125 0)"/>
     <use xlink:href="#DejaVuSans-46" transform="translate(318.0625 0)"/>
     <use xlink:href="#DejaVuSans-52" transform="translate(373.046875 0)"/>
     <use xlink:href="#DejaVuSans-50" transform="translate(434.234375 0)"/>
     <use xlink:href="#DejaVuSans-50" transform="translate(531.640625 0)"/>
     <use xlink:href="#DejaVuSans-4c" transform="translate(629.046875 0)"/>
     <use xlink:href="#DejaVuSans-57" transform="translate(656.828125 0)"/>
     <use xlink:href="#DejaVuSans-56" transform="translate(696.03125 0)"/>
     <use xlink:href="#DejaVuSans-3" transform="translate(748.125 0)"/>
     <use xlink:href="#DejaVuSans-3" transform="translate(779.90625 0)"/>
     <use xlink:href="#DejaVuSans-3" transform="translate(811.6875 0)"/>
     <use xlink:href="#DejaVuSans-79" transform="translate(843.46875 0)"/>
     <use xlink:href="#DejaVuSans-3" transform="translate(875.25 0)"/>
     <use xlink:href="#DejaVuSans-3" transform="translate(907.03125 0)"/>
     <use xlink:href="#DejaVuSans-3" transform="translate(938.8125 0)"/>
     <use xlink:href="#DejaVuSans-53" transform="translate(970.59375 0)"/>
     <use xlink:href="#DejaVuSans-48" transform="translate(1034.078125 0)"/>
     <use xlink:href="#DejaVuSans-44" transform="translate(1095.609375 0)"/>
     <use xlink:href="#DejaVuSans-4e" transform="translate(1156.890625 0)"/>
     <use xlink:href="#DejaVuSans-3" transform="translate(1214.796875 0)"/>
     <use xlink:href="#DejaVuSans-14" transform="translate(1246.578125 0)"/>
     <use xlink:href="#DejaVuSans-19" transform="translate(1310.203125 0)"/>
     <use xlink:href="#DejaVuSans-1b" transform="translate(1373.828125 0)"/>
    </g>
   </g>
   <g id="text_18">
    <!-- Commit Activity · 2026 YTD -->
    <g style="fill: #c9d1d9" transform="translate(53.288359 25.069718) scale(0.16 -0.16)">
     <defs>
      <path id="DejaVuSans-Bold-26" d="M 4288 256 
Q 3956 84 3597 -3 
Q 3238 -91 2847 -91 
Q 1681 -91 1000 561 
Q 319 1213 319 2328 
Q 319 3447 1000 4098 
Q 1681 4750 2847 4750 
Q 3238 4750 3597 4662 
Q 3956 4575 4288 4403 
L 4288 3438 
Q 3953 3666 3628 3772 
Q 3303 3878 2944 3878 
Q 2300 3878 1931 3465 
Q 1563 3053 1563 2328 
Q 1563 1606 1931 1193 
Q 2300 781 2944 781 
Q 3303 781 3628 887 
Q 3953 994 4288 1222 
L 4288 256 
z
" transform="scale(0.015625)"/>
      <path id="DejaVuSans-Bold-52" d="M 2203 2784 
Q 1831 2784 1636 2517 
Q 1441 2250 1441 1747 
Q 1441 1244 1636 976 
Q 1831 709 2203 709 
Q 2569 709 2762 976 
Q 2956 1244 2956 1747 
Q 2956 2250 2762 2517 
Q 2569 2784 2203 2784 
z
M 2203 3584 
Q 3106 3584 3614 3096 
Q 4122 2609 4122 1747 
Q 4122 884 3614 396 
Q 3106 -91 2203 -91 
Q 1297 -91 786 396 
Q 275 884 275 1747 
Q 275 2609 786 3096 
Q 1297 3584 2203 3584 
z
" transform="scale(0.015625)"/>
      <path id="DejaVuSans-Bold-50" d="M 3781 2919 
Q 3994 3244 4286 3414 
Q 4578 3584 4928 3584 
Q 5531 3584 5847 3212 
Q 6163 2841 6163 2131 
L 6163 0 
L 5038 0 
L 5038 1825 
Q 5041 1866 5042 1909 
Q 5044 1953 5044 2034 
Q 5044 2406 4934 2573 
Q 4825 2741 4581 2741 
Q 4263 2741 4089 2478 
Q 3916 2216 3909 1719 
L 3909 0 
L 2784 0 
L 2784 1825 
Q 2784 2406 2684 2573 
Q 2584 2741 2328 2741 
Q 2006 2741 1831 2477 
Q 1656 2213 1656 1722 
L 1656 0 
L 531 0 
L 531 3500 
L 1656 3500 
L 1656 2988 
Q 1863 3284 2130 3434 
Q 2397 3584 2719 3584 
Q 3081 3584 3359 3409 
Q 3638 3234 3781 2919 
z
" transform="scale(0.015625)"/>
      <path id="DejaVuSans-Bold-4c" d="M 538 3500 
L 1656 3500 
L 1656 0 
L 538 0 
L 538 3500 
z
M 538 4863 
L 1656 4863 
L 1656 3950 
L 538 3950 
L 538 4863 
z
" transform="scale(0.015625)"/>
      <path id="DejaVuSans-Bold-57" d="M 1759 4494 
L 1759 3500 
L 2913 3500 
L 2913 2700 
L 1759 2700 
L 1759 1216 
Q 1759 972 1856 886 
Q 1953 800 2241 800 
L 2816 800 
L 2816 0 
L 1856 0 
Q 1194 0 917 276 
Q 641 553 641 1216 
L 641 2700 
L 84 2700 
L 84 3500 
L 641 3500 
L 641 4494 
L 1759 4494 
z
" transform="scale(0.015625)"/>
      <path id="DejaVuSans-Bold-3" transform="scale(0.015625)"/>
      <path id="DejaVuSans-Bold-24" d="M 3419 850 
L 1538 850 
L 1241 0 
L 31 0 
L 1759 4666 
L 3194 4666 
L 4922 0 
L 3713 0 
L 3419 850 
z
M 1838 1716 
L 3116 1716 
L 2478 3572 
L 1838 1716 
z
" transform="scale(0.015625)"/>
      <path id="DejaVuSans-Bold-46" d="M 3366 3391 
L 3366 2478 
Q 3138 2634 2908 2709 
Q 2678 2784 2431 2784 
Q 1963 2784 1702 2511 
Q 1441 2238 1441 1747 
Q 1441 1256 1702 982 
Q 1963 709 2431 709 
Q 2694 709 2930 787 
Q 3166 866 3366 1019 
L 3366 103 
Q 3103 6 2833 -42 
Q 2563 -91 2291 -91 
Q 1344 -91 809 395 
Q 275 881 275 1747 
Q 275 2613 809 3098 
Q 1344 3584 2291 3584 
Q 2566 3584 2833 3536 
Q 3100 3488 3366 3391 
z
" transform="scale(0.015625)"/>
      <path id="DejaVuSans-Bold-59" d="M 97 3500 
L 1216 3500 
L 2088 1081 
L 2956 3500 
L 4078 3500 
L 2700 0 
L 1472 0 
L 97 3500 
z
" transform="scale(0.015625)"/>
      <path id="DejaVuSans-Bold-5c" d="M 78 3500 
L 1197 3500 
L 2138 1125 
L 2938 3500 
L 4056 3500 
L 2584 -331 
Q 2363 -916 2067 -1148 
Q 1772 -1381 1288 -1381 
L 641 -1381 
L 641 -647 
L 991 -647 
Q 1275 -647 1404 -556 
Q 1534 -466 1606 -231 
L 1638 -134 
L 78 3500 
z
" transform="scale(0.015625)"/>
      <path id="DejaVuSans-Bold-79" d="M 653 2828 
L 1778 2828 
L 1778 1619 
L 653 1619 
L 653 2828 
z
" transform="scale(0.015625)"/>
      <path id="DejaVuSans-Bold-15" d="M 1844 884 
L 3897 884 
L 3897 0 
L 506 0 
L 506 884 
L 2209 2388 
Q 2438 2594 2547 2791 
Q 2656 2988 2656 3200 
Q 2656 3528 2436 3728 
Q 2216 3928 1850 3928 
Q 1569 3928 1234 3808 
Q 900 3688 519 3450 
L 519 4475 
Q 925 4609 1322 4679 
Q 1719 4750 2100 4750 
Q 2938 4750 3402 4381 
Q 3866 4013 3866 3353 
Q 3866 2972 3669 2642 
Q 3472 2313 2841 1759 
L 1844 884 
z
" transform="scale(0.015625)"/>
      <path id="DejaVuSans-Bold-13" d="M 2944 2338 
Q 2944 3213 2780 3570 
Q 2616 3928 2228 3928 
Q 1841 3928 1675 3570 
Q 1509 3213 1509 2338 
Q 1509 1453 1675 1090 
Q 1841 728 2228 728 
Q 2613 728 2778 1090 
Q 2944 1453 2944 2338 
z
M 4147 2328 
Q 4147 1169 3647 539 
Q 3147 -91 2228 -91 
Q 1306 -91 806 539 
Q 306 1169 306 2328 
Q 306 3491 806 4120 
Q 1306 4750 2228 4750 
Q 3147 4750 3647 4120 
Q 4147 3491 4147 2328 
z
" transform="scale(0.015625)"/>
      <path id="DejaVuSans-Bold-19" d="M 2316 2303 
Q 2000 2303 1842 2098 
Q 1684 1894 1684 1484 
Q 1684 1075 1842 870 
Q 2000 666 2316 666 
Q 2634 666 2792 870 
Q 2950 1075 2950 1484 
Q 2950 1894 2792 2098 
Q 2634 2303 2316 2303 
z
M 3803 4544 
L 3803 3681 
Q 3506 3822 3243 3889 
Q 2981 3956 2731 3956 
Q 2194 3956 1894 3657 
Q 1594 3359 1544 2772 
Q 1750 2925 1990 3001 
Q 2231 3078 2516 3078 
Q 3231 3078 3670 2659 
Q 4109 2241 4109 1563 
Q 4109 813 3618 361 
Q 3128 -91 2303 -91 
Q 1394 -91 895 523 
Q 397 1138 397 2266 
Q 397 3422 980 4083 
Q 1563 4744 2578 4744 
Q 2900 4744 3203 4694 
Q 3506 4644 3803 4544 
z
" transform="scale(0.015625)"/>
      <path id="DejaVuSans-Bold-3c" d="M -63 4666 
L 1253 4666 
L 2316 3003 
L 3378 4666 
L 4697 4666 
L 2919 1966 
L 2919 0 
L 1716 0 
L 1716 1966 
L -63 4666 
z
" transform="scale(0.015625)"/>
      <path id="DejaVuSans-Bold-37" d="M 31 4666 
L 4331 4666 
L 4331 3756 
L 2784 3756 
L 2784 0 
L 1581 0 
L 1581 3756 
L 31 3756 
L 31 4666 
z
" transform="scale(0.015625)"/>
      <path id="DejaVuSans-Bold-27" d="M 1791 3756 
L 1791 909 
L 2222 909 
Q 2959 909 3348 1275 
Q 3738 1641 3738 2338 
Q 3738 3031 3350 3393 
Q 2963 3756 2222 3756 
L 1791 3756 
z
M 588 4666 
L 1856 4666 
Q 2919 4666 3439 4514 
Q 3959 4363 4331 4000 
Q 4659 3684 4818 3271 
Q 4978 2859 4978 2338 
Q 4978 1809 4818 1395 
Q 4659 981 4331 666 
Q 3956 303 3431 151 
Q 2906 0 1856 0 
L 588 0 
L 588 4666 
z
" transform="scale(0.015625)"/>
     </defs>
     <use xlink:href="#DejaVuSans-Bold-26"/>
     <use xlink:href="#DejaVuSans-Bold-52" transform="translate(73.390625 0)"/>
     <use xlink:href="#DejaVuSans-Bold-50" transform="translate(142.09375 0)"/>
     <use xlink:href="#DejaVuSans-Bold-50" transform="translate(246.296875 0)"/>
     <use xlink:href="#DejaVuSans-Bold-4c" transform="translate(350.5 0)"/>
     <use xlink:href="#DejaVuSans-Bold-57" transform="translate(384.78125 0)"/>
     <use xlink:href="#DejaVuSans-Bold-3" transform="translate(432.578125 0)"/>
     <use xlink:href="#DejaVuSans-Bold-24" transform="translate(467.390625 0)"/>
     <use xlink:href="#DejaVuSans-Bold-46" transform="translate(544.78125 0)"/>
     <use xlink:href="#DejaVuSans-Bold-57" transform="translate(604.0625 0)"/>
     <use xlink:href="#DejaVuSans-Bold-4c" transform="translate(651.859375 0)"/>
     <use xlink:href="#DejaVuSans-Bold-59" transform="translate(686.140625 0)"/>
     <use xlink:href="#DejaVuSans-Bold-4c" transform="translate(751.328125 0)"/>
     <use xlink:href="#DejaVuSans-Bold-57" transform="translate(785.609375 0)"/>
     <use xlink:href="#DejaVuSans-Bold-5c" transform="translate(833.40625 0)"/>
     <use xlink:href="#DejaVuSans-Bold-3" transform="translate(898.59375 0)"/>
     <use xlink:href="#DejaVuSans-Bold-79" transform="translate(933.40625 0)"/>
     <use xlink:href="#DejaVuSans-Bold-3" transform="translate(971.390625 0)"/>
     <use xlink:href="#DejaVuSans-Bold-15" transform="translate(1006.203125 0)"/>
     <use xlink:href="#DejaVuSans-Bold-13" transform="translate(1075.78125 0)"/>
     <use xlink:href="#DejaVuSans-Bold-15" transform="translate(1145.359375 0)"/>
     <use xlink:href="#DejaVuSans-Bold-19" transform="translate(1214.9375 0)"/>
     <use xlink:href="#DejaVuSans-Bold-3" transform="translate(1284.515625 0)"/>
     <use xlink:href="#DejaVuSans-Bold-3c" transform="translate(1319.328125 0)"/>
     <use xlink:href="#DejaVuSans-Bold-37" transform="translate(1391.734375 0)"/>
     <use xlink:href="#DejaVuSans-Bold-27" transform="translate(1459.953125 0)"/>
    </g>
   </g>
  </g>
 </g>
 <defs>
  <clipPath id="p0f9d6326a3">
   <rect x="53.288359" y="43.069718" width="867.96" height="323.361713"/>
  </clipPath>
 </defs>
</svg>
