<?xml version="1.0" encoding="utf-8" standalone="no"?>
<!DOCTYPE svg PUBLIC "-//W3C//DTD SVG 1.1//EN"
  "http://www.w3.org/Graphics/SVG/1.1/DTD/svg11.dtd">
<svg xmlns:xlink="http://www.w3.org/1999/xlink" width="928.743437pt" height="389.510362pt" viewBox="0 0 928.743437 389.510362" xmlns="http://www.w3.org/2000/svg" version="1.1">
 <metadata>
  <rdf:RDF xmlns:dc="http://purl.org/dc/elements/1.1/" xmlns:cc="http://creativecommons.org/ns#" xmlns:rdf="http://www.w3.org/1999/02/22-rdf-syntax-ns#">
   <cc:Work>
    <dc:type rdf:resource="http://purl.org/dc/dcmitype/StillImage"/>
    <dc:date>2026-05-25T10:03:09.699188</dc:date>
    <dc:format>image/svg+xml</dc:format>
    <dc:creator>
     <cc:Agent>
      <dc:title>Matplotlib v3.10.9, https://matplotlib.org/</dc:title>
     </cc:Agent>
    </dc:creator>
   </cc:Work>
  </rdf:RDF>
 </metadata>
 <defs>
  <style type="text/css">*{stroke-linejoin: round; stroke-linecap: butt}</style>
 </defs>
 <g id="figure_1">
  <g id="patch_1">
   <path d="M 0 389.510362 
L 928.743437 389.510362 
L 928.743437 0 
L 0 0 
z
" style="fill: #0d1117"/>
  </g>
  <g id="axes_1">
   <g id="patch_2">
    <path d="M 52.933438 366.632237 
L 921.543438 366.632237 
L 921.543438 42.785837 
L 52.933438 42.785837 
z
" style="fill: #0d1117"/>
   </g>
   <g id="matplotlib.axis_1">
    <g id="xtick_1">
     <g id="line2d_1"/>
     <g id="text_1">
      <!-- Jan 2026 -->
      <g style="fill: #8b949e" transform="translate(39.427347 380.230674) scale(0.1 -0.1)">
       <defs>
        <path id="DejaVuSans-4a" d="M 628 4666 
L 1259 4666 
L 1259 325 
Q 1259 -519 939 -900 
Q 619 -1281 -91 -1281 
L -331 -1281 
L -331 -750 
L -134 -750 
Q 284 -750 456 -515 
Q 628 -281 628 325 
L 628 4666 
z
" transform="scale(0.015625)"/>
        <path id="DejaVuSans-61" d="M 2194 1759 
Q 1497 1759 1228 1600 
Q 959 1441 959 1056 
Q 959 750 1161 570 
Q 1363 391 1709 391 
Q 2188 391 2477 730 
Q 2766 1069 2766 1631 
L 2766 1759 
L 2194 1759 
z
M 3341 1997 
L 3341 0 
L 2766 0 
L 2766 531 
Q 2569 213 2275 61 
Q 1981 -91 1556 -91 
Q 1019 -91 701 211 
Q 384 513 384 1019 
Q 384 1609 779 1909 
Q 1175 2209 1959 2209 
L 2766 2209 
L 2766 2266 
Q 2766 2663 2505 2880 
Q 2244 3097 1772 3097 
Q 1472 3097 1187 3025 
Q 903 2953 641 2809 
L 641 3341 
Q 956 3463 1253 3523 
Q 1550 3584 1831 3584 
Q 2591 3584 2966 3190 
Q 3341 2797 3341 1997 
z
" transform="scale(0.015625)"/>
        <path id="DejaVuSans-6e" d="M 3513 2113 
L 3513 0 
L 2938 0 
L 2938 2094 
Q 2938 2591 2744 2837 
Q 2550 3084 2163 3084 
Q 1697 3084 1428 2787 
Q 1159 2491 1159 1978 
L 1159 0 
L 581 0 
L 581 3500 
L 1159 3500 
L 1159 2956 
Q 1366 3272 1645 3428 
Q 1925 3584 2291 3584 
Q 2894 3584 3203 3211 
Q 3513 2838 3513 2113 
z
" transform="scale(0.015625)"/>
        <path id="DejaVuSans-20" transform="scale(0.015625)"/>
        <path id="DejaVuSans-32" d="M 1228 531 
L 3431 531 
L 3431 0 
L 469 0 
L 469 531 
Q 828 903 1448 1529 
Q 2069 2156 2228 2338 
Q 2531 2678 2651 2914 
Q 2772 3150 2772 3378 
Q 2772 3750 2511 3984 
Q 2250 4219 1831 4219 
Q 1534 4219 1204 4116 
Q 875 4013 500 3803 
L 500 4441 
Q 881 4594 1212 4672 
Q 1544 4750 1819 4750 
Q 2544 4750 2975 4387 
Q 3406 4025 3406 3419 
Q 3406 3131 3298 2873 
Q 3191 2616 2906 2266 
Q 2828 2175 2409 1742 
Q 1991 1309 1228 531 
z
" transform="scale(0.015625)"/>
        <path id="DejaVuSans-30" d="M 2034 4250 
Q 1547 4250 1301 3770 
Q 1056 3291 1056 2328 
Q 1056 1369 1301 889 
Q 1547 409 2034 409 
Q 2525 409 2770 889 
Q 3016 1369 3016 2328 
Q 3016 3291 2770 3770 
Q 2525 4250 2034 4250 
z
M 2034 4750 
Q 2819 4750 3233 4129 
Q 3647 3509 3647 2328 
Q 3647 1150 3233 529 
Q 2819 -91 2034 -91 
Q 1250 -91 836 529 
Q 422 1150 422 2328 
Q 422 3509 836 4129 
Q 1250 4750 2034 4750 
z
" transform="scale(0.015625)"/>
        <path id="DejaVuSans-36" d="M 2113 2584 
Q 1688 2584 1439 2293 
Q 1191 2003 1191 1497 
Q 1191 994 1439 701 
Q 1688 409 2113 409 
Q 2538 409 2786 701 
Q 3034 994 3034 1497 
Q 3034 2003 2786 2293 
Q 2538 2584 2113 2584 
z
M 3366 4563 
L 3366 3988 
Q 3128 4100 2886 4159 
Q 2644 4219 2406 4219 
Q 1781 4219 1451 3797 
Q 1122 3375 1075 2522 
Q 1259 2794 1537 2939 
Q 1816 3084 2150 3084 
Q 2853 3084 3261 2657 
Q 3669 2231 3669 1497 
Q 3669 778 3244 343 
Q 2819 -91 2113 -91 
Q 1303 -91 875 529 
Q 447 1150 447 2328 
Q 447 3434 972 4092 
Q 1497 4750 2381 4750 
Q 2619 4750 2861 4703 
Q 3103 4656 3366 4563 
z
" transform="scale(0.015625)"/>
       </defs>
       <use xlink:href="#DejaVuSans-4a"/>
       <use xlink:href="#DejaVuSans-61" transform="translate(29.492188 0)"/>
       <use xlink:href="#DejaVuSans-6e" transform="translate(90.771484 0)"/>
       <use xlink:href="#DejaVuSans-20" transform="translate(154.150391 0)"/>
       <use xlink:href="#DejaVuSans-32" transform="translate(185.9375 0)"/>
       <use xlink:href="#DejaVuSans-30" transform="translate(249.560547 0)"/>
       <use xlink:href="#DejaVuSans-32" transform="translate(313.183594 0)"/>
       <use xlink:href="#DejaVuSans-36" transform="translate(376.806641 0)"/>
      </g>
     </g>
    </g>
    <g id="xtick_2">
     <g id="line2d_2"/>
     <g id="text_2">
      <!-- Feb 2026 -->
      <g style="fill: #8b949e" transform="translate(221.609509 380.230674) scale(0.1 -0.1)">
       <defs>
        <path id="DejaVuSans-46" d="M 628 4666 
L 3309 4666 
L 3309 4134 
L 1259 4134 
L 1259 2759 
L 3109 2759 
L 3109 2228 
L 1259 2228 
L 1259 0 
L 628 0 
L 628 4666 
z
" transform="scale(0.015625)"/>
        <path id="DejaVuSans-65" d="M 3597 1894 
L 3597 1613 
L 953 1613 
Q 991 1019 1311 708 
Q 1631 397 2203 397 
Q 2534 397 2845 478 
Q 3156 559 3463 722 
L 3463 178 
Q 3153 47 2828 -22 
Q 2503 -91 2169 -91 
Q 1331 -91 842 396 
Q 353 884 353 1716 
Q 353 2575 817 3079 
Q 1281 3584 2069 3584 
Q 2775 3584 3186 3129 
Q 3597 2675 3597 1894 
z
M 3022 2063 
Q 3016 2534 2758 2815 
Q 2500 3097 2075 3097 
Q 1594 3097 1305 2825 
Q 1016 2553 972 2059 
L 3022 2063 
z
" transform="scale(0.015625)"/>
        <path id="DejaVuSans-62" d="M 3116 1747 
Q 3116 2381 2855 2742 
Q 2594 3103 2138 3103 
Q 1681 3103 1420 2742 
Q 1159 2381 1159 1747 
Q 1159 1113 1420 752 
Q 1681 391 2138 391 
Q 2594 391 2855 752 
Q 3116 1113 3116 1747 
z
M 1159 2969 
Q 1341 3281 1617 3432 
Q 1894 3584 2278 3584 
Q 2916 3584 3314 3078 
Q 3713 2572 3713 1747 
Q 3713 922 3314 415 
Q 2916 -91 2278 -91 
Q 1894 -91 1617 61 
Q 1341 213 1159 525 
L 1159 0 
L 581 0 
L 581 4863 
L 1159 4863 
L 1159 2969 
z
" transform="scale(0.015625)"/>
       </defs>
       <use xlink:href="#DejaVuSans-46"/>
       <use xlink:href="#DejaVuSans-65" transform="translate(52.019531 0)"/>
       <use xlink:href="#DejaVuSans-62" transform="translate(113.542969 0)"/>
       <use xlink:href="#DejaVuSans-20" transform="translate(177.019531 0)"/>
       <use xlink:href="#DejaVuSans-32" transform="translate(208.806641 0)"/>
       <use xlink:href="#DejaVuSans-30" transform="translate(272.429688 0)"/>
       <use xlink:href="#DejaVuSans-32" transform="translate(336.052734 0)"/>
       <use xlink:href="#DejaVuSans-36" transform="translate(399.675781 0)"/>
      </g>
     </g>
    </g>
    <g id="xtick_3">
     <g id="line2d_3"/>
     <g id="text_3">
      <!-- Mar 2026 -->
      <g style="fill: #8b949e" transform="translate(386.612173 380.230674) scale(0.1 -0.1)">
       <defs>
        <path id="DejaVuSans-4d" d="M 628 4666 
L 1569 4666 
L 2759 1491 
L 3956 4666 
L 4897 4666 
L 4897 0 
L 4281 0 
L 4281 4097 
L 3078 897 
L 2444 897 
L 1241 4097 
L 1241 0 
L 628 0 
L 628 4666 
z
" transform="scale(0.015625)"/>
        <path id="DejaVuSans-72" d="M 2631 2963 
Q 2534 3019 2420 3045 
Q 2306 3072 2169 3072 
Q 1681 3072 1420 2755 
Q 1159 2438 1159 1844 
L 1159 0 
L 581 0 
L 581 3500 
L 1159 3500 
L 1159 2956 
Q 1341 3275 1631 3429 
Q 1922 3584 2338 3584 
Q 2397 3584 2469 3576 
Q 2541 3569 2628 3553 
L 2631 2963 
z
" transform="scale(0.015625)"/>
       </defs>
       <use xlink:href="#DejaVuSans-4d"/>
       <use xlink:href="#DejaVuSans-61" transform="translate(86.279297 0)"/>
       <use xlink:href="#DejaVuSans-72" transform="translate(147.558594 0)"/>
       <use xlink:href="#DejaVuSans-20" transform="translate(188.671875 0)"/>
       <use xlink:href="#DejaVuSans-32" transform="translate(220.458984 0)"/>
       <use xlink:href="#DejaVuSans-30" transform="translate(284.082031 0)"/>
       <use xlink:href="#DejaVuSans-32" transform="translate(347.705078 0)"/>
       <use xlink:href="#DejaVuSans-36" transform="translate(411.328125 0)"/>
      </g>
     </g>
    </g>
    <g id="xtick_4">
     <g id="line2d_4"/>
     <g id="text_4">
      <!-- Apr 2026 -->
      <g style="fill: #8b949e" transform="translate(570.721679 380.230674) scale(0.1 -0.1)">
       <defs>
        <path id="DejaVuSans-41" d="M 2188 4044 
L 1331 1722 
L 3047 1722 
L 2188 4044 
z
M 1831 4666 
L 2547 4666 
L 4325 0 
L 3669 0 
L 3244 1197 
L 1141 1197 
L 716 0 
L 50 0 
L 1831 4666 
z
" transform="scale(0.015625)"/>
        <path id="DejaVuSans-70" d="M 1159 525 
L 1159 -1331 
L 581 -1331 
L 581 3500 
L 1159 3500 
L 1159 2969 
Q 1341 3281 1617 3432 
Q 1894 3584 2278 3584 
Q 2916 3584 3314 3078 
Q 3713 2572 3713 1747 
Q 3713 922 3314 415 
Q 2916 -91 2278 -91 
Q 1894 -91 1617 61 
Q 1341 213 1159 525 
z
M 3116 1747 
Q 3116 2381 2855 2742 
Q 2594 3103 2138 3103 
Q 1681 3103 1420 2742 
Q 1159 2381 1159 1747 
Q 1159 1113 1420 752 
Q 1681 391 2138 391 
Q 2594 391 2855 752 
Q 3116 1113 3116 1747 
z
" transform="scale(0.015625)"/>
       </defs>
       <use xlink:href="#DejaVuSans-41"/>
       <use xlink:href="#DejaVuSans-70" transform="translate(68.408203 0)"/>
       <use xlink:href="#DejaVuSans-72" transform="translate(131.884766 0)"/>
       <use xlink:href="#DejaVuSans-20" transform="translate(172.998047 0)"/>
       <use xlink:href="#DejaVuSans-32" transform="translate(204.785156 0)"/>
       <use xlink:href="#DejaVuSans-30" transform="translate(268.408203 0)"/>
       <use xlink:href="#DejaVuSans-32" transform="translate(332.03125 0)"/>
       <use xlink:href="#DejaVuSans-36" transform="translate(395.654297 0)"/>
      </g>
     </g>
    </g>
    <g id="xtick_5">
     <g id="line2d_5"/>
     <g id="text_5">
      <!-- May 2026 -->
      <g style="fill: #8b949e" transform="translate(746.446352 380.230674) scale(0.1 -0.1)">
       <defs>
        <path id="DejaVuSans-79" d="M 2059 -325 
Q 1816 -950 1584 -1140 
Q 1353 -1331 966 -1331 
L 506 -1331 
L 506 -850 
L 844 -850 
Q 1081 -850 1212 -737 
Q 1344 -625 1503 -206 
L 1606 56 
L 191 3500 
L 800 3500 
L 1894 763 
L 2988 3500 
L 3597 3500 
L 2059 -325 
z
" transform="scale(0.015625)"/>
       </defs>
       <use xlink:href="#DejaVuSans-4d"/>
       <use xlink:href="#DejaVuSans-61" transform="translate(86.279297 0)"/>
       <use xlink:href="#DejaVuSans-79" transform="translate(147.558594 0)"/>
       <use xlink:href="#DejaVuSans-20" transform="translate(206.738281 0)"/>
       <use xlink:href="#DejaVuSans-32" transform="translate(238.525391 0)"/>
       <use xlink:href="#DejaVuSans-30" transform="translate(302.148438 0)"/>
       <use xlink:href="#DejaVuSans-32" transform="translate(365.771484 0)"/>
       <use xlink:href="#DejaVuSans-36" transform="translate(429.394531 0)"/>
      </g>
     </g>
    </g>
    <g id="xtick_6">
     <g id="line2d_6"/>
    </g>
    <g id="xtick_7">
     <g id="line2d_7"/>
    </g>
    <g id="xtick_8">
     <g id="line2d_8"/>
    </g>
    <g id="xtick_9">
     <g id="line2d_9"/>
    </g>
    <g id="xtick_10">
     <g id="line2d_10"/>
    </g>
    <g id="xtick_11">
     <g id="line2d_11"/>
    </g>
    <g id="xtick_12">
     <g id="line2d_12"/>
    </g>
    <g id="xtick_13">
     <g id="line2d_13"/>
    </g>
    <g id="xtick_14">
     <g id="line2d_14"/>
    </g>
    <g id="xtick_15">
     <g id="line2d_15"/>
    </g>
    <g id="xtick_16">
     <g id="line2d_16"/>
    </g>
    <g id="xtick_17">
     <g id="line2d_17"/>
    </g>
    <g id="xtick_18">
     <g id="line2d_18"/>
    </g>
    <g id="xtick_19">
     <g id="line2d_19"/>
    </g>
    <g id="xtick_20">
     <g id="line2d_20"/>
    </g>
    <g id="xtick_21">
     <g id="line2d_21"/>
    </g>
    <g id="xtick_22">
     <g id="line2d_22"/>
    </g>
    <g id="xtick_23">
     <g id="line2d_23"/>
    </g>
    <g id="xtick_24">
     <g id="line2d_24"/>
    </g>
    <g id="xtick_25">
     <g id="line2d_25"/>
    </g>
    <g id="xtick_26">
     <g id="line2d_26"/>
    </g>
   </g>
   <g id="matplotlib.axis_2">
    <g id="ytick_1">
     <g id="line2d_27">
      <path d="M 52.933438 366.632237 
L 921.543438 366.632237 
" clip-path="url(#pa72a893a09)" style="fill: none; stroke: #8b949e; stroke-opacity: 0.12; stroke-width: 0.6; stroke-linecap: square"/>
     </g>
     <g id="line2d_28"/>
     <g id="text_6">
      <!-- 0 -->
      <g style="fill: #8b949e" transform="translate(40.570937 370.431456) scale(0.1 -0.1)">
       <use xlink:href="#DejaVuSans-30"/>
      </g>
     </g>
    </g>
    <g id="ytick_2">
     <g id="line2d_29">
      <path d="M 52.933438 324.669633 
L 921.543438 324.669633 
" clip-path="url(#pa72a893a09)" style="fill: none; stroke: #8b949e; stroke-opacity: 0.12; stroke-width: 0.6; stroke-linecap: square"/>
     </g>
     <g id="line2d_30"/>
     <g id="text_7">
      <!-- 20 -->
      <g style="fill: #8b949e" transform="translate(34.208438 328.468851) scale(0.1 -0.1)">
       <use xlink:href="#DejaVuSans-32"/>
       <use xlink:href="#DejaVuSans-30" transform="translate(63.623047 0)"/>
      </g>
     </g>
    </g>
    <g id="ytick_3">
     <g id="line2d_31">
      <path d="M 52.933438 282.707028 
L 921.543438 282.707028 
" clip-path="url(#pa72a893a09)" style="fill: none; stroke: #8b949e; stroke-opacity: 0.12; stroke-width: 0.6; stroke-linecap: square"/>
     </g>
     <g id="line2d_32"/>
     <g id="text_8">
      <!-- 40 -->
      <g style="fill: #8b949e" transform="translate(34.208438 286.506247) scale(0.1 -0.1)">
       <defs>
        <path id="DejaVuSans-34" d="M 2419 4116 
L 825 1625 
L 2419 1625 
L 2419 4116 
z
M 2253 4666 
L 3047 4666 
L 3047 1625 
L 3713 1625 
L 3713 1100 
L 3047 1100 
L 3047 0 
L 2419 0 
L 2419 1100 
L 313 1100 
L 313 1709 
L 2253 4666 
z
" transform="scale(0.015625)"/>
       </defs>
       <use xlink:href="#DejaVuSans-34"/>
       <use xlink:href="#DejaVuSans-30" transform="translate(63.623047 0)"/>
      </g>
     </g>
    </g>
    <g id="ytick_4">
     <g id="line2d_33">
      <path d="M 52.933438 240.744424 
L 921.543438 240.744424 
" clip-path="url(#pa72a893a09)" style="fill: none; stroke: #8b949e; stroke-opacity: 0.12; stroke-width: 0.6; stroke-linecap: square"/>
     </g>
     <g id="line2d_34"/>
     <g id="text_9">
      <!-- 60 -->
      <g style="fill: #8b949e" transform="translate(34.208438 244.543642) scale(0.1 -0.1)">
       <use xlink:href="#DejaVuSans-36"/>
       <use xlink:href="#DejaVuSans-30" transform="translate(63.623047 0)"/>
      </g>
     </g>
    </g>
    <g id="ytick_5">
     <g id="line2d_35">
      <path d="M 52.933438 198.781819 
L 921.543438 198.781819 
" clip-path="url(#pa72a893a09)" style="fill: none; stroke: #8b949e; stroke-opacity: 0.12; stroke-width: 0.6; stroke-linecap: square"/>
     </g>
     <g id="line2d_36"/>
     <g id="text_10">
      <!-- 80 -->
      <g style="fill: #8b949e" transform="translate(34.208438 202.581038) scale(0.1 -0.1)">
       <defs>
        <path id="DejaVuSans-38" d="M 2034 2216 
Q 1584 2216 1326 1975 
Q 1069 1734 1069 1313 
Q 1069 891 1326 650 
Q 1584 409 2034 409 
Q 2484 409 2743 651 
Q 3003 894 3003 1313 
Q 3003 1734 2745 1975 
Q 2488 2216 2034 2216 
z
M 1403 2484 
Q 997 2584 770 2862 
Q 544 3141 544 3541 
Q 544 4100 942 4425 
Q 1341 4750 2034 4750 
Q 2731 4750 3128 4425 
Q 3525 4100 3525 3541 
Q 3525 3141 3298 2862 
Q 3072 2584 2669 2484 
Q 3125 2378 3379 2068 
Q 3634 1759 3634 1313 
Q 3634 634 3220 271 
Q 2806 -91 2034 -91 
Q 1263 -91 848 271 
Q 434 634 434 1313 
Q 434 1759 690 2068 
Q 947 2378 1403 2484 
z
M 1172 3481 
Q 1172 3119 1398 2916 
Q 1625 2713 2034 2713 
Q 2441 2713 2670 2916 
Q 2900 3119 2900 3481 
Q 2900 3844 2670 4047 
Q 2441 4250 2034 4250 
Q 1625 4250 1398 4047 
Q 1172 3844 1172 3481 
z
" transform="scale(0.015625)"/>
       </defs>
       <use xlink:href="#DejaVuSans-38"/>
       <use xlink:href="#DejaVuSans-30" transform="translate(63.623047 0)"/>
      </g>
     </g>
    </g>
    <g id="ytick_6">
     <g id="line2d_37">
      <path d="M 52.933438 156.819215 
L 921.543438 156.819215 
" clip-path="url(#pa72a893a09)" style="fill: none; stroke: #8b949e; stroke-opacity: 0.12; stroke-width: 0.6; stroke-linecap: square"/>
     </g>
     <g id="line2d_38"/>
     <g id="text_11">
      <!-- 100 -->
      <g style="fill: #8b949e" transform="translate(27.845938 160.618433) scale(0.1 -0.1)">
       <defs>
        <path id="DejaVuSans-31" d="M 794 531 
L 1825 531 
L 1825 4091 
L 703 3866 
L 703 4441 
L 1819 4666 
L 2450 4666 
L 2450 531 
L 3481 531 
L 3481 0 
L 794 0 
L 794 531 
z
" transform="scale(0.015625)"/>
       </defs>
       <use xlink:href="#DejaVuSans-31"/>
       <use xlink:href="#DejaVuSans-30" transform="translate(63.623047 0)"/>
       <use xlink:href="#DejaVuSans-30" transform="translate(127.246094 0)"/>
      </g>
     </g>
    </g>
    <g id="ytick_7">
     <g id="line2d_39">
      <path d="M 52.933438 114.85661 
L 921.543438 114.85661 
" clip-path="url(#pa72a893a09)" style="fill: none; stroke: #8b949e; stroke-opacity: 0.12; stroke-width: 0.6; stroke-linecap: square"/>
     </g>
     <g id="line2d_40"/>
     <g id="text_12">
      <!-- 120 -->
      <g style="fill: #8b949e" transform="translate(27.845938 118.655829) scale(0.1 -0.1)">
       <use xlink:href="#DejaVuSans-31"/>
       <use xlink:href="#DejaVuSans-32" transform="translate(63.623047 0)"/>
       <use xlink:href="#DejaVuSans-30" transform="translate(127.246094 0)"/>
      </g>
     </g>
    </g>
    <g id="ytick_8">
     <g id="line2d_41">
      <path d="M 52.933438 72.894006 
L 921.543438 72.894006 
" clip-path="url(#pa72a893a09)" style="fill: none; stroke: #8b949e; stroke-opacity: 0.12; stroke-width: 0.6; stroke-linecap: square"/>
     </g>
     <g id="line2d_42"/>
     <g id="text_13">
      <!-- 140 -->
      <g style="fill: #8b949e" transform="translate(27.845938 76.693224) scale(0.1 -0.1)">
       <use xlink:href="#DejaVuSans-31"/>
       <use xlink:href="#DejaVuSans-34" transform="translate(63.623047 0)"/>
       <use xlink:href="#DejaVuSans-30" transform="translate(127.246094 0)"/>
      </g>
     </g>
    </g>
    <g id="text_14">
     <!-- Contributions -->
     <g style="fill: #8b949e" transform="translate(15.558281 241.723178) rotate(-90) scale(0.11 -0.11)">
      <defs>
       <path id="DejaVuSans-43" d="M 4122 4306 
L 4122 3641 
Q 3803 3938 3442 4084 
Q 3081 4231 2675 4231 
Q 1875 4231 1450 3742 
Q 1025 3253 1025 2328 
Q 1025 1406 1450 917 
Q 1875 428 2675 428 
Q 3081 428 3442 575 
Q 3803 722 4122 1019 
L 4122 359 
Q 3791 134 3420 21 
Q 3050 -91 2638 -91 
Q 1578 -91 968 557 
Q 359 1206 359 2328 
Q 359 3453 968 4101 
Q 1578 4750 2638 4750 
Q 3056 4750 3426 4639 
Q 3797 4528 4122 4306 
z
" transform="scale(0.015625)"/>
       <path id="DejaVuSans-6f" d="M 1959 3097 
Q 1497 3097 1228 2736 
Q 959 2375 959 1747 
Q 959 1119 1226 758 
Q 1494 397 1959 397 
Q 2419 397 2687 759 
Q 2956 1122 2956 1747 
Q 2956 2369 2687 2733 
Q 2419 3097 1959 3097 
z
M 1959 3584 
Q 2709 3584 3137 3096 
Q 3566 2609 3566 1747 
Q 3566 888 3137 398 
Q 2709 -91 1959 -91 
Q 1206 -91 779 398 
Q 353 888 353 1747 
Q 353 2609 779 3096 
Q 1206 3584 1959 3584 
z
" transform="scale(0.015625)"/>
       <path id="DejaVuSans-74" d="M 1172 4494 
L 1172 3500 
L 2356 3500 
L 2356 3053 
L 1172 3053 
L 1172 1153 
Q 1172 725 1289 603 
Q 1406 481 1766 481 
L 2356 481 
L 2356 0 
L 1766 0 
Q 1100 0 847 248 
Q 594 497 594 1153 
L 594 3053 
L 172 3053 
L 172 3500 
L 594 3500 
L 594 4494 
L 1172 4494 
z
" transform="scale(0.015625)"/>
       <path id="DejaVuSans-69" d="M 603 3500 
L 1178 3500 
L 1178 0 
L 603 0 
L 603 3500 
z
M 603 4863 
L 1178 4863 
L 1178 4134 
L 603 4134 
L 603 4863 
z
" transform="scale(0.015625)"/>
       <path id="DejaVuSans-75" d="M 544 1381 
L 544 3500 
L 1119 3500 
L 1119 1403 
Q 1119 906 1312 657 
Q 1506 409 1894 409 
Q 2359 409 2629 706 
Q 2900 1003 2900 1516 
L 2900 3500 
L 3475 3500 
L 3475 0 
L 2900 0 
L 2900 538 
Q 2691 219 2414 64 
Q 2138 -91 1772 -91 
Q 1169 -91 856 284 
Q 544 659 544 1381 
z
M 1991 3584 
L 1991 3584 
z
" transform="scale(0.015625)"/>
       <path id="DejaVuSans-73" d="M 2834 3397 
L 2834 2853 
Q 2591 2978 2328 3040 
Q 2066 3103 1784 3103 
Q 1356 3103 1142 2972 
Q 928 2841 928 2578 
Q 928 2378 1081 2264 
Q 1234 2150 1697 2047 
L 1894 2003 
Q 2506 1872 2764 1633 
Q 3022 1394 3022 966 
Q 3022 478 2636 193 
Q 2250 -91 1575 -91 
Q 1294 -91 989 -36 
Q 684 19 347 128 
L 347 722 
Q 666 556 975 473 
Q 1284 391 1588 391 
Q 1994 391 2212 530 
Q 2431 669 2431 922 
Q 2431 1156 2273 1281 
Q 2116 1406 1581 1522 
L 1381 1569 
Q 847 1681 609 1914 
Q 372 2147 372 2553 
Q 372 3047 722 3315 
Q 1072 3584 1716 3584 
Q 2034 3584 2315 3537 
Q 2597 3491 2834 3397 
z
" transform="scale(0.015625)"/>
      </defs>
      <use xlink:href="#DejaVuSans-43"/>
      <use xlink:href="#DejaVuSans-6f" transform="translate(69.824219 0)"/>
      <use xlink:href="#DejaVuSans-6e" transform="translate(131.005859 0)"/>
      <use xlink:href="#DejaVuSans-74" transform="translate(194.384766 0)"/>
      <use xlink:href="#DejaVuSans-72" transform="translate(233.59375 0)"/>
      <use xlink:href="#DejaVuSans-69" transform="translate(274.707031 0)"/>
      <use xlink:href="#DejaVuSans-62" transform="translate(302.490234 0)"/>
      <use xlink:href="#DejaVuSans-75" transform="translate(365.966797 0)"/>
      <use xlink:href="#DejaVuSans-74" transform="translate(429.345703 0)"/>
      <use xlink:href="#DejaVuSans-69" transform="translate(468.554688 0)"/>
      <use xlink:href="#DejaVuSans-6f" transform="translate(496.337891 0)"/>
      <use xlink:href="#DejaVuSans-6e" transform="translate(557.519531 0)"/>
      <use xlink:href="#DejaVuSans-73" transform="translate(620.898438 0)"/>
     </g>
    </g>
   </g>
   <g id="FillBetweenPolyCollection_1">
    <defs>
     <path id="m0a136b12d9" d="M 61.449222 -22.878125 
L 61.449222 -22.878125 
L 67.362961 -22.878125 
L 73.2767 -22.878125 
L 79.190439 -22.878125 
L 85.104178 -22.878125 
L 91.017917 -22.878125 
L 96.931656 -22.878125 
L 102.845396 -22.878125 
L 108.759135 -22.878125 
L 114.672874 -22.878125 
L 120.586613 -22.878125 
L 126.500352 -22.878125 
L 132.414091 -22.878125 
L 138.32783 -22.878125 
L 144.241569 -22.878125 
L 150.155308 -22.878125 
L 156.069048 -22.878125 
L 161.982787 -22.878125 
L 167.896526 -22.878125 
L 173.810265 -22.878125 
L 179.724004 -22.878125 
L 185.637743 -22.878125 
L 191.551482 -22.878125 
L 197.465221 -22.878125 
L 203.37896 -22.878125 
L 209.292699 -22.878125 
L 215.206439 -22.878125 
L 221.120178 -22.878125 
L 227.033917 -22.878125 
L 232.947656 -22.878125 
L 238.861395 -22.878125 
L 244.775134 -22.878125 
L 250.688873 -22.878125 
L 256.602612 -22.878125 
L 262.516351 -22.878125 
L 268.430091 -22.878125 
L 274.34383 -22.878125 
L 280.257569 -22.878125 
L 286.171308 -22.878125 
L 292.085047 -22.878125 
L 297.998786 -22.878125 
L 303.912525 -22.878125 
L 309.826264 -22.878125 
L 315.740003 -22.878125 
L 321.653743 -22.878125 
L 327.567482 -22.878125 
L 333.481221 -22.878125 
L 339.39496 -22.878125 
L 345.308699 -22.878125 
L 351.222438 -22.878125 
L 357.136177 -22.878125 
L 363.049916 -22.878125 
L 368.963655 -22.878125 
L 374.877394 -22.878125 
L 380.791134 -22.878125 
L 386.704873 -22.878125 
L 392.618612 -22.878125 
L 398.532351 -22.878125 
L 404.44609 -22.878125 
L 410.359829 -22.878125 
L 416.273568 -22.878125 
L 422.187307 -22.878125 
L 428.101046 -22.878125 
L 434.014786 -22.878125 
L 439.928525 -22.878125 
L 445.842264 -22.878125 
L 451.756003 -27.074385 
L 457.669742 -22.878125 
L 463.583481 -22.878125 
L 469.49722 -22.878125 
L 475.410959 -22.878125 
L 481.324698 -22.878125 
L 487.238437 -24.976255 
L 493.152177 -22.878125 
L 499.065916 -37.565037 
L 504.979655 -79.527641 
L 510.893394 -69.03699 
L 516.807133 -24.976255 
L 522.720872 -22.878125 
L 528.634611 -27.074385 
L 534.54835 -22.878125 
L 540.462089 -22.878125 
L 546.375829 -33.368776 
L 552.289568 -22.878125 
L 558.203307 -48.055688 
L 564.117046 -83.723901 
L 570.030785 -83.723901 
L 575.944524 -50.153818 
L 581.858263 -203.317324 
L 587.772002 -117.293985 
L 593.685741 -161.35472 
L 599.599481 -96.312683 
L 605.51322 -58.546339 
L 611.426959 -22.878125 
L 617.340698 -33.368776 
L 623.254437 -201.219194 
L 629.168176 -238.985538 
L 635.081915 -331.303268 
L 640.995654 -102.607073 
L 646.909393 -56.448209 
L 652.823132 -90.018292 
L 658.736872 -79.527641 
L 664.650611 -228.494887 
L 670.56435 -165.55098 
L 676.478089 -148.765938 
L 682.391828 -136.177157 
L 688.305567 -188.630413 
L 694.219306 -22.878125 
L 700.133045 -96.312683 
L 706.046784 -186.532282 
L 711.960524 -190.728543 
L 717.874263 -123.588376 
L 723.788002 -100.508943 
L 729.701741 -125.686506 
L 735.61548 -94.214553 
L 741.529219 -79.527641 
L 747.442958 -66.93886 
L 753.356697 -37.565037 
L 759.270436 -29.172516 
L 765.184176 -22.878125 
L 771.097915 -22.878125 
L 777.011654 -24.976255 
L 782.925393 -24.976255 
L 788.839132 -85.822032 
L 794.752871 -119.392115 
L 800.66661 -144.569678 
L 806.580349 -125.686506 
L 812.494088 -136.177157 
L 818.407827 -66.93886 
L 824.321567 -90.018292 
L 830.235306 -134.079027 
L 836.149045 -33.368776 
L 842.062784 -31.270646 
L 847.976523 -69.03699 
L 853.890262 -69.03699 
L 859.804001 -85.822032 
L 865.71774 -45.957557 
L 871.631479 -104.705204 
L 877.545219 -127.784636 
L 883.458958 -148.765938 
L 889.372697 -52.251948 
L 895.286436 -161.35472 
L 901.200175 -45.957557 
L 907.113914 -35.466906 
L 913.027653 -22.878125 
L 913.027653 -22.878125 
L 913.027653 -22.878125 
L 907.113914 -22.878125 
L 901.200175 -22.878125 
L 895.286436 -22.878125 
L 889.372697 -22.878125 
L 883.458958 -22.878125 
L 877.545219 -22.878125 
L 871.631479 -22.878125 
L 865.71774 -22.878125 
L 859.804001 -22.878125 
L 853.890262 -22.878125 
L 847.976523 -22.878125 
L 842.062784 -22.878125 
L 836.149045 -22.878125 
L 830.235306 -22.878125 
L 824.321567 -22.878125 
L 818.407827 -22.878125 
L 812.494088 -22.878125 
L 806.580349 -22.878125 
L 800.66661 -22.878125 
L 794.752871 -22.878125 
L 788.839132 -22.878125 
L 782.925393 -22.878125 
L 777.011654 -22.878125 
L 771.097915 -22.878125 
L 765.184176 -22.878125 
L 759.270436 -22.878125 
L 753.356697 -22.878125 
L 747.442958 -22.878125 
L 741.529219 -22.878125 
L 735.61548 -22.878125 
L 729.701741 -22.878125 
L 723.788002 -22.878125 
L 717.874263 -22.878125 
L 711.960524 -22.878125 
L 706.046784 -22.878125 
L 700.133045 -22.878125 
L 694.219306 -22.878125 
L 688.305567 -22.878125 
L 682.391828 -22.878125 
L 676.478089 -22.878125 
L 670.56435 -22.878125 
L 664.650611 -22.878125 
L 658.736872 -22.878125 
L 652.823132 -22.878125 
L 646.909393 -22.878125 
L 640.995654 -22.878125 
L 635.081915 -22.878125 
L 629.168176 -22.878125 
L 623.254437 -22.878125 
L 617.340698 -22.878125 
L 611.426959 -22.878125 
L 605.51322 -22.878125 
L 599.599481 -22.878125 
L 593.685741 -22.878125 
L 587.772002 -22.878125 
L 581.858263 -22.878125 
L 575.944524 -22.878125 
L 570.030785 -22.878125 
L 564.117046 -22.878125 
L 558.203307 -22.878125 
L 552.289568 -22.878125 
L 546.375829 -22.878125 
L 540.462089 -22.878125 
L 534.54835 -22.878125 
L 528.634611 -22.878125 
L 522.720872 -22.878125 
L 516.807133 -22.878125 
L 510.893394 -22.878125 
L 504.979655 -22.878125 
L 499.065916 -22.878125 
L 493.152177 -22.878125 
L 487.238437 -22.878125 
L 481.324698 -22.878125 
L 475.410959 -22.878125 
L 469.49722 -22.878125 
L 463.583481 -22.878125 
L 457.669742 -22.878125 
L 451.756003 -22.878125 
L 445.842264 -22.878125 
L 439.928525 -22.878125 
L 434.014786 -22.878125 
L 428.101046 -22.878125 
L 422.187307 -22.878125 
L 416.273568 -22.878125 
L 410.359829 -22.878125 
L 404.44609 -22.878125 
L 398.532351 -22.878125 
L 392.618612 -22.878125 
L 386.704873 -22.878125 
L 380.791134 -22.878125 
L 374.877394 -22.878125 
L 368.963655 -22.878125 
L 363.049916 -22.878125 
L 357.136177 -22.878125 
L 351.222438 -22.878125 
L 345.308699 -22.878125 
L 339.39496 -22.878125 
L 333.481221 -22.878125 
L 327.567482 -22.878125 
L 321.653743 -22.878125 
L 315.740003 -22.878125 
L 309.826264 -22.878125 
L 303.912525 -22.878125 
L 297.998786 -22.878125 
L 292.085047 -22.878125 
L 286.171308 -22.878125 
L 280.257569 -22.878125 
L 274.34383 -22.878125 
L 268.430091 -22.878125 
L 262.516351 -22.878125 
L 256.602612 -22.878125 
L 250.688873 -22.878125 
L 244.775134 -22.878125 
L 238.861395 -22.878125 
L 232.947656 -22.878125 
L 227.033917 -22.878125 
L 221.120178 -22.878125 
L 215.206439 -22.878125 
L 209.292699 -22.878125 
L 203.37896 -22.878125 
L 197.465221 -22.878125 
L 191.551482 -22.878125 
L 185.637743 -22.878125 
L 179.724004 -22.878125 
L 173.810265 -22.878125 
L 167.896526 -22.878125 
L 161.982787 -22.878125 
L 156.069048 -22.878125 
L 150.155308 -22.878125 
L 144.241569 -22.878125 
L 138.32783 -22.878125 
L 132.414091 -22.878125 
L 126.500352 -22.878125 
L 120.586613 -22.878125 
L 114.672874 -22.878125 
L 108.759135 -22.878125 
L 102.845396 -22.878125 
L 96.931656 -22.878125 
L 91.017917 -22.878125 
L 85.104178 -22.878125 
L 79.190439 -22.878125 
L 73.2767 -22.878125 
L 67.362961 -22.878125 
L 61.449222 -22.878125 
z
"/>
    </defs>
    <g clip-path="url(#pa72a893a09)">
     <use xlink:href="#m0a136b12d9" x="0" y="389.510362" style="fill: #f97316; fill-opacity: 0.18"/>
    </g>
   </g>
   <g id="line2d_43">
    <path d="M 61.449222 366.632237 
L 445.842264 366.632237 
L 451.756003 362.435977 
L 457.669742 366.632237 
L 481.324698 366.632237 
L 487.238437 364.534107 
L 493.152177 366.632237 
L 499.065916 351.945325 
L 504.979655 309.982721 
L 510.893394 320.473372 
L 516.807133 364.534107 
L 522.720872 366.632237 
L 528.634611 362.435977 
L 534.54835 366.632237 
L 540.462089 366.632237 
L 546.375829 356.141586 
L 552.289568 366.632237 
L 558.203307 341.454674 
L 564.117046 305.786461 
L 570.030785 305.786461 
L 575.944524 339.356544 
L 581.858263 186.193038 
L 587.772002 272.216377 
L 593.685741 228.155642 
L 599.599481 293.197679 
L 605.51322 330.964023 
L 611.426959 366.632237 
L 617.340698 356.141586 
L 623.254437 188.291168 
L 629.168176 150.524824 
L 635.081915 58.207094 
L 640.995654 286.903289 
L 646.909393 333.062153 
L 652.823132 299.49207 
L 658.736872 309.982721 
L 664.650611 161.015475 
L 670.56435 223.959382 
L 676.478089 240.744424 
L 682.391828 253.333205 
L 688.305567 200.879949 
L 694.219306 366.632237 
L 700.133045 293.197679 
L 706.046784 202.97808 
L 711.960524 198.781819 
L 717.874263 265.921986 
L 723.788002 289.001419 
L 729.701741 263.823856 
L 735.61548 295.295809 
L 741.529219 309.982721 
L 747.442958 322.571502 
L 753.356697 351.945325 
L 759.270436 360.337846 
L 765.184176 366.632237 
L 771.097915 366.632237 
L 777.011654 364.534107 
L 782.925393 364.534107 
L 788.839132 303.68833 
L 794.752871 270.118247 
L 800.66661 244.940684 
L 806.580349 263.823856 
L 812.494088 253.333205 
L 818.407827 322.571502 
L 824.321567 299.49207 
L 830.235306 255.431335 
L 836.149045 356.141586 
L 842.062784 358.239716 
L 847.976523 320.473372 
L 853.890262 320.473372 
L 859.804001 303.68833 
L 865.71774 343.552805 
L 871.631479 284.805158 
L 877.545219 261.725726 
L 883.458958 240.744424 
L 889.372697 337.258414 
L 895.286436 228.155642 
L 901.200175 343.552805 
L 907.113914 354.043456 
L 913.027653 366.632237 
L 913.027653 366.632237 
" clip-path="url(#pa72a893a09)" style="fill: none; stroke: #f97316; stroke-width: 2.2; stroke-linecap: round"/>
   </g>
   <g id="text_15">
    <!-- 2,315 commits   ·   peak 147 -->
    <g style="fill: #8b949e" transform="translate(773.455075 14.798437) scale(0.1 -0.1)">
     <defs>
      <path id="DejaVuSans-2c" d="M 750 794 
L 1409 794 
L 1409 256 
L 897 -744 
L 494 -744 
L 750 256 
L 750 794 
z
" transform="scale(0.015625)"/>
      <path id="DejaVuSans-33" d="M 2597 2516 
Q 3050 2419 3304 2112 
Q 3559 1806 3559 1356 
Q 3559 666 3084 287 
Q 2609 -91 1734 -91 
Q 1441 -91 1130 -33 
Q 819 25 488 141 
L 488 750 
Q 750 597 1062 519 
Q 1375 441 1716 441 
Q 2309 441 2620 675 
Q 2931 909 2931 1356 
Q 2931 1769 2642 2001 
Q 2353 2234 1838 2234 
L 1294 2234 
L 1294 2753 
L 1863 2753 
Q 2328 2753 2575 2939 
Q 2822 3125 2822 3475 
Q 2822 3834 2567 4026 
Q 2313 4219 1838 4219 
Q 1578 4219 1281 4162 
Q 984 4106 628 3988 
L 628 4550 
Q 988 4650 1302 4700 
Q 1616 4750 1894 4750 
Q 2613 4750 3031 4423 
Q 3450 4097 3450 3541 
Q 3450 3153 3228 2886 
Q 3006 2619 2597 2516 
z
" transform="scale(0.015625)"/>
      <path id="DejaVuSans-35" d="M 691 4666 
L 3169 4666 
L 3169 4134 
L 1269 4134 
L 1269 2991 
Q 1406 3038 1543 3061 
Q 1681 3084 1819 3084 
Q 2600 3084 3056 2656 
Q 3513 2228 3513 1497 
Q 3513 744 3044 326 
Q 2575 -91 1722 -91 
Q 1428 -91 1123 -41 
Q 819 9 494 109 
L 494 744 
Q 775 591 1075 516 
Q 1375 441 1709 441 
Q 2250 441 2565 725 
Q 2881 1009 2881 1497 
Q 2881 1984 2565 2268 
Q 2250 2553 1709 2553 
Q 1456 2553 1204 2497 
Q 953 2441 691 2322 
L 691 4666 
z
" transform="scale(0.015625)"/>
      <path id="DejaVuSans-63" d="M 3122 3366 
L 3122 2828 
Q 2878 2963 2633 3030 
Q 2388 3097 2138 3097 
Q 1578 3097 1268 2742 
Q 959 2388 959 1747 
Q 959 1106 1268 751 
Q 1578 397 2138 397 
Q 2388 397 2633 464 
Q 2878 531 3122 666 
L 3122 134 
Q 2881 22 2623 -34 
Q 2366 -91 2075 -91 
Q 1284 -91 818 406 
Q 353 903 353 1747 
Q 353 2603 823 3093 
Q 1294 3584 2113 3584 
Q 2378 3584 2631 3529 
Q 2884 3475 3122 3366 
z
" transform="scale(0.015625)"/>
      <path id="DejaVuSans-6d" d="M 3328 2828 
Q 3544 3216 3844 3400 
Q 4144 3584 4550 3584 
Q 5097 3584 5394 3201 
Q 5691 2819 5691 2113 
L 5691 0 
L 5113 0 
L 5113 2094 
Q 5113 2597 4934 2840 
Q 4756 3084 4391 3084 
Q 3944 3084 3684 2787 
Q 3425 2491 3425 1978 
L 3425 0 
L 2847 0 
L 2847 2094 
Q 2847 2600 2669 2842 
Q 2491 3084 2119 3084 
Q 1678 3084 1418 2786 
Q 1159 2488 1159 1978 
L 1159 0 
L 581 0 
L 581 3500 
L 1159 3500 
L 1159 2956 
Q 1356 3278 1631 3431 
Q 1906 3584 2284 3584 
Q 2666 3584 2933 3390 
Q 3200 3197 3328 2828 
z
" transform="scale(0.015625)"/>
      <path id="DejaVuSans-b7" d="M 684 2619 
L 1344 2619 
L 1344 1825 
L 684 1825 
L 684 2619 
z
" transform="scale(0.015625)"/>
      <path id="DejaVuSans-6b" d="M 581 4863 
L 1159 4863 
L 1159 1991 
L 2875 3500 
L 3609 3500 
L 1753 1863 
L 3688 0 
L 2938 0 
L 1159 1709 
L 1159 0 
L 581 0 
L 581 4863 
z
" transform="scale(0.015625)"/>
      <path id="DejaVuSans-37" d="M 525 4666 
L 3525 4666 
L 3525 4397 
L 1831 0 
L 1172 0 
L 2766 4134 
L 525 4134 
L 525 4666 
z
" transform="scale(0.015625)"/>
     </defs>
     <use xlink:href="#DejaVuSans-32"/>
     <use xlink:href="#DejaVuSans-2c" transform="translate(63.623047 0)"/>
     <use xlink:href="#DejaVuSans-33" transform="translate(95.410156 0)"/>
     <use xlink:href="#DejaVuSans-31" transform="translate(159.033203 0)"/>
     <use xlink:href="#DejaVuSans-35" transform="translate(222.65625 0)"/>
     <use xlink:href="#DejaVuSans-20" transform="translate(286.279297 0)"/>
     <use xlink:href="#DejaVuSans-63" transform="translate(318.066406 0)"/>
     <use xlink:href="#DejaVuSans-6f" transform="translate(373.046875 0)"/>
     <use xlink:href="#DejaVuSans-6d" transform="translate(434.228516 0)"/>
     <use xlink:href="#DejaVuSans-6d" transform="translate(531.640625 0)"/>
     <use xlink:href="#DejaVuSans-69" transform="translate(629.052734 0)"/>
     <use xlink:href="#DejaVuSans-74" transform="translate(656.835938 0)"/>
     <use xlink:href="#DejaVuSans-73" transform="translate(696.044922 0)"/>
     <use xlink:href="#DejaVuSans-20" transform="translate(748.144531 0)"/>
     <use xlink:href="#DejaVuSans-20" transform="translate(779.931641 0)"/>
     <use xlink:href="#DejaVuSans-20" transform="translate(811.71875 0)"/>
     <use xlink:href="#DejaVuSans-b7" transform="translate(843.505859 0)"/>
     <use xlink:href="#DejaVuSans-20" transform="translate(875.292969 0)"/>
     <use xlink:href="#DejaVuSans-20" transform="translate(907.080078 0)"/>
     <use xlink:href="#DejaVuSans-20" transform="translate(938.867188 0)"/>
     <use xlink:href="#DejaVuSans-70" transform="translate(970.654297 0)"/>
     <use xlink:href="#DejaVuSans-65" transform="translate(1034.130859 0)"/>
     <use xlink:href="#DejaVuSans-61" transform="translate(1095.654297 0)"/>
     <use xlink:href="#DejaVuSans-6b" transform="translate(1156.933594 0)"/>
     <use xlink:href="#DejaVuSans-20" transform="translate(1214.84375 0)"/>
     <use xlink:href="#DejaVuSans-31" transform="translate(1246.630859 0)"/>
     <use xlink:href="#DejaVuSans-34" transform="translate(1310.253906 0)"/>
     <use xlink:href="#DejaVuSans-37" transform="translate(1373.876953 0)"/>
    </g>
   </g>
   <g id="text_16">
    <!-- Commit Activity · 2026 YTD -->
    <g style="fill: #c9d1d9" transform="translate(52.933438 24.785837) scale(0.16 -0.16)">
     <defs>
      <path id="DejaVuSans-Bold-43" d="M 4288 256 
Q 3956 84 3597 -3 
Q 3238 -91 2847 -91 
Q 1681 -91 1000 561 
Q 319 1213 319 2328 
Q 319 3447 1000 4098 
Q 1681 4750 2847 4750 
Q 3238 4750 3597 4662 
Q 3956 4575 4288 4403 
L 4288 3438 
Q 3953 3666 3628 3772 
Q 3303 3878 2944 3878 
Q 2300 3878 1931 3465 
Q 1563 3053 1563 2328 
Q 1563 1606 1931 1193 
Q 2300 781 2944 781 
Q 3303 781 3628 887 
Q 3953 994 4288 1222 
L 4288 256 
z
" transform="scale(0.015625)"/>
      <path id="DejaVuSans-Bold-6f" d="M 2203 2784 
Q 1831 2784 1636 2517 
Q 1441 2250 1441 1747 
Q 1441 1244 1636 976 
Q 1831 709 2203 709 
Q 2569 709 2762 976 
Q 2956 1244 2956 1747 
Q 2956 2250 2762 2517 
Q 2569 2784 2203 2784 
z
M 2203 3584 
Q 3106 3584 3614 3096 
Q 4122 2609 4122 1747 
Q 4122 884 3614 396 
Q 3106 -91 2203 -91 
Q 1297 -91 786 396 
Q 275 884 275 1747 
Q 275 2609 786 3096 
Q 1297 3584 2203 3584 
z
" transform="scale(0.015625)"/>
      <path id="DejaVuSans-Bold-6d" d="M 3781 2919 
Q 3994 3244 4286 3414 
Q 4578 3584 4928 3584 
Q 5531 3584 5847 3212 
Q 6163 2841 6163 2131 
L 6163 0 
L 5038 0 
L 5038 1825 
Q 5041 1866 5042 1909 
Q 5044 1953 5044 2034 
Q 5044 2406 4934 2573 
Q 4825 2741 4581 2741 
Q 4263 2741 4089 2478 
Q 3916 2216 3909 1719 
L 3909 0 
L 2784 0 
L 2784 1825 
Q 2784 2406 2684 2573 
Q 2584 2741 2328 2741 
Q 2006 2741 1831 2477 
Q 1656 2213 1656 1722 
L 1656 0 
L 531 0 
L 531 3500 
L 1656 3500 
L 1656 2988 
Q 1863 3284 2130 3434 
Q 2397 3584 2719 3584 
Q 3081 3584 3359 3409 
Q 3638 3234 3781 2919 
z
" transform="scale(0.015625)"/>
      <path id="DejaVuSans-Bold-69" d="M 538 3500 
L 1656 3500 
L 1656 0 
L 538 0 
L 538 3500 
z
M 538 4863 
L 1656 4863 
L 1656 3950 
L 538 3950 
L 538 4863 
z
" transform="scale(0.015625)"/>
      <path id="DejaVuSans-Bold-74" d="M 1759 4494 
L 1759 3500 
L 2913 3500 
L 2913 2700 
L 1759 2700 
L 1759 1216 
Q 1759 972 1856 886 
Q 1953 800 2241 800 
L 2816 800 
L 2816 0 
L 1856 0 
Q 1194 0 917 276 
Q 641 553 641 1216 
L 641 2700 
L 84 2700 
L 84 3500 
L 641 3500 
L 641 4494 
L 1759 4494 
z
" transform="scale(0.015625)"/>
      <path id="DejaVuSans-Bold-20" transform="scale(0.015625)"/>
      <path id="DejaVuSans-Bold-41" d="M 3419 850 
L 1538 850 
L 1241 0 
L 31 0 
L 1759 4666 
L 3194 4666 
L 4922 0 
L 3713 0 
L 3419 850 
z
M 1838 1716 
L 3116 1716 
L 2478 3572 
L 1838 1716 
z
" transform="scale(0.015625)"/>
      <path id="DejaVuSans-Bold-63" d="M 3366 3391 
L 3366 2478 
Q 3138 2634 2908 2709 
Q 2678 2784 2431 2784 
Q 1963 2784 1702 2511 
Q 1441 2238 1441 1747 
Q 1441 1256 1702 982 
Q 1963 709 2431 709 
Q 2694 709 2930 787 
Q 3166 866 3366 1019 
L 3366 103 
Q 3103 6 2833 -42 
Q 2563 -91 2291 -91 
Q 1344 -91 809 395 
Q 275 881 275 1747 
Q 275 2613 809 3098 
Q 1344 3584 2291 3584 
Q 2566 3584 2833 3536 
Q 3100 3488 3366 3391 
z
" transform="scale(0.015625)"/>
      <path id="DejaVuSans-Bold-76" d="M 97 3500 
L 1216 3500 
L 2088 1081 
L 2956 3500 
L 4078 3500 
L 2700 0 
L 1472 0 
L 97 3500 
z
" transform="scale(0.015625)"/>
      <path id="DejaVuSans-Bold-79" d="M 78 3500 
L 1197 3500 
L 2138 1125 
L 2938 3500 
L 4056 3500 
L 2584 -331 
Q 2363 -916 2067 -1148 
Q 1772 -1381 1288 -1381 
L 641 -1381 
L 641 -647 
L 991 -647 
Q 1275 -647 1404 -556 
Q 1534 -466 1606 -231 
L 1638 -134 
L 78 3500 
z
" transform="scale(0.015625)"/>
      <path id="DejaVuSans-Bold-b7" d="M 653 2828 
L 1778 2828 
L 1778 1619 
L 653 1619 
L 653 2828 
z
" transform="scale(0.015625)"/>
      <path id="DejaVuSans-Bold-32" d="M 1844 884 
L 3897 884 
L 3897 0 
L 506 0 
L 506 884 
L 2209 2388 
Q 2438 2594 2547 2791 
Q 2656 2988 2656 3200 
Q 2656 3528 2436 3728 
Q 2216 3928 1850 3928 
Q 1569 3928 1234 3808 
Q 900 3688 519 3450 
L 519 4475 
Q 925 4609 1322 4679 
Q 1719 4750 2100 4750 
Q 2938 4750 3402 4381 
Q 3866 4013 3866 3353 
Q 3866 2972 3669 2642 
Q 3472 2313 2841 1759 
L 1844 884 
z
" transform="scale(0.015625)"/>
      <path id="DejaVuSans-Bold-30" d="M 2944 2338 
Q 2944 3213 2780 3570 
Q 2616 3928 2228 3928 
Q 1841 3928 1675 3570 
Q 1509 3213 1509 2338 
Q 1509 1453 1675 1090 
Q 1841 728 2228 728 
Q 2613 728 2778 1090 
Q 2944 1453 2944 2338 
z
M 4147 2328 
Q 4147 1169 3647 539 
Q 3147 -91 2228 -91 
Q 1306 -91 806 539 
Q 306 1169 306 2328 
Q 306 3491 806 4120 
Q 1306 4750 2228 4750 
Q 3147 4750 3647 4120 
Q 4147 3491 4147 2328 
z
" transform="scale(0.015625)"/>
      <path id="DejaVuSans-Bold-36" d="M 2316 2303 
Q 2000 2303 1842 2098 
Q 1684 1894 1684 1484 
Q 1684 1075 1842 870 
Q 2000 666 2316 666 
Q 2634 666 2792 870 
Q 2950 1075 2950 1484 
Q 2950 1894 2792 2098 
Q 2634 2303 2316 2303 
z
M 3803 4544 
L 3803 3681 
Q 3506 3822 3243 3889 
Q 2981 3956 2731 3956 
Q 2194 3956 1894 3657 
Q 1594 3359 1544 2772 
Q 1750 2925 1990 3001 
Q 2231 3078 2516 3078 
Q 3231 3078 3670 2659 
Q 4109 2241 4109 1563 
Q 4109 813 3618 361 
Q 3128 -91 2303 -91 
Q 1394 -91 895 523 
Q 397 1138 397 2266 
Q 397 3422 980 4083 
Q 1563 4744 2578 4744 
Q 2900 4744 3203 4694 
Q 3506 4644 3803 4544 
z
" transform="scale(0.015625)"/>
      <path id="DejaVuSans-Bold-59" d="M -63 4666 
L 1253 4666 
L 2316 3003 
L 3378 4666 
L 4697 4666 
L 2919 1966 
L 2919 0 
L 1716 0 
L 1716 1966 
L -63 4666 
z
" transform="scale(0.015625)"/>
      <path id="DejaVuSans-Bold-54" d="M 31 4666 
L 4331 4666 
L 4331 3756 
L 2784 3756 
L 2784 0 
L 1581 0 
L 1581 3756 
L 31 3756 
L 31 4666 
z
" transform="scale(0.015625)"/>
      <path id="DejaVuSans-Bold-44" d="M 1791 3756 
L 1791 909 
L 2222 909 
Q 2959 909 3348 1275 
Q 3738 1641 3738 2338 
Q 3738 3031 3350 3393 
Q 2963 3756 2222 3756 
L 1791 3756 
z
M 588 4666 
L 1856 4666 
Q 2919 4666 3439 4514 
Q 3959 4363 4331 4000 
Q 4659 3684 4818 3271 
Q 4978 2859 4978 2338 
Q 4978 1809 4818 1395 
Q 4659 981 4331 666 
Q 3956 303 3431 151 
Q 2906 0 1856 0 
L 588 0 
L 588 4666 
z
" transform="scale(0.015625)"/>
     </defs>
     <use xlink:href="#DejaVuSans-Bold-43"/>
     <use xlink:href="#DejaVuSans-Bold-6f" transform="translate(73.388672 0)"/>
     <use xlink:href="#DejaVuSans-Bold-6d" transform="translate(142.089844 0)"/>
     <use xlink:href="#DejaVuSans-Bold-6d" transform="translate(246.289062 0)"/>
     <use xlink:href="#DejaVuSans-Bold-69" transform="translate(350.488281 0)"/>
     <use xlink:href="#DejaVuSans-Bold-74" transform="translate(384.765625 0)"/>
     <use xlink:href="#DejaVuSans-Bold-20" transform="translate(432.568359 0)"/>
     <use xlink:href="#DejaVuSans-Bold-41" transform="translate(467.382812 0)"/>
     <use xlink:href="#DejaVuSans-Bold-63" transform="translate(544.775391 0)"/>
     <use xlink:href="#DejaVuSans-Bold-74" transform="translate(604.052734 0)"/>
     <use xlink:href="#DejaVuSans-Bold-69" transform="translate(651.855469 0)"/>
     <use xlink:href="#DejaVuSans-Bold-76" transform="translate(686.132812 0)"/>
     <use xlink:href="#DejaVuSans-Bold-69" transform="translate(751.318359 0)"/>
     <use xlink:href="#DejaVuSans-Bold-74" transform="translate(785.595703 0)"/>
     <use xlink:href="#DejaVuSans-Bold-79" transform="translate(833.398438 0)"/>
     <use xlink:href="#DejaVuSans-Bold-20" transform="translate(898.583984 0)"/>
     <use xlink:href="#DejaVuSans-Bold-b7" transform="translate(933.398438 0)"/>
     <use xlink:href="#DejaVuSans-Bold-20" transform="translate(971.386719 0)"/>
     <use xlink:href="#DejaVuSans-Bold-32" transform="translate(1006.201172 0)"/>
     <use xlink:href="#DejaVuSans-Bold-30" transform="translate(1075.78125 0)"/>
     <use xlink:href="#DejaVuSans-Bold-32" transform="translate(1145.361328 0)"/>
     <use xlink:href="#DejaVuSans-Bold-36" transform="translate(1214.941406 0)"/>
     <use xlink:href="#DejaVuSans-Bold-20" transform="translate(1284.521484 0)"/>
     <use xlink:href="#DejaVuSans-Bold-59" transform="translate(1319.335938 0)"/>
     <use xlink:href="#DejaVuSans-Bold-54" transform="translate(1391.748047 0)"/>
     <use xlink:href="#DejaVuSans-Bold-44" transform="translate(1459.960938 0)"/>
    </g>
   </g>
  </g>
 </g>
 <defs>
  <clipPath id="pa72a893a09">
   <rect x="52.933438" y="42.785837" width="868.61" height="323.8464"/>
  </clipPath>
 </defs>
</svg>
