<?xml version="1.0" encoding="utf-8" standalone="no"?>
<!DOCTYPE svg PUBLIC "-//W3C//DTD SVG 1.1//EN"
  "http://www.w3.org/Graphics/SVG/1.1/DTD/svg11.dtd">
<svg xmlns:xlink="http://www.w3.org/1999/xlink" width="928.448359pt" height="389.632212pt" viewBox="0 0 928.448359 389.632212" xmlns="http://www.w3.org/2000/svg" version="1.1">
 <metadata>
  <rdf:RDF xmlns:dc="http://purl.org/dc/elements/1.1/" xmlns:cc="http://creativecommons.org/ns#" xmlns:rdf="http://www.w3.org/1999/02/22-rdf-syntax-ns#">
   <cc:Work>
    <dc:type rdf:resource="http://purl.org/dc/dcmitype/StillImage"/>
    <dc:date>2026-07-20T08:55:10.237526</dc:date>
    <dc:format>image/svg+xml</dc:format>
    <dc:creator>
     <cc:Agent>
      <dc:title>Matplotlib v3.11.1, https://matplotlib.org/</dc:title>
     </cc:Agent>
    </dc:creator>
   </cc:Work>
  </rdf:RDF>
 </metadata>
 <defs>
  <style type="text/css">*{stroke-linejoin: round; stroke-linecap: butt}</style>
 </defs>
 <g id="figure_1">
  <g id="patch_1">
   <path d="M 0 389.632212 
L 928.448359 389.632212 
L 928.448359 0 
L 0 0 
z
" style="fill: #0d1117"/>
  </g>
  <g id="axes_1">
   <g id="patch_2">
    <path d="M 53.288359 366.431431 
L 921.248359 366.431431 
L 921.248359 43.069718 
L 53.288359 43.069718 
z
" style="fill: #0d1117"/>
   </g>
   <g id="matplotlib.axis_1">
    <g id="xtick_1">
     <g id="line2d_1"/>
     <g id="text_1">
      <!-- Jan 2026 -->
      <g style="fill: #8b949e" transform="translate(39.775896 380.029087) scale(0.1 -0.1)">
       <defs>
        <path id="DejaVuSans-2d" d="M 628 4666 
L 1259 4666 
L 1259 325 
Q 1259 -519 939 -900 
Q 619 -1281 -91 -1281 
L -331 -1281 
L -331 -750 
L -134 -750 
Q 284 -750 456 -515 
Q 628 -281 628 325 
L 628 4666 
z
" transform="scale(0.015625)"/>
        <path id="DejaVuSans-44" d="M 2194 1759 
Q 1497 1759 1228 1600 
Q 959 1441 959 1056 
Q 959 750 1161 570 
Q 1363 391 1709 391 
Q 2188 391 2477 730 
Q 2766 1069 2766 1631 
L 2766 1759 
L 2194 1759 
z
M 3341 1997 
L 3341 0 
L 2766 0 
L 2766 531 
Q 2569 213 2275 61 
Q 1981 -91 1556 -91 
Q 1019 -91 701 211 
Q 384 513 384 1019 
Q 384 1609 779 1909 
Q 1175 2209 1959 2209 
L 2766 2209 
L 2766 2266 
Q 2766 2663 2505 2880 
Q 2244 3097 1772 3097 
Q 1472 3097 1187 3025 
Q 903 2953 641 2809 
L 641 3341 
Q 956 3463 1253 3523 
Q 1550 3584 1831 3584 
Q 2591 3584 2966 3190 
Q 3341 2797 3341 1997 
z
" transform="scale(0.015625)"/>
        <path id="DejaVuSans-51" d="M 3513 2113 
L 3513 0 
L 2938 0 
L 2938 2094 
Q 2938 2591 2744 2837 
Q 2550 3084 2163 3084 
Q 1697 3084 1428 2787 
Q 1159 2491 1159 1978 
L 1159 0 
L 581 0 
L 581 3500 
L 1159 3500 
L 1159 2956 
Q 1366 3272 1645 3428 
Q 1925 3584 2291 3584 
Q 2894 3584 3203 3211 
Q 3513 2838 3513 2113 
z
" transform="scale(0.015625)"/>
        <path id="DejaVuSans-3" transform="scale(0.015625)"/>
        <path id="DejaVuSans-15" d="M 1228 531 
L 3431 531 
L 3431 0 
L 469 0 
L 469 531 
Q 828 903 1448 1529 
Q 2069 2156 2228 2338 
Q 2531 2678 2651 2914 
Q 2772 3150 2772 3378 
Q 2772 3750 2511 3984 
Q 2250 4219 1831 4219 
Q 1534 4219 1204 4116 
Q 875 4013 500 3803 
L 500 4441 
Q 881 4594 1212 4672 
Q 1544 4750 1819 4750 
Q 2544 4750 2975 4387 
Q 3406 4025 3406 3419 
Q 3406 3131 3298 2873 
Q 3191 2616 2906 2266 
Q 2828 2175 2409 1742 
Q 1991 1309 1228 531 
z
" transform="scale(0.015625)"/>
        <path id="DejaVuSans-13" d="M 2034 4250 
Q 1547 4250 1301 3770 
Q 1056 3291 1056 2328 
Q 1056 1369 1301 889 
Q 1547 409 2034 409 
Q 2525 409 2770 889 
Q 3016 1369 3016 2328 
Q 3016 3291 2770 3770 
Q 2525 4250 2034 4250 
z
M 2034 4750 
Q 2819 4750 3233 4129 
Q 3647 3509 3647 2328 
Q 3647 1150 3233 529 
Q 2819 -91 2034 -91 
Q 1250 -91 836 529 
Q 422 1150 422 2328 
Q 422 3509 836 4129 
Q 1250 4750 2034 4750 
z
" transform="scale(0.015625)"/>
        <path id="DejaVuSans-19" d="M 2113 2584 
Q 1688 2584 1439 2293 
Q 1191 2003 1191 1497 
Q 1191 994 1439 701 
Q 1688 409 2113 409 
Q 2538 409 2786 701 
Q 3034 994 3034 1497 
Q 3034 2003 2786 2293 
Q 2538 2584 2113 2584 
z
M 3366 4563 
L 3366 3988 
Q 3128 4100 2886 4159 
Q 2644 4219 2406 4219 
Q 1781 4219 1451 3797 
Q 1122 3375 1075 2522 
Q 1259 2794 1537 2939 
Q 1816 3084 2150 3084 
Q 2853 3084 3261 2657 
Q 3669 2231 3669 1497 
Q 3669 778 3244 343 
Q 2819 -91 2113 -91 
Q 1303 -91 875 529 
Q 447 1150 447 2328 
Q 447 3434 972 4092 
Q 1497 4750 2381 4750 
Q 2619 4750 2861 4703 
Q 3103 4656 3366 4563 
z
" transform="scale(0.015625)"/>
       </defs>
       <use xlink:href="#DejaVuSans-2d"/>
       <use xlink:href="#DejaVuSans-44" transform="translate(29.5 0)"/>
       <use xlink:href="#DejaVuSans-51" transform="translate(90.78125 0)"/>
       <use xlink:href="#DejaVuSans-3" transform="translate(154.15625 0)"/>
       <use xlink:href="#DejaVuSans-15" transform="translate(185.9375 0)"/>
       <use xlink:href="#DejaVuSans-13" transform="translate(249.5625 0)"/>
       <use xlink:href="#DejaVuSans-15" transform="translate(313.1875 0)"/>
       <use xlink:href="#DejaVuSans-19" transform="translate(376.8125 0)"/>
      </g>
     </g>
    </g>
    <g id="xtick_2">
     <g id="line2d_2"/>
     <g id="text_2">
      <!-- Feb 2026 -->
      <g style="fill: #8b949e" transform="translate(170.526466 380.029868) scale(0.1 -0.1)">
       <defs>
        <path id="DejaVuSans-29" d="M 628 4666 
L 3309 4666 
L 3309 4134 
L 1259 4134 
L 1259 2759 
L 3109 2759 
L 3109 2228 
L 1259 2228 
L 1259 0 
L 628 0 
L 628 4666 
z
" transform="scale(0.015625)"/>
        <path id="DejaVuSans-48" d="M 3597 1894 
L 3597 1613 
L 953 1613 
Q 991 1019 1311 708 
Q 1631 397 2203 397 
Q 2534 397 2845 478 
Q 3156 559 3463 722 
L 3463 178 
Q 3153 47 2828 -22 
Q 2503 -91 2169 -91 
Q 1331 -91 842 396 
Q 353 884 353 1716 
Q 353 2575 817 3079 
Q 1281 3584 2069 3584 
Q 2775 3584 3186 3129 
Q 3597 2675 3597 1894 
z
M 3022 2063 
Q 3016 2534 2758 2815 
Q 2500 3097 2075 3097 
Q 1594 3097 1305 2825 
Q 1016 2553 972 2059 
L 3022 2063 
z
" transform="scale(0.015625)"/>
        <path id="DejaVuSans-45" d="M 3116 1747 
Q 3116 2381 2855 2742 
Q 2594 3103 2138 3103 
Q 1681 3103 1420 2742 
Q 1159 2381 1159 1747 
Q 1159 1113 1420 752 
Q 1681 391 2138 391 
Q 2594 391 2855 752 
Q 3116 1113 3116 1747 
z
M 1159 2969 
Q 1341 3281 1617 3432 
Q 1894 3584 2278 3584 
Q 2916 3584 3314 3078 
Q 3713 2572 3713 1747 
Q 3713 922 3314 415 
Q 2916 -91 2278 -91 
Q 1894 -91 1617 61 
Q 1341 213 1159 525 
L 1159 0 
L 581 0 
L 581 4863 
L 1159 4863 
L 1159 2969 
z
" transform="scale(0.015625)"/>
       </defs>
       <use xlink:href="#DejaVuSans-29"/>
       <use xlink:href="#DejaVuSans-48" transform="translate(52.046875 0)"/>
       <use xlink:href="#DejaVuSans-45" transform="translate(113.578125 0)"/>
       <use xlink:href="#DejaVuSans-3" transform="translate(177.0625 0)"/>
       <use xlink:href="#DejaVuSans-15" transform="translate(208.84375 0)"/>
       <use xlink:href="#DejaVuSans-13" transform="translate(272.46875 0)"/>
       <use xlink:href="#DejaVuSans-15" transform="translate(336.09375 0)"/>
       <use xlink:href="#DejaVuSans-19" transform="translate(399.71875 0)"/>
      </g>
     </g>
    </g>
    <g id="xtick_3">
     <g id="line2d_3"/>
     <g id="text_3">
      <!-- Mar 2026 -->
      <g style="fill: #8b949e" transform="translate(289.077762 380.029087) scale(0.1 -0.1)">
       <defs>
        <path id="DejaVuSans-30" d="M 628 4666 
L 1569 4666 
L 2759 1491 
L 3956 4666 
L 4897 4666 
L 4897 0 
L 4281 0 
L 4281 4097 
L 3078 897 
L 2444 897 
L 1241 4097 
L 1241 0 
L 628 0 
L 628 4666 
z
" transform="scale(0.015625)"/>
        <path id="DejaVuSans-55" d="M 2631 2963 
Q 2534 3019 2420 3045 
Q 2306 3072 2169 3072 
Q 1681 3072 1420 2755 
Q 1159 2438 1159 1844 
L 1159 0 
L 581 0 
L 581 3500 
L 1159 3500 
L 1159 2956 
Q 1341 3275 1631 3429 
Q 1922 3584 2338 3584 
Q 2397 3584 2469 3576 
Q 2541 3569 2628 3553 
L 2631 2963 
z
" transform="scale(0.015625)"/>
       </defs>
       <use xlink:href="#DejaVuSans-30"/>
       <use xlink:href="#DejaVuSans-44" transform="translate(86.28125 0)"/>
       <use xlink:href="#DejaVuSans-55" transform="translate(147.5625 0)"/>
       <use xlink:href="#DejaVuSans-3" transform="translate(188.671875 0)"/>
       <use xlink:href="#DejaVuSans-15" transform="translate(220.453125 0)"/>
       <use xlink:href="#DejaVuSans-13" transform="translate(284.078125 0)"/>
       <use xlink:href="#DejaVuSans-15" transform="translate(347.703125 0)"/>
       <use xlink:href="#DejaVuSans-19" transform="translate(411.328125 0)"/>
      </g>
     </g>
    </g>
    <g id="xtick_4">
     <g id="line2d_4"/>
     <g id="text_4">
      <!-- Apr 2026 -->
      <g style="fill: #8b949e" transform="translate(421.757238 380.029087) scale(0.1 -0.1)">
       <defs>
        <path id="DejaVuSans-24" d="M 2188 4044 
L 1331 1722 
L 3047 1722 
L 2188 4044 
z
M 1831 4666 
L 2547 4666 
L 4325 0 
L 3669 0 
L 3244 1197 
L 1141 1197 
L 716 0 
L 50 0 
L 1831 4666 
z
" transform="scale(0.015625)"/>
        <path id="DejaVuSans-53" d="M 1159 525 
L 1159 -1331 
L 581 -1331 
L 581 3500 
L 1159 3500 
L 1159 2969 
Q 1341 3281 1617 3432 
Q 1894 3584 2278 3584 
Q 2916 3584 3314 3078 
Q 3713 2572 3713 1747 
Q 3713 922 3314 415 
Q 2916 -91 2278 -91 
Q 1894 -91 1617 61 
Q 1341 213 1159 525 
z
M 3116 1747 
Q 3116 2381 2855 2742 
Q 2594 3103 2138 3103 
Q 1681 3103 1420 2742 
Q 1159 2381 1159 1747 
Q 1159 1113 1420 752 
Q 1681 391 2138 391 
Q 2594 391 2855 752 
Q 3116 1113 3116 1747 
z
" transform="scale(0.015625)"/>
       </defs>
       <use xlink:href="#DejaVuSans-24"/>
       <use xlink:href="#DejaVuSans-53" transform="translate(68.40625 0)"/>
       <use xlink:href="#DejaVuSans-55" transform="translate(131.890625 0)"/>
       <use xlink:href="#DejaVuSans-3" transform="translate(173 0)"/>
       <use xlink:href="#DejaVuSans-15" transform="translate(204.78125 0)"/>
       <use xlink:href="#DejaVuSans-13" transform="translate(268.40625 0)"/>
       <use xlink:href="#DejaVuSans-15" transform="translate(332.03125 0)"/>
       <use xlink:href="#DejaVuSans-19" transform="translate(395.65625 0)"/>
      </g>
     </g>
    </g>
    <g id="xtick_5">
     <g id="line2d_5"/>
     <g id="text_5">
      <!-- May 2026 -->
      <g style="fill: #8b949e" transform="translate(547.710915 380.029087) scale(0.1 -0.1)">
       <defs>
        <path id="DejaVuSans-5c" d="M 2059 -325 
Q 1816 -950 1584 -1140 
Q 1353 -1331 966 -1331 
L 506 -1331 
L 506 -850 
L 844 -850 
Q 1081 -850 1212 -737 
Q 1344 -625 1503 -206 
L 1606 56 
L 191 3500 
L 800 3500 
L 1894 763 
L 2988 3500 
L 3597 3500 
L 2059 -325 
z
" transform="scale(0.015625)"/>
       </defs>
       <use xlink:href="#DejaVuSans-30"/>
       <use xlink:href="#DejaVuSans-44" transform="translate(86.28125 0)"/>
       <use xlink:href="#DejaVuSans-5c" transform="translate(147.5625 0)"/>
       <use xlink:href="#DejaVuSans-3" transform="translate(206.75 0)"/>
       <use xlink:href="#DejaVuSans-15" transform="translate(238.53125 0)"/>
       <use xlink:href="#DejaVuSans-13" transform="translate(302.15625 0)"/>
       <use xlink:href="#DejaVuSans-15" transform="translate(365.78125 0)"/>
       <use xlink:href="#DejaVuSans-19" transform="translate(429.40625 0)"/>
      </g>
     </g>
    </g>
    <g id="xtick_6">
     <g id="line2d_6"/>
     <g id="text_6">
      <!-- Jun 2026 -->
      <g style="fill: #8b949e" transform="translate(682.131797 380.029087) scale(0.1 -0.1)">
       <defs>
        <path id="DejaVuSans-58" d="M 544 1381 
L 544 3500 
L 1119 3500 
L 1119 1403 
Q 1119 906 1312 657 
Q 1506 409 1894 409 
Q 2359 409 2629 706 
Q 2900 1003 2900 1516 
L 2900 3500 
L 3475 3500 
L 3475 0 
L 2900 0 
L 2900 538 
Q 2691 219 2414 64 
Q 2138 -91 1772 -91 
Q 1169 -91 856 284 
Q 544 659 544 1381 
z
M 1991 3584 
L 1991 3584 
z
" transform="scale(0.015625)"/>
       </defs>
       <use xlink:href="#DejaVuSans-2d"/>
       <use xlink:href="#DejaVuSans-58" transform="translate(29.5 0)"/>
       <use xlink:href="#DejaVuSans-51" transform="translate(92.875 0)"/>
       <use xlink:href="#DejaVuSans-3" transform="translate(156.25 0)"/>
       <use xlink:href="#DejaVuSans-15" transform="translate(188.03125 0)"/>
       <use xlink:href="#DejaVuSans-13" transform="translate(251.65625 0)"/>
       <use xlink:href="#DejaVuSans-15" transform="translate(315.28125 0)"/>
       <use xlink:href="#DejaVuSans-19" transform="translate(378.90625 0)"/>
      </g>
     </g>
    </g>
    <g id="xtick_7">
     <g id="line2d_7"/>
     <g id="text_7">
      <!-- Jul 2026 -->
      <g style="fill: #8b949e" transform="translate(811.552661 380.029868) scale(0.1 -0.1)">
       <defs>
        <path id="DejaVuSans-4f" d="M 603 4863 
L 1178 4863 
L 1178 0 
L 603 0 
L 603 4863 
z
" transform="scale(0.015625)"/>
       </defs>
       <use xlink:href="#DejaVuSans-2d"/>
       <use xlink:href="#DejaVuSans-58" transform="translate(29.5 0)"/>
       <use xlink:href="#DejaVuSans-4f" transform="translate(92.875 0)"/>
       <use xlink:href="#DejaVuSans-3" transform="translate(120.65625 0)"/>
       <use xlink:href="#DejaVuSans-15" transform="translate(152.4375 0)"/>
       <use xlink:href="#DejaVuSans-13" transform="translate(216.0625 0)"/>
       <use xlink:href="#DejaVuSans-15" transform="translate(279.6875 0)"/>
       <use xlink:href="#DejaVuSans-19" transform="translate(343.3125 0)"/>
      </g>
     </g>
    </g>
    <g id="xtick_8">
     <g id="line2d_8"/>
    </g>
    <g id="xtick_9">
     <g id="line2d_9"/>
    </g>
    <g id="xtick_10">
     <g id="line2d_10"/>
    </g>
    <g id="xtick_11">
     <g id="line2d_11"/>
    </g>
    <g id="xtick_12">
     <g id="line2d_12"/>
    </g>
    <g id="xtick_13">
     <g id="line2d_13"/>
    </g>
    <g id="xtick_14">
     <g id="line2d_14"/>
    </g>
    <g id="xtick_15">
     <g id="line2d_15"/>
    </g>
    <g id="xtick_16">
     <g id="line2d_16"/>
    </g>
    <g id="xtick_17">
     <g id="line2d_17"/>
    </g>
    <g id="xtick_18">
     <g id="line2d_18"/>
    </g>
    <g id="xtick_19">
     <g id="line2d_19"/>
    </g>
    <g id="xtick_20">
     <g id="line2d_20"/>
    </g>
    <g id="xtick_21">
     <g id="line2d_21"/>
    </g>
    <g id="xtick_22">
     <g id="line2d_22"/>
    </g>
    <g id="xtick_23">
     <g id="line2d_23"/>
    </g>
    <g id="xtick_24">
     <g id="line2d_24"/>
    </g>
    <g id="xtick_25">
     <g id="line2d_25"/>
    </g>
    <g id="xtick_26">
     <g id="line2d_26"/>
    </g>
    <g id="xtick_27">
     <g id="line2d_27"/>
    </g>
    <g id="xtick_28">
     <g id="line2d_28"/>
    </g>
    <g id="xtick_29">
     <g id="line2d_29"/>
    </g>
    <g id="xtick_30">
     <g id="line2d_30"/>
    </g>
    <g id="xtick_31">
     <g id="line2d_31"/>
    </g>
    <g id="xtick_32">
     <g id="line2d_32"/>
    </g>
    <g id="xtick_33">
     <g id="line2d_33"/>
    </g>
    <g id="xtick_34">
     <g id="line2d_34"/>
    </g>
    <g id="xtick_35">
     <g id="line2d_35"/>
    </g>
   </g>
   <g id="matplotlib.axis_2">
    <g id="ytick_1">
     <g id="line2d_36">
      <path d="M 53.288359 366.431431 
L 921.248359 366.431431 
" clip-path="url(#pa216d6067d)" style="fill: none; stroke: #8b949e; stroke-opacity: 0.12; stroke-width: 0.6; stroke-linecap: square"/>
     </g>
     <g id="line2d_37"/>
     <g id="text_8">
      <!-- 0 -->
      <g style="fill: #8b949e" transform="translate(40.925859 370.230259) scale(0.1 -0.1)">
       <use xlink:href="#DejaVuSans-13"/>
      </g>
     </g>
    </g>
    <g id="ytick_2">
     <g id="line2d_38">
      <path d="M 53.288359 330.200427 
L 921.248359 330.200427 
" clip-path="url(#pa216d6067d)" style="fill: none; stroke: #8b949e; stroke-opacity: 0.12; stroke-width: 0.6; stroke-linecap: square"/>
     </g>
     <g id="line2d_39"/>
     <g id="text_9">
      <!-- 20 -->
      <g style="fill: #8b949e" transform="translate(34.563359 333.999255) scale(0.1 -0.1)">
       <use xlink:href="#DejaVuSans-15"/>
       <use xlink:href="#DejaVuSans-13" transform="translate(63.625 0)"/>
      </g>
     </g>
    </g>
    <g id="ytick_3">
     <g id="line2d_40">
      <path d="M 53.288359 293.969422 
L 921.248359 293.969422 
" clip-path="url(#pa216d6067d)" style="fill: none; stroke: #8b949e; stroke-opacity: 0.12; stroke-width: 0.6; stroke-linecap: square"/>
     </g>
     <g id="line2d_41"/>
     <g id="text_10">
      <!-- 40 -->
      <g style="fill: #8b949e" transform="translate(34.563359 297.76825) scale(0.1 -0.1)">
       <defs>
        <path id="DejaVuSans-17" d="M 2419 4116 
L 825 1625 
L 2419 1625 
L 2419 4116 
z
M 2253 4666 
L 3047 4666 
L 3047 1625 
L 3713 1625 
L 3713 1100 
L 3047 1100 
L 3047 0 
L 2419 0 
L 2419 1100 
L 313 1100 
L 313 1709 
L 2253 4666 
z
" transform="scale(0.015625)"/>
       </defs>
       <use xlink:href="#DejaVuSans-17"/>
       <use xlink:href="#DejaVuSans-13" transform="translate(63.625 0)"/>
      </g>
     </g>
    </g>
    <g id="ytick_4">
     <g id="line2d_42">
      <path d="M 53.288359 257.738418 
L 921.248359 257.738418 
" clip-path="url(#pa216d6067d)" style="fill: none; stroke: #8b949e; stroke-opacity: 0.12; stroke-width: 0.6; stroke-linecap: square"/>
     </g>
     <g id="line2d_43"/>
     <g id="text_11">
      <!-- 60 -->
      <g style="fill: #8b949e" transform="translate(34.563359 261.537246) scale(0.1 -0.1)">
       <use xlink:href="#DejaVuSans-19"/>
       <use xlink:href="#DejaVuSans-13" transform="translate(63.625 0)"/>
      </g>
     </g>
    </g>
    <g id="ytick_5">
     <g id="line2d_44">
      <path d="M 53.288359 221.507414 
L 921.248359 221.507414 
" clip-path="url(#pa216d6067d)" style="fill: none; stroke: #8b949e; stroke-opacity: 0.12; stroke-width: 0.6; stroke-linecap: square"/>
     </g>
     <g id="line2d_45"/>
     <g id="text_12">
      <!-- 80 -->
      <g style="fill: #8b949e" transform="translate(34.563359 225.306242) scale(0.1 -0.1)">
       <defs>
        <path id="DejaVuSans-1b" d="M 2034 2216 
Q 1584 2216 1326 1975 
Q 1069 1734 1069 1313 
Q 1069 891 1326 650 
Q 1584 409 2034 409 
Q 2484 409 2743 651 
Q 3003 894 3003 1313 
Q 3003 1734 2745 1975 
Q 2488 2216 2034 2216 
z
M 1403 2484 
Q 997 2584 770 2862 
Q 544 3141 544 3541 
Q 544 4100 942 4425 
Q 1341 4750 2034 4750 
Q 2731 4750 3128 4425 
Q 3525 4100 3525 3541 
Q 3525 3141 3298 2862 
Q 3072 2584 2669 2484 
Q 3125 2378 3379 2068 
Q 3634 1759 3634 1313 
Q 3634 634 3220 271 
Q 2806 -91 2034 -91 
Q 1263 -91 848 271 
Q 434 634 434 1313 
Q 434 1759 690 2068 
Q 947 2378 1403 2484 
z
M 1172 3481 
Q 1172 3119 1398 2916 
Q 1625 2713 2034 2713 
Q 2441 2713 2670 2916 
Q 2900 3119 2900 3481 
Q 2900 3844 2670 4047 
Q 2441 4250 2034 4250 
Q 1625 4250 1398 4047 
Q 1172 3844 1172 3481 
z
" transform="scale(0.015625)"/>
       </defs>
       <use xlink:href="#DejaVuSans-1b"/>
       <use xlink:href="#DejaVuSans-13" transform="translate(63.625 0)"/>
      </g>
     </g>
    </g>
    <g id="ytick_6">
     <g id="line2d_46">
      <path d="M 53.288359 185.27641 
L 921.248359 185.27641 
" clip-path="url(#pa216d6067d)" style="fill: none; stroke: #8b949e; stroke-opacity: 0.12; stroke-width: 0.6; stroke-linecap: square"/>
     </g>
     <g id="line2d_47"/>
     <g id="text_13">
      <!-- 100 -->
      <g style="fill: #8b949e" transform="translate(28.200859 189.075238) scale(0.1 -0.1)">
       <defs>
        <path id="DejaVuSans-14" d="M 794 531 
L 1825 531 
L 1825 4091 
L 703 3866 
L 703 4441 
L 1819 4666 
L 2450 4666 
L 2450 531 
L 3481 531 
L 3481 0 
L 794 0 
L 794 531 
z
" transform="scale(0.015625)"/>
       </defs>
       <use xlink:href="#DejaVuSans-14"/>
       <use xlink:href="#DejaVuSans-13" transform="translate(63.625 0)"/>
       <use xlink:href="#DejaVuSans-13" transform="translate(127.25 0)"/>
      </g>
     </g>
    </g>
    <g id="ytick_7">
     <g id="line2d_48">
      <path d="M 53.288359 149.045406 
L 921.248359 149.045406 
" clip-path="url(#pa216d6067d)" style="fill: none; stroke: #8b949e; stroke-opacity: 0.12; stroke-width: 0.6; stroke-linecap: square"/>
     </g>
     <g id="line2d_49"/>
     <g id="text_14">
      <!-- 120 -->
      <g style="fill: #8b949e" transform="translate(28.200859 152.844234) scale(0.1 -0.1)">
       <use xlink:href="#DejaVuSans-14"/>
       <use xlink:href="#DejaVuSans-15" transform="translate(63.625 0)"/>
       <use xlink:href="#DejaVuSans-13" transform="translate(127.25 0)"/>
      </g>
     </g>
    </g>
    <g id="ytick_8">
     <g id="line2d_50">
      <path d="M 53.288359 112.814401 
L 921.248359 112.814401 
" clip-path="url(#pa216d6067d)" style="fill: none; stroke: #8b949e; stroke-opacity: 0.12; stroke-width: 0.6; stroke-linecap: square"/>
     </g>
     <g id="line2d_51"/>
     <g id="text_15">
      <!-- 140 -->
      <g style="fill: #8b949e" transform="translate(28.200859 116.613229) scale(0.1 -0.1)">
       <use xlink:href="#DejaVuSans-14"/>
       <use xlink:href="#DejaVuSans-17" transform="translate(63.625 0)"/>
       <use xlink:href="#DejaVuSans-13" transform="translate(127.25 0)"/>
      </g>
     </g>
    </g>
    <g id="ytick_9">
     <g id="line2d_52">
      <path d="M 53.288359 76.583397 
L 921.248359 76.583397 
" clip-path="url(#pa216d6067d)" style="fill: none; stroke: #8b949e; stroke-opacity: 0.12; stroke-width: 0.6; stroke-linecap: square"/>
     </g>
     <g id="line2d_53"/>
     <g id="text_16">
      <!-- 160 -->
      <g style="fill: #8b949e" transform="translate(28.200859 80.382225) scale(0.1 -0.1)">
       <use xlink:href="#DejaVuSans-14"/>
       <use xlink:href="#DejaVuSans-19" transform="translate(63.625 0)"/>
       <use xlink:href="#DejaVuSans-13" transform="translate(127.25 0)"/>
      </g>
     </g>
    </g>
    <g id="text_17">
     <!-- Contributions -->
     <g style="fill: #8b949e" transform="translate(15.558281 241.764715) rotate(-90) scale(0.11 -0.11)">
      <defs>
       <path id="DejaVuSans-26" d="M 4122 4306 
L 4122 3641 
Q 3803 3938 3442 4084 
Q 3081 4231 2675 4231 
Q 1875 4231 1450 3742 
Q 1025 3253 1025 2328 
Q 1025 1406 1450 917 
Q 1875 428 2675 428 
Q 3081 428 3442 575 
Q 3803 722 4122 1019 
L 4122 359 
Q 3791 134 3420 21 
Q 3050 -91 2638 -91 
Q 1578 -91 968 557 
Q 359 1206 359 2328 
Q 359 3453 968 4101 
Q 1578 4750 2638 4750 
Q 3056 4750 3426 4639 
Q 3797 4528 4122 4306 
z
" transform="scale(0.015625)"/>
       <path id="DejaVuSans-52" d="M 1959 3097 
Q 1497 3097 1228 2736 
Q 959 2375 959 1747 
Q 959 1119 1226 758 
Q 1494 397 1959 397 
Q 2419 397 2687 759 
Q 2956 1122 2956 1747 
Q 2956 2369 2687 2733 
Q 2419 3097 1959 3097 
z
M 1959 3584 
Q 2709 3584 3137 3096 
Q 3566 2609 3566 1747 
Q 3566 888 3137 398 
Q 2709 -91 1959 -91 
Q 1206 -91 779 398 
Q 353 888 353 1747 
Q 353 2609 779 3096 
Q 1206 3584 1959 3584 
z
" transform="scale(0.015625)"/>
       <path id="DejaVuSans-57" d="M 1172 4494 
L 1172 3500 
L 2356 3500 
L 2356 3053 
L 1172 3053 
L 1172 1153 
Q 1172 725 1289 603 
Q 1406 481 1766 481 
L 2356 481 
L 2356 0 
L 1766 0 
Q 1100 0 847 248 
Q 594 497 594 1153 
L 594 3053 
L 172 3053 
L 172 3500 
L 594 3500 
L 594 4494 
L 1172 4494 
z
" transform="scale(0.015625)"/>
       <path id="DejaVuSans-4c" d="M 603 3500 
L 1178 3500 
L 1178 0 
L 603 0 
L 603 3500 
z
M 603 4863 
L 1178 4863 
L 1178 4134 
L 603 4134 
L 603 4863 
z
" transform="scale(0.015625)"/>
       <path id="DejaVuSans-56" d="M 2834 3397 
L 2834 2853 
Q 2591 2978 2328 3040 
Q 2066 3103 1784 3103 
Q 1356 3103 1142 2972 
Q 928 2841 928 2578 
Q 928 2378 1081 2264 
Q 1234 2150 1697 2047 
L 1894 2003 
Q 2506 1872 2764 1633 
Q 3022 1394 3022 966 
Q 3022 478 2636 193 
Q 2250 -91 1575 -91 
Q 1294 -91 989 -36 
Q 684 19 347 128 
L 347 722 
Q 666 556 975 473 
Q 1284 391 1588 391 
Q 1994 391 2212 530 
Q 2431 669 2431 922 
Q 2431 1156 2273 1281 
Q 2116 1406 1581 1522 
L 1381 1569 
Q 847 1681 609 1914 
Q 372 2147 372 2553 
Q 372 3047 722 3315 
Q 1072 3584 1716 3584 
Q 2034 3584 2315 3537 
Q 2597 3491 2834 3397 
z
" transform="scale(0.015625)"/>
      </defs>
      <use xlink:href="#DejaVuSans-26"/>
      <use xlink:href="#DejaVuSans-52" transform="translate(69.828125 0)"/>
      <use xlink:href="#DejaVuSans-51" transform="translate(131.015625 0)"/>
      <use xlink:href="#DejaVuSans-57" transform="translate(194.390625 0)"/>
      <use xlink:href="#DejaVuSans-55" transform="translate(233.59375 0)"/>
      <use xlink:href="#DejaVuSans-4c" transform="translate(274.703125 0)"/>
      <use xlink:href="#DejaVuSans-45" transform="translate(302.484375 0)"/>
      <use xlink:href="#DejaVuSans-58" transform="translate(365.96875 0)"/>
      <use xlink:href="#DejaVuSans-57" transform="translate(429.34375 0)"/>
      <use xlink:href="#DejaVuSans-4c" transform="translate(468.546875 0)"/>
      <use xlink:href="#DejaVuSans-52" transform="translate(496.328125 0)"/>
      <use xlink:href="#DejaVuSans-51" transform="translate(557.515625 0)"/>
      <use xlink:href="#DejaVuSans-56" transform="translate(620.890625 0)"/>
     </g>
    </g>
   </g>
   <g id="FillBetweenPolyCollection_1">
    <defs>
     <path id="ma820cb99a8" d="M 61.797771 -23.200781 
L 61.797771 -23.200781 
L 66.052477 -23.200781 
L 70.307183 -23.200781 
L 74.561889 -23.200781 
L 78.816595 -23.200781 
L 83.071301 -23.200781 
L 87.326006 -23.200781 
L 91.580712 -23.200781 
L 95.835418 -23.200781 
L 100.090124 -23.200781 
L 104.34483 -23.200781 
L 108.599536 -23.200781 
L 112.854242 -23.200781 
L 117.108948 -23.200781 
L 121.363653 -23.200781 
L 125.618359 -23.200781 
L 129.873065 -23.200781 
L 134.127771 -23.200781 
L 138.382477 -23.200781 
L 142.637183 -23.200781 
L 146.891889 -23.200781 
L 151.146595 -23.200781 
L 155.401301 -23.200781 
L 159.656006 -23.200781 
L 163.910712 -23.200781 
L 168.165418 -23.200781 
L 172.420124 -23.200781 
L 176.67483 -23.200781 
L 180.929536 -23.200781 
L 185.184242 -23.200781 
L 189.438948 -23.200781 
L 193.693653 -23.200781 
L 197.948359 -23.200781 
L 202.203065 -23.200781 
L 206.457771 -23.200781 
L 210.712477 -23.200781 
L 214.967183 -23.200781 
L 219.221889 -23.200781 
L 223.476595 -23.200781 
L 227.731301 -23.200781 
L 231.986006 -23.200781 
L 236.240712 -23.200781 
L 240.495418 -23.200781 
L 244.750124 -23.200781 
L 249.00483 -23.200781 
L 253.259536 -23.200781 
L 257.514242 -23.200781 
L 261.768948 -23.200781 
L 266.023653 -23.200781 
L 270.278359 -23.200781 
L 274.533065 -23.200781 
L 278.787771 -23.200781 
L 283.042477 -23.200781 
L 287.297183 -23.200781 
L 291.551889 -23.200781 
L 295.806595 -23.200781 
L 300.061301 -23.200781 
L 304.316006 -23.200781 
L 308.570712 -23.200781 
L 312.825418 -23.200781 
L 317.080124 -23.200781 
L 321.33483 -23.200781 
L 325.589536 -23.200781 
L 329.844242 -23.200781 
L 334.098948 -23.200781 
L 338.353653 -23.200781 
L 342.608359 -26.823882 
L 346.863065 -23.200781 
L 351.117771 -23.200781 
L 355.372477 -23.200781 
L 359.627183 -23.200781 
L 363.881889 -23.200781 
L 368.136595 -25.012331 
L 372.391301 -23.200781 
L 376.646006 -35.881633 
L 380.900712 -72.112637 
L 385.155418 -63.054886 
L 389.410124 -25.012331 
L 393.66483 -23.200781 
L 397.919536 -26.823882 
L 402.174242 -23.200781 
L 406.428948 -23.200781 
L 410.683653 -32.258532 
L 414.938359 -23.200781 
L 419.193065 -44.939384 
L 423.447771 -75.735737 
L 427.702477 -75.735737 
L 431.957183 -46.750934 
L 436.211889 -178.994099 
L 440.466595 -104.720541 
L 444.721301 -142.763095 
L 448.976006 -86.605039 
L 453.230712 -53.997135 
L 457.485418 -23.200781 
L 461.740124 -32.258532 
L 465.99483 -177.182549 
L 470.249536 -209.790453 
L 474.504242 -289.498662 
L 478.758948 -92.039689 
L 483.013653 -52.185585 
L 487.268359 -81.170388 
L 491.523065 -72.112637 
L 495.777771 -200.732702 
L 500.032477 -146.386196 
L 504.287183 -131.893794 
L 508.541889 -121.024493 
L 512.796595 -166.313248 
L 517.051301 -23.200781 
L 521.306006 -86.605039 
L 525.560712 -164.501698 
L 529.815418 -168.124798 
L 534.070124 -110.155191 
L 538.32483 -90.228139 
L 542.579536 -111.966742 
L 546.834242 -84.793488 
L 551.088948 -70.301087 
L 555.343653 -61.243336 
L 559.598359 -35.881633 
L 563.853065 -28.635432 
L 568.107771 -23.200781 
L 572.362477 -23.200781 
L 576.617183 -25.012331 
L 580.871889 -25.012331 
L 585.126595 -77.547288 
L 589.381301 -106.532091 
L 593.636006 -128.270693 
L 597.890712 -111.966742 
L 602.145418 -121.024493 
L 606.400124 -61.243336 
L 610.65483 -81.170388 
L 614.909536 -119.212942 
L 619.164242 -32.258532 
L 623.418948 -30.446982 
L 627.673653 -63.054886 
L 631.928359 -63.054886 
L 636.183065 -77.547288 
L 640.437771 -43.127834 
L 644.692477 -93.851239 
L 648.947183 -113.778292 
L 653.201889 -131.893794 
L 657.456595 -48.562484 
L 661.711301 -206.167352 
L 665.966006 -108.343641 
L 670.220712 -88.416589 
L 674.475418 -177.182549 
L 678.730124 -139.139995 
L 682.98483 -148.197746 
L 687.239536 -140.951545 
L 691.494242 -99.28589 
L 695.748948 -25.012331 
L 700.003653 -26.823882 
L 704.258359 -104.720541 
L 708.513065 -122.836043 
L 712.767771 -75.735737 
L 717.022477 -108.343641 
L 721.277183 -73.924187 
L 725.531889 -25.012331 
L 729.786595 -23.200781 
L 734.041301 -61.243336 
L 738.296006 -142.763095 
L 742.550712 -186.2403 
L 746.805418 -331.164317 
L 751.060124 -305.802614 
L 755.31483 -86.605039 
L 759.569536 -61.243336 
L 763.824242 -124.647593 
L 768.078948 -133.705344 
L 772.333653 -75.735737 
L 776.588359 -79.358838 
L 780.843065 -115.589842 
L 785.097771 -73.924187 
L 789.352477 -50.374034 
L 793.607183 -131.893794 
L 797.861889 -72.112637 
L 802.116595 -81.170388 
L 806.371301 -55.808685 
L 810.626006 -50.374034 
L 814.880712 -23.200781 
L 819.135418 -23.200781 
L 823.390124 -23.200781 
L 827.64483 -63.054886 
L 831.899536 -202.544252 
L 836.154242 -260.513859 
L 840.408948 -61.243336 
L 844.663653 -240.586806 
L 848.918359 -178.994099 
L 853.173065 -191.674951 
L 857.427771 -204.355802 
L 861.682477 -142.763095 
L 865.937183 -140.951545 
L 870.191889 -182.6172 
L 874.446595 -93.851239 
L 878.701301 -95.66279 
L 882.956006 -117.401392 
L 887.210712 -46.750934 
L 891.465418 -23.200781 
L 895.720124 -43.127834 
L 899.97483 -101.09744 
L 904.229536 -25.012331 
L 908.484242 -23.200781 
L 912.738948 -23.200781 
L 912.738948 -23.200781 
L 912.738948 -23.200781 
L 908.484242 -23.200781 
L 904.229536 -23.200781 
L 899.97483 -23.200781 
L 895.720124 -23.200781 
L 891.465418 -23.200781 
L 887.210712 -23.200781 
L 882.956006 -23.200781 
L 878.701301 -23.200781 
L 874.446595 -23.200781 
L 870.191889 -23.200781 
L 865.937183 -23.200781 
L 861.682477 -23.200781 
L 857.427771 -23.200781 
L 853.173065 -23.200781 
L 848.918359 -23.200781 
L 844.663653 -23.200781 
L 840.408948 -23.200781 
L 836.154242 -23.200781 
L 831.899536 -23.200781 
L 827.64483 -23.200781 
L 823.390124 -23.200781 
L 819.135418 -23.200781 
L 814.880712 -23.200781 
L 810.626006 -23.200781 
L 806.371301 -23.200781 
L 802.116595 -23.200781 
L 797.861889 -23.200781 
L 793.607183 -23.200781 
L 789.352477 -23.200781 
L 785.097771 -23.200781 
L 780.843065 -23.200781 
L 776.588359 -23.200781 
L 772.333653 -23.200781 
L 768.078948 -23.200781 
L 763.824242 -23.200781 
L 759.569536 -23.200781 
L 755.31483 -23.200781 
L 751.060124 -23.200781 
L 746.805418 -23.200781 
L 742.550712 -23.200781 
L 738.296006 -23.200781 
L 734.041301 -23.200781 
L 729.786595 -23.200781 
L 725.531889 -23.200781 
L 721.277183 -23.200781 
L 717.022477 -23.200781 
L 712.767771 -23.200781 
L 708.513065 -23.200781 
L 704.258359 -23.200781 
L 700.003653 -23.200781 
L 695.748948 -23.200781 
L 691.494242 -23.200781 
L 687.239536 -23.200781 
L 682.98483 -23.200781 
L 678.730124 -23.200781 
L 674.475418 -23.200781 
L 670.220712 -23.200781 
L 665.966006 -23.200781 
L 661.711301 -23.200781 
L 657.456595 -23.200781 
L 653.201889 -23.200781 
L 648.947183 -23.200781 
L 644.692477 -23.200781 
L 640.437771 -23.200781 
L 636.183065 -23.200781 
L 631.928359 -23.200781 
L 627.673653 -23.200781 
L 623.418948 -23.200781 
L 619.164242 -23.200781 
L 614.909536 -23.200781 
L 610.65483 -23.200781 
L 606.400124 -23.200781 
L 602.145418 -23.200781 
L 597.890712 -23.200781 
L 593.636006 -23.200781 
L 589.381301 -23.200781 
L 585.126595 -23.200781 
L 580.871889 -23.200781 
L 576.617183 -23.200781 
L 572.362477 -23.200781 
L 568.107771 -23.200781 
L 563.853065 -23.200781 
L 559.598359 -23.200781 
L 555.343653 -23.200781 
L 551.088948 -23.200781 
L 546.834242 -23.200781 
L 542.579536 -23.200781 
L 538.32483 -23.200781 
L 534.070124 -23.200781 
L 529.815418 -23.200781 
L 525.560712 -23.200781 
L 521.306006 -23.200781 
L 517.051301 -23.200781 
L 512.796595 -23.200781 
L 508.541889 -23.200781 
L 504.287183 -23.200781 
L 500.032477 -23.200781 
L 495.777771 -23.200781 
L 491.523065 -23.200781 
L 487.268359 -23.200781 
L 483.013653 -23.200781 
L 478.758948 -23.200781 
L 474.504242 -23.200781 
L 470.249536 -23.200781 
L 465.99483 -23.200781 
L 461.740124 -23.200781 
L 457.485418 -23.200781 
L 453.230712 -23.200781 
L 448.976006 -23.200781 
L 444.721301 -23.200781 
L 440.466595 -23.200781 
L 436.211889 -23.200781 
L 431.957183 -23.200781 
L 427.702477 -23.200781 
L 423.447771 -23.200781 
L 419.193065 -23.200781 
L 414.938359 -23.200781 
L 410.683653 -23.200781 
L 406.428948 -23.200781 
L 402.174242 -23.200781 
L 397.919536 -23.200781 
L 393.66483 -23.200781 
L 389.410124 -23.200781 
L 385.155418 -23.200781 
L 380.900712 -23.200781 
L 376.646006 -23.200781 
L 372.391301 -23.200781 
L 368.136595 -23.200781 
L 363.881889 -23.200781 
L 359.627183 -23.200781 
L 355.372477 -23.200781 
L 351.117771 -23.200781 
L 346.863065 -23.200781 
L 342.608359 -23.200781 
L 338.353653 -23.200781 
L 334.098948 -23.200781 
L 329.844242 -23.200781 
L 325.589536 -23.200781 
L 321.33483 -23.200781 
L 317.080124 -23.200781 
L 312.825418 -23.200781 
L 308.570712 -23.200781 
L 304.316006 -23.200781 
L 300.061301 -23.200781 
L 295.806595 -23.200781 
L 291.551889 -23.200781 
L 287.297183 -23.200781 
L 283.042477 -23.200781 
L 278.787771 -23.200781 
L 274.533065 -23.200781 
L 270.278359 -23.200781 
L 266.023653 -23.200781 
L 261.768948 -23.200781 
L 257.514242 -23.200781 
L 253.259536 -23.200781 
L 249.00483 -23.200781 
L 244.750124 -23.200781 
L 240.495418 -23.200781 
L 236.240712 -23.200781 
L 231.986006 -23.200781 
L 227.731301 -23.200781 
L 223.476595 -23.200781 
L 219.221889 -23.200781 
L 214.967183 -23.200781 
L 210.712477 -23.200781 
L 206.457771 -23.200781 
L 202.203065 -23.200781 
L 197.948359 -23.200781 
L 193.693653 -23.200781 
L 189.438948 -23.200781 
L 185.184242 -23.200781 
L 180.929536 -23.200781 
L 176.67483 -23.200781 
L 172.420124 -23.200781 
L 168.165418 -23.200781 
L 163.910712 -23.200781 
L 159.656006 -23.200781 
L 155.401301 -23.200781 
L 151.146595 -23.200781 
L 146.891889 -23.200781 
L 142.637183 -23.200781 
L 138.382477 -23.200781 
L 134.127771 -23.200781 
L 129.873065 -23.200781 
L 125.618359 -23.200781 
L 121.363653 -23.200781 
L 117.108948 -23.200781 
L 112.854242 -23.200781 
L 108.599536 -23.200781 
L 104.34483 -23.200781 
L 100.090124 -23.200781 
L 95.835418 -23.200781 
L 91.580712 -23.200781 
L 87.326006 -23.200781 
L 83.071301 -23.200781 
L 78.816595 -23.200781 
L 74.561889 -23.200781 
L 70.307183 -23.200781 
L 66.052477 -23.200781 
L 61.797771 -23.200781 
z
"/>
    </defs>
    <g clip-path="url(#pa216d6067d)">
     <use xlink:href="#ma820cb99a8" x="0" y="389.632212" style="fill: #f97316; fill-opacity: 0.18"/>
    </g>
   </g>
   <g id="line2d_54">
    <path d="M 61.797771 366.431431 
L 338.353653 366.431431 
L 342.608359 362.80833 
L 346.863065 366.431431 
L 363.881889 366.431431 
L 368.136595 364.619881 
L 372.391301 366.431431 
L 376.646006 353.750579 
L 380.900712 317.519575 
L 385.155418 326.577326 
L 389.410124 364.619881 
L 393.66483 366.431431 
L 397.919536 362.80833 
L 402.174242 366.431431 
L 406.428948 366.431431 
L 410.683653 357.37368 
L 414.938359 366.431431 
L 419.193065 344.692828 
L 423.447771 313.896475 
L 427.702477 313.896475 
L 431.957183 342.881278 
L 436.211889 210.638113 
L 440.466595 284.911671 
L 444.721301 246.869117 
L 448.976006 303.027173 
L 453.230712 335.635077 
L 457.485418 366.431431 
L 461.740124 357.37368 
L 465.99483 212.449663 
L 470.249536 179.841759 
L 474.504242 100.13355 
L 478.758948 297.592523 
L 483.013653 337.446627 
L 487.268359 308.461824 
L 491.523065 317.519575 
L 495.777771 188.89951 
L 500.032477 243.246016 
L 504.287183 257.738418 
L 508.541889 268.607719 
L 512.796595 223.318964 
L 517.051301 366.431431 
L 521.306006 303.027173 
L 525.560712 225.130514 
L 529.815418 221.507414 
L 534.070124 279.477021 
L 538.32483 299.404073 
L 542.579536 277.66547 
L 546.834242 304.838724 
L 551.088948 319.331125 
L 555.343653 328.388876 
L 559.598359 353.750579 
L 563.853065 360.99678 
L 568.107771 366.431431 
L 572.362477 366.431431 
L 576.617183 364.619881 
L 580.871889 364.619881 
L 585.126595 312.084924 
L 589.381301 283.100121 
L 593.636006 261.361519 
L 597.890712 277.66547 
L 602.145418 268.607719 
L 606.400124 328.388876 
L 610.65483 308.461824 
L 614.909536 270.41927 
L 619.164242 357.37368 
L 623.418948 359.18523 
L 627.673653 326.577326 
L 631.928359 326.577326 
L 636.183065 312.084924 
L 640.437771 346.504378 
L 644.692477 295.780973 
L 648.947183 275.85392 
L 653.201889 257.738418 
L 657.456595 341.069728 
L 661.711301 183.46486 
L 665.966006 281.288571 
L 670.220712 301.215623 
L 674.475418 212.449663 
L 678.730124 250.492217 
L 682.98483 241.434466 
L 687.239536 248.680667 
L 691.494242 290.346322 
L 695.748948 364.619881 
L 700.003653 362.80833 
L 704.258359 284.911671 
L 708.513065 266.796169 
L 712.767771 313.896475 
L 717.022477 281.288571 
L 721.277183 315.708025 
L 725.531889 364.619881 
L 729.786595 366.431431 
L 734.041301 328.388876 
L 738.296006 246.869117 
L 742.550712 203.391912 
L 746.805418 58.467895 
L 751.060124 83.829598 
L 755.31483 303.027173 
L 759.569536 328.388876 
L 763.824242 264.984619 
L 768.078948 255.926868 
L 772.333653 313.896475 
L 776.588359 310.273374 
L 780.843065 274.04237 
L 785.097771 315.708025 
L 789.352477 339.258178 
L 793.607183 257.738418 
L 797.861889 317.519575 
L 802.116595 308.461824 
L 806.371301 333.823527 
L 810.626006 339.258178 
L 814.880712 366.431431 
L 823.390124 366.431431 
L 827.64483 326.577326 
L 831.899536 187.08796 
L 836.154242 129.118353 
L 840.408948 328.388876 
L 844.663653 149.045406 
L 848.918359 210.638113 
L 857.427771 185.27641 
L 861.682477 246.869117 
L 865.937183 248.680667 
L 870.191889 207.015012 
L 874.446595 295.780973 
L 878.701301 293.969422 
L 882.956006 272.23082 
L 887.210712 342.881278 
L 891.465418 366.431431 
L 895.720124 346.504378 
L 899.97483 288.534772 
L 904.229536 364.619881 
L 908.484242 366.431431 
L 912.738948 366.431431 
L 912.738948 366.431431 
" clip-path="url(#pa216d6067d)" style="fill: none; stroke: #f97316; stroke-width: 2.2; stroke-linecap: round"/>
   </g>
   <g id="text_18">
    <!-- 5,020 commits   ·   peak 170 -->
    <g style="fill: #8b949e" transform="translate(773.163247 14.798437) scale(0.1 -0.1)">
     <defs>
      <path id="DejaVuSans-18" d="M 691 4666 
L 3169 4666 
L 3169 4134 
L 1269 4134 
L 1269 2991 
Q 1406 3038 1543 3061 
Q 1681 3084 1819 3084 
Q 2600 3084 3056 2656 
Q 3513 2228 3513 1497 
Q 3513 744 3044 326 
Q 2575 -91 1722 -91 
Q 1428 -91 1123 -41 
Q 819 9 494 109 
L 494 744 
Q 775 591 1075 516 
Q 1375 441 1709 441 
Q 2250 441 2565 725 
Q 2881 1009 2881 1497 
Q 2881 1984 2565 2268 
Q 2250 2553 1709 2553 
Q 1456 2553 1204 2497 
Q 953 2441 691 2322 
L 691 4666 
z
" transform="scale(0.015625)"/>
      <path id="DejaVuSans-f" d="M 750 794 
L 1409 794 
L 1409 256 
L 897 -744 
L 494 -744 
L 750 256 
L 750 794 
z
" transform="scale(0.015625)"/>
      <path id="DejaVuSans-46" d="M 3122 3366 
L 3122 2828 
Q 2878 2963 2633 3030 
Q 2388 3097 2138 3097 
Q 1578 3097 1268 2742 
Q 959 2388 959 1747 
Q 959 1106 1268 751 
Q 1578 397 2138 397 
Q 2388 397 2633 464 
Q 2878 531 3122 666 
L 3122 134 
Q 2881 22 2623 -34 
Q 2366 -91 2075 -91 
Q 1284 -91 818 406 
Q 353 903 353 1747 
Q 353 2603 823 3093 
Q 1294 3584 2113 3584 
Q 2378 3584 2631 3529 
Q 2884 3475 3122 3366 
z
" transform="scale(0.015625)"/>
      <path id="DejaVuSans-50" d="M 3328 2828 
Q 3544 3216 3844 3400 
Q 4144 3584 4550 3584 
Q 5097 3584 5394 3201 
Q 5691 2819 5691 2113 
L 5691 0 
L 5113 0 
L 5113 2094 
Q 5113 2597 4934 2840 
Q 4756 3084 4391 3084 
Q 3944 3084 3684 2787 
Q 3425 2491 3425 1978 
L 3425 0 
L 2847 0 
L 2847 2094 
Q 2847 2600 2669 2842 
Q 2491 3084 2119 3084 
Q 1678 3084 1418 2786 
Q 1159 2488 1159 1978 
L 1159 0 
L 581 0 
L 581 3500 
L 1159 3500 
L 1159 2956 
Q 1356 3278 1631 3431 
Q 1906 3584 2284 3584 
Q 2666 3584 2933 3390 
Q 3200 3197 3328 2828 
z
" transform="scale(0.015625)"/>
      <path id="DejaVuSans-79" d="M 684 2619 
L 1344 2619 
L 1344 1825 
L 684 1825 
L 684 2619 
z
" transform="scale(0.015625)"/>
      <path id="DejaVuSans-4e" d="M 581 4863 
L 1159 4863 
L 1159 1991 
L 2875 3500 
L 3609 3500 
L 1753 1863 
L 3688 0 
L 2938 0 
L 1159 1709 
L 1159 0 
L 581 0 
L 581 4863 
z
" transform="scale(0.015625)"/>
      <path id="DejaVuSans-1a" d="M 525 4666 
L 3525 4666 
L 3525 4397 
L 1831 0 
L 1172 0 
L 2766 4134 
L 525 4134 
L 525 4666 
z
" transform="scale(0.015625)"/>
     </defs>
     <use xlink:href="#DejaVuSans-18"/>
     <use xlink:href="#DejaVuSans-f" transform="translate(63.625 0)"/>
     <use xlink:href="#DejaVuSans-13" transform="translate(95.40625 0)"/>
     <use xlink:href="#DejaVuSans-15" transform="translate(159.03125 0)"/>
     <use xlink:href="#DejaVuSans-13" transform="translate(222.65625 0)"/>
     <use xlink:href="#DejaVuSans-3" transform="translate(286.28125 0)"/>
     <use xlink:href="#DejaVuSans-46" transform="translate(318.0625 0)"/>
     <use xlink:href="#DejaVuSans-52" transform="translate(373.046875 0)"/>
     <use xlink:href="#DejaVuSans-50" transform="translate(434.234375 0)"/>
     <use xlink:href="#DejaVuSans-50" transform="translate(531.640625 0)"/>
     <use xlink:href="#DejaVuSans-4c" transform="translate(629.046875 0)"/>
     <use xlink:href="#DejaVuSans-57" transform="translate(656.828125 0)"/>
     <use xlink:href="#DejaVuSans-56" transform="translate(696.03125 0)"/>
     <use xlink:href="#DejaVuSans-3" transform="translate(748.125 0)"/>
     <use xlink:href="#DejaVuSans-3" transform="translate(779.90625 0)"/>
     <use xlink:href="#DejaVuSans-3" transform="translate(811.6875 0)"/>
     <use xlink:href="#DejaVuSans-79" transform="translate(843.46875 0)"/>
     <use xlink:href="#DejaVuSans-3" transform="translate(875.25 0)"/>
     <use xlink:href="#DejaVuSans-3" transform="translate(907.03125 0)"/>
     <use xlink:href="#DejaVuSans-3" transform="translate(938.8125 0)"/>
     <use xlink:href="#DejaVuSans-53" transform="translate(970.59375 0)"/>
     <use xlink:href="#DejaVuSans-48" transform="translate(1034.078125 0)"/>
     <use xlink:href="#DejaVuSans-44" transform="translate(1095.609375 0)"/>
     <use xlink:href="#DejaVuSans-4e" transform="translate(1156.890625 0)"/>
     <use xlink:href="#DejaVuSans-3" transform="translate(1214.796875 0)"/>
     <use xlink:href="#DejaVuSans-14" transform="translate(1246.578125 0)"/>
     <use xlink:href="#DejaVuSans-1a" transform="translate(1310.203125 0)"/>
     <use xlink:href="#DejaVuSans-13" transform="translate(1373.828125 0)"/>
    </g>
   </g>
   <g id="text_19">
    <!-- Commit Activity · 2026 YTD -->
    <g style="fill: #c9d1d9" transform="translate(53.288359 25.069718) scale(0.16 -0.16)">
     <defs>
      <path id="DejaVuSans-Bold-26" d="M 4288 256 
Q 3956 84 3597 -3 
Q 3238 -91 2847 -91 
Q 1681 -91 1000 561 
Q 319 1213 319 2328 
Q 319 3447 1000 4098 
Q 1681 4750 2847 4750 
Q 3238 4750 3597 4662 
Q 3956 4575 4288 4403 
L 4288 3438 
Q 3953 3666 3628 3772 
Q 3303 3878 2944 3878 
Q 2300 3878 1931 3465 
Q 1563 3053 1563 2328 
Q 1563 1606 1931 1193 
Q 2300 781 2944 781 
Q 3303 781 3628 887 
Q 3953 994 4288 1222 
L 4288 256 
z
" transform="scale(0.015625)"/>
      <path id="DejaVuSans-Bold-52" d="M 2203 2784 
Q 1831 2784 1636 2517 
Q 1441 2250 1441 1747 
Q 1441 1244 1636 976 
Q 1831 709 2203 709 
Q 2569 709 2762 976 
Q 2956 1244 2956 1747 
Q 2956 2250 2762 2517 
Q 2569 2784 2203 2784 
z
M 2203 3584 
Q 3106 3584 3614 3096 
Q 4122 2609 4122 1747 
Q 4122 884 3614 396 
Q 3106 -91 2203 -91 
Q 1297 -91 786 396 
Q 275 884 275 1747 
Q 275 2609 786 3096 
Q 1297 3584 2203 3584 
z
" transform="scale(0.015625)"/>
      <path id="DejaVuSans-Bold-50" d="M 3781 2919 
Q 3994 3244 4286 3414 
Q 4578 3584 4928 3584 
Q 5531 3584 5847 3212 
Q 6163 2841 6163 2131 
L 6163 0 
L 5038 0 
L 5038 1825 
Q 5041 1866 5042 1909 
Q 5044 1953 5044 2034 
Q 5044 2406 4934 2573 
Q 4825 2741 4581 2741 
Q 4263 2741 4089 2478 
Q 3916 2216 3909 1719 
L 3909 0 
L 2784 0 
L 2784 1825 
Q 2784 2406 2684 2573 
Q 2584 2741 2328 2741 
Q 2006 2741 1831 2477 
Q 1656 2213 1656 1722 
L 1656 0 
L 531 0 
L 531 3500 
L 1656 3500 
L 1656 2988 
Q 1863 3284 2130 3434 
Q 2397 3584 2719 3584 
Q 3081 3584 3359 3409 
Q 3638 3234 3781 2919 
z
" transform="scale(0.015625)"/>
      <path id="DejaVuSans-Bold-4c" d="M 538 3500 
L 1656 3500 
L 1656 0 
L 538 0 
L 538 3500 
z
M 538 4863 
L 1656 4863 
L 1656 3950 
L 538 3950 
L 538 4863 
z
" transform="scale(0.015625)"/>
      <path id="DejaVuSans-Bold-57" d="M 1759 4494 
L 1759 3500 
L 2913 3500 
L 2913 2700 
L 1759 2700 
L 1759 1216 
Q 1759 972 1856 886 
Q 1953 800 2241 800 
L 2816 800 
L 2816 0 
L 1856 0 
Q 1194 0 917 276 
Q 641 553 641 1216 
L 641 2700 
L 84 2700 
L 84 3500 
L 641 3500 
L 641 4494 
L 1759 4494 
z
" transform="scale(0.015625)"/>
      <path id="DejaVuSans-Bold-3" transform="scale(0.015625)"/>
      <path id="DejaVuSans-Bold-24" d="M 3419 850 
L 1538 850 
L 1241 0 
L 31 0 
L 1759 4666 
L 3194 4666 
L 4922 0 
L 3713 0 
L 3419 850 
z
M 1838 1716 
L 3116 1716 
L 2478 3572 
L 1838 1716 
z
" transform="scale(0.015625)"/>
      <path id="DejaVuSans-Bold-46" d="M 3366 3391 
L 3366 2478 
Q 3138 2634 2908 2709 
Q 2678 2784 2431 2784 
Q 1963 2784 1702 2511 
Q 1441 2238 1441 1747 
Q 1441 1256 1702 982 
Q 1963 709 2431 709 
Q 2694 709 2930 787 
Q 3166 866 3366 1019 
L 3366 103 
Q 3103 6 2833 -42 
Q 2563 -91 2291 -91 
Q 1344 -91 809 395 
Q 275 881 275 1747 
Q 275 2613 809 3098 
Q 1344 3584 2291 3584 
Q 2566 3584 2833 3536 
Q 3100 3488 3366 3391 
z
" transform="scale(0.015625)"/>
      <path id="DejaVuSans-Bold-59" d="M 97 3500 
L 1216 3500 
L 2088 1081 
L 2956 3500 
L 4078 3500 
L 2700 0 
L 1472 0 
L 97 3500 
z
" transform="scale(0.015625)"/>
      <path id="DejaVuSans-Bold-5c" d="M 78 3500 
L 1197 3500 
L 2138 1125 
L 2938 3500 
L 4056 3500 
L 2584 -331 
Q 2363 -916 2067 -1148 
Q 1772 -1381 1288 -1381 
L 641 -1381 
L 641 -647 
L 991 -647 
Q 1275 -647 1404 -556 
Q 1534 -466 1606 -231 
L 1638 -134 
L 78 3500 
z
" transform="scale(0.015625)"/>
      <path id="DejaVuSans-Bold-79" d="M 653 2828 
L 1778 2828 
L 1778 1619 
L 653 1619 
L 653 2828 
z
" transform="scale(0.015625)"/>
      <path id="DejaVuSans-Bold-15" d="M 1844 884 
L 3897 884 
L 3897 0 
L 506 0 
L 506 884 
L 2209 2388 
Q 2438 2594 2547 2791 
Q 2656 2988 2656 3200 
Q 2656 3528 2436 3728 
Q 2216 3928 1850 3928 
Q 1569 3928 1234 3808 
Q 900 3688 519 3450 
L 519 4475 
Q 925 4609 1322 4679 
Q 1719 4750 2100 4750 
Q 2938 4750 3402 4381 
Q 3866 4013 3866 3353 
Q 3866 2972 3669 2642 
Q 3472 2313 2841 1759 
L 1844 884 
z
" transform="scale(0.015625)"/>
      <path id="DejaVuSans-Bold-13" d="M 2944 2338 
Q 2944 3213 2780 3570 
Q 2616 3928 2228 3928 
Q 1841 3928 1675 3570 
Q 1509 3213 1509 2338 
Q 1509 1453 1675 1090 
Q 1841 728 2228 728 
Q 2613 728 2778 1090 
Q 2944 1453 2944 2338 
z
M 4147 2328 
Q 4147 1169 3647 539 
Q 3147 -91 2228 -91 
Q 1306 -91 806 539 
Q 306 1169 306 2328 
Q 306 3491 806 4120 
Q 1306 4750 2228 4750 
Q 3147 4750 3647 4120 
Q 4147 3491 4147 2328 
z
" transform="scale(0.015625)"/>
      <path id="DejaVuSans-Bold-19" d="M 2316 2303 
Q 2000 2303 1842 2098 
Q 1684 1894 1684 1484 
Q 1684 1075 1842 870 
Q 2000 666 2316 666 
Q 2634 666 2792 870 
Q 2950 1075 2950 1484 
Q 2950 1894 2792 2098 
Q 2634 2303 2316 2303 
z
M 3803 4544 
L 3803 3681 
Q 3506 3822 3243 3889 
Q 2981 3956 2731 3956 
Q 2194 3956 1894 3657 
Q 1594 3359 1544 2772 
Q 1750 2925 1990 3001 
Q 2231 3078 2516 3078 
Q 3231 3078 3670 2659 
Q 4109 2241 4109 1563 
Q 4109 813 3618 361 
Q 3128 -91 2303 -91 
Q 1394 -91 895 523 
Q 397 1138 397 2266 
Q 397 3422 980 4083 
Q 1563 4744 2578 4744 
Q 2900 4744 3203 4694 
Q 3506 4644 3803 4544 
z
" transform="scale(0.015625)"/>
      <path id="DejaVuSans-Bold-3c" d="M -63 4666 
L 1253 4666 
L 2316 3003 
L 3378 4666 
L 4697 4666 
L 2919 1966 
L 2919 0 
L 1716 0 
L 1716 1966 
L -63 4666 
z
" transform="scale(0.015625)"/>
      <path id="DejaVuSans-Bold-37" d="M 31 4666 
L 4331 4666 
L 4331 3756 
L 2784 3756 
L 2784 0 
L 1581 0 
L 1581 3756 
L 31 3756 
L 31 4666 
z
" transform="scale(0.015625)"/>
      <path id="DejaVuSans-Bold-27" d="M 1791 3756 
L 1791 909 
L 2222 909 
Q 2959 909 3348 1275 
Q 3738 1641 3738 2338 
Q 3738 3031 3350 3393 
Q 2963 3756 2222 3756 
L 1791 3756 
z
M 588 4666 
L 1856 4666 
Q 2919 4666 3439 4514 
Q 3959 4363 4331 4000 
Q 4659 3684 4818 3271 
Q 4978 2859 4978 2338 
Q 4978 1809 4818 1395 
Q 4659 981 4331 666 
Q 3956 303 3431 151 
Q 2906 0 1856 0 
L 588 0 
L 588 4666 
z
" transform="scale(0.015625)"/>
     </defs>
     <use xlink:href="#DejaVuSans-Bold-26"/>
     <use xlink:href="#DejaVuSans-Bold-52" transform="translate(73.390625 0)"/>
     <use xlink:href="#DejaVuSans-Bold-50" transform="translate(142.09375 0)"/>
     <use xlink:href="#DejaVuSans-Bold-50" transform="translate(246.296875 0)"/>
     <use xlink:href="#DejaVuSans-Bold-4c" transform="translate(350.5 0)"/>
     <use xlink:href="#DejaVuSans-Bold-57" transform="translate(384.78125 0)"/>
     <use xlink:href="#DejaVuSans-Bold-3" transform="translate(432.578125 0)"/>
     <use xlink:href="#DejaVuSans-Bold-24" transform="translate(467.390625 0)"/>
     <use xlink:href="#DejaVuSans-Bold-46" transform="translate(544.78125 0)"/>
     <use xlink:href="#DejaVuSans-Bold-57" transform="translate(604.0625 0)"/>
     <use xlink:href="#DejaVuSans-Bold-4c" transform="translate(651.859375 0)"/>
     <use xlink:href="#DejaVuSans-Bold-59" transform="translate(686.140625 0)"/>
     <use xlink:href="#DejaVuSans-Bold-4c" transform="translate(751.328125 0)"/>
     <use xlink:href="#DejaVuSans-Bold-57" transform="translate(785.609375 0)"/>
     <use xlink:href="#DejaVuSans-Bold-5c" transform="translate(833.40625 0)"/>
     <use xlink:href="#DejaVuSans-Bold-3" transform="translate(898.59375 0)"/>
     <use xlink:href="#DejaVuSans-Bold-79" transform="translate(933.40625 0)"/>
     <use xlink:href="#DejaVuSans-Bold-3" transform="translate(971.390625 0)"/>
     <use xlink:href="#DejaVuSans-Bold-15" transform="translate(1006.203125 0)"/>
     <use xlink:href="#DejaVuSans-Bold-13" transform="translate(1075.78125 0)"/>
     <use xlink:href="#DejaVuSans-Bold-15" transform="translate(1145.359375 0)"/>
     <use xlink:href="#DejaVuSans-Bold-19" transform="translate(1214.9375 0)"/>
     <use xlink:href="#DejaVuSans-Bold-3" transform="translate(1284.515625 0)"/>
     <use xlink:href="#DejaVuSans-Bold-3c" transform="translate(1319.328125 0)"/>
     <use xlink:href="#DejaVuSans-Bold-37" transform="translate(1391.734375 0)"/>
     <use xlink:href="#DejaVuSans-Bold-27" transform="translate(1459.953125 0)"/>
    </g>
   </g>
  </g>
 </g>
 <defs>
  <clipPath id="pa216d6067d">
   <rect x="53.288359" y="43.069718" width="867.96" height="323.361713"/>
  </clipPath>
 </defs>
</svg>
